STARTFONT 2.1
COMMENT
COMMENT Shinonome 14dot font for JISX 0208, 1983/1990
COMMENT
COMMENT The original is k14goth by
COMMENT   Yasuyuki Furukawa <Furukawa.Yasuyuki@fujixerox.co.jp>, 2000.
COMMENT   (Public Domain)
COMMENT
COMMENT > Donated by H. Kagotani <kagotani@cs.titech.ac.jp>;
COMMENT >   public domainfont from Japan
COMMENT > JIS X 0208-1990 design is made by
COMMENT >   TAKADA Toshihiro <takada@seraph.ntt.jp>.
COMMENT > Modified for gothic like by Yasuyuki Furukawa
COMMENT
COMMENT Modified and Maintained by /efont/.
COMMENT
COMMENT (c) /efont/ -- Efont Open Laboratory 2001
COMMENT http://openlab.ring.gr.jp/efont/
COMMENT
FONT -Shinonome-Gothic-Medium-I-Normal--14-130-75-75-C-140-JISX0208.1990-0
SIZE 14 75 75
FONTBOUNDINGBOX 18 14 -2 -2
STARTPROPERTIES 20
FONTNAME_REGISTRY ""
FOUNDRY "Shinonome"
FAMILY_NAME "Gothic"
WEIGHT_NAME "Medium"
SLANT "I"
SETWIDTH_NAME "Normal"
ADD_STYLE_NAME ""
PIXEL_SIZE 14
POINT_SIZE 130
RESOLUTION_X 75
RESOLUTION_Y 75
SPACING "C"
AVERAGE_WIDTH 140
CHARSET_REGISTRY "JISX0208.1990"
CHARSET_ENCODING "0"
DEFAULT_CHAR 8481
FONT_DESCENT 2
FONT_ASCENT 12
COPYRIGHT "Public domain font.  Share and enjoy."
_XMBDFED_INFO "Edited with xmbdfed 4.4."
ENDPROPERTIES
CHARS 6879
STARTCHAR 2121
ENCODING 8481
SWIDTH 960 0
DWIDTH 14 0
BBX 18 14 -2 -2
BITMAP
000000
000000
000000
000000
000000
000000
000000
000000
000000
000000
000000
000000
000000
000000
ENDCHAR
STARTCHAR 2122
ENCODING 8482
SWIDTH 960 0
DWIDTH 14 0
BBX 18 14 -2 -2
BITMAP
000000
000000
000000
000000
000000
000000
000000
000000
000000
000000
200000
100000
100000
100000
ENDCHAR
STARTCHAR 2123
ENCODING 8483
SWIDTH 960 0
DWIDTH 14 0
BBX 18 14 -2 -2
BITMAP
000000
000000
000000
000000
000000
000000
000000
000000
000000
000000
100000
280000
280000
100000
ENDCHAR
STARTCHAR 2124
ENCODING 8484
SWIDTH 960 0
DWIDTH 14 0
BBX 18 14 -2 -2
BITMAP
000000
000000
000000
000000
000000
000000
000000
000000
000000
000000
300000
300000
200000
400000
ENDCHAR
STARTCHAR 2125
ENCODING 8485
SWIDTH 960 0
DWIDTH 14 0
BBX 18 14 -2 -2
BITMAP
000000
000000
000000
000000
000000
000000
000000
000000
000000
000000
000000
300000
600000
000000
ENDCHAR
STARTCHAR 2126
ENCODING 8486
SWIDTH 960 0
DWIDTH 14 0
BBX 18 14 -2 -2
BITMAP
000000
000000
000000
000000
000000
000000
004000
00E000
004000
000000
000000
000000
000000
000000
ENDCHAR
STARTCHAR 2127
ENCODING 8487
SWIDTH 960 0
DWIDTH 14 0
BBX 18 14 -2 -2
BITMAP
000000
000000
000000
006000
006000
000000
000000
000000
00C000
018000
000000
000000
000000
000000
ENDCHAR
STARTCHAR 2128
ENCODING 8488
SWIDTH 960 0
DWIDTH 14 0
BBX 18 14 -2 -2
BITMAP
000000
000000
000000
006000
006000
000000
000000
000000
00C000
018000
008000
010000
000000
000000
ENDCHAR
STARTCHAR 2129
ENCODING 8489
SWIDTH 960 0
DWIDTH 14 0
BBX 18 14 -2 -2
BITMAP
000000
007800
008400
010400
020400
020800
001000
002000
004000
008000
008000
000000
030000
030000
ENDCHAR
STARTCHAR 212a
ENCODING 8490
SWIDTH 960 0
DWIDTH 14 0
BBX 18 14 -2 -2
BITMAP
001000
001800
001800
003000
003000
002000
004000
004000
004000
008000
000000
008000
038000
010000
ENDCHAR
STARTCHAR 212b
ENCODING 8491
SWIDTH 960 0
DWIDTH 14 0
BBX 18 14 -2 -2
BITMAP
010000
048000
020000
000000
000000
000000
000000
000000
000000
000000
000000
000000
000000
000000
ENDCHAR
STARTCHAR 212c
ENCODING 8492
SWIDTH 960 0
DWIDTH 14 0
BBX 18 14 -2 -2
BITMAP
030000
048000
050000
060000
000000
000000
000000
000000
000000
000000
000000
000000
000000
000000
ENDCHAR
STARTCHAR 212d
ENCODING 8493
SWIDTH 960 0
DWIDTH 14 0
BBX 18 14 -2 -2
BITMAP
001800
003000
004000
000000
000000
000000
000000
000000
000000
000000
000000
000000
000000
000000
ENDCHAR
STARTCHAR 212e
ENCODING 8494
SWIDTH 960 0
DWIDTH 14 0
BBX 18 14 -2 -2
BITMAP
006000
003000
000800
000000
000000
000000
000000
000000
000000
000000
000000
000000
000000
000000
ENDCHAR
STARTCHAR 212f
ENCODING 8495
SWIDTH 960 0
DWIDTH 14 0
BBX 18 14 -2 -2
BITMAP
00C600
00C600
000000
000000
000000
000000
000000
000000
000000
000000
000000
000000
000000
000000
ENDCHAR
STARTCHAR 2130
ENCODING 8496
SWIDTH 960 0
DWIDTH 14 0
BBX 18 14 -2 -2
BITMAP
001000
002800
00C400
010400
000000
000000
000000
000000
000000
000000
000000
000000
000000
000000
ENDCHAR
STARTCHAR 2131
ENCODING 8497
SWIDTH 960 0
DWIDTH 14 0
BBX 18 14 -2 -2
BITMAP
0FFFC0
000000
000000
000000
000000
000000
000000
000000
000000
000000
000000
000000
000000
000000
ENDCHAR
STARTCHAR 2132
ENCODING 8498
SWIDTH 960 0
DWIDTH 14 0
BBX 18 14 -2 -2
BITMAP
000000
000000
000000
000000
000000
000000
000000
000000
000000
000000
000000
000000
000000
FFFC00
ENDCHAR
STARTCHAR 2133
ENCODING 8499
SWIDTH 960 0
DWIDTH 14 0
BBX 18 14 -2 -2
BITMAP
000000
000000
000000
000000
018000
004000
002000
001000
000800
000000
000000
000000
000000
000000
ENDCHAR
STARTCHAR 2134
ENCODING 8500
SWIDTH 960 0
DWIDTH 14 0
BBX 18 14 -2 -2
BITMAP
000000
000000
000200
001200
018800
004000
002000
001000
000800
000000
000000
000000
000000
000000
ENDCHAR
STARTCHAR 2135
ENCODING 8501
SWIDTH 960 0
DWIDTH 14 0
BBX 18 14 -2 -2
BITMAP
000000
000000
000000
000000
018000
004000
002000
003000
004000
000000
000000
000000
000000
000000
ENDCHAR
STARTCHAR 2136
ENCODING 8502
SWIDTH 960 0
DWIDTH 14 0
BBX 18 14 -2 -2
BITMAP
000000
000000
000200
001200
018800
004000
002000
003000
004000
000000
000000
000000
000000
000000
ENDCHAR
STARTCHAR 2137
ENCODING 8503
SWIDTH 960 0
DWIDTH 14 0
BBX 18 14 -2 -2
BITMAP
000000
000000
000000
000000
008800
010800
011000
022000
046000
088000
000000
000000
000000
000000
ENDCHAR
STARTCHAR 2138
ENCODING 8504
SWIDTH 960 0
DWIDTH 14 0
BBX 18 14 -2 -2
BITMAP
001000
001000
002800
00C800
010400
060200
180100
03F800
004000
008000
008000
008000
7FFC00
000000
ENDCHAR
STARTCHAR 2139
ENCODING 8505
SWIDTH 960 0
DWIDTH 14 0
BBX 18 14 -2 -2
BITMAP
000000
000000
002000
004000
007E00
008400
010800
021000
04A000
00C000
002000
001000
000000
000000
ENDCHAR
STARTCHAR 213a
ENCODING 8506
SWIDTH 960 0
DWIDTH 14 0
BBX 18 14 -2 -2
BITMAP
000000
000000
000100
000200
000400
00D800
016000
024000
05A000
0A0000
0C0000
100000
200000
000000
ENDCHAR
STARTCHAR 213b
ENCODING 8507
SWIDTH 960 0
DWIDTH 14 0
BBX 18 14 -2 -2
BITMAP
000000
007C00
018200
020100
040100
080100
100100
100100
100200
100200
100400
100800
083000
07C000
ENDCHAR
STARTCHAR 213c
ENCODING 8508
SWIDTH 960 0
DWIDTH 14 0
BBX 18 14 -2 -2
BITMAP
000000
000000
000000
000000
000000
000000
100000
0FFC00
000000
000000
000000
000000
000000
000000
ENDCHAR
STARTCHAR 213d
ENCODING 8509
SWIDTH 960 0
DWIDTH 14 0
BBX 18 14 -2 -2
BITMAP
000000
000000
000000
000000
000000
000000
3FFF00
000000
000000
000000
000000
000000
000000
000000
ENDCHAR
STARTCHAR 213e
ENCODING 8510
SWIDTH 960 0
DWIDTH 14 0
BBX 18 14 -2 -2
BITMAP
000000
000000
000000
000000
000000
000000
01F000
000000
000000
000000
000000
000000
000000
000000
ENDCHAR
STARTCHAR 213f
ENCODING 8511
SWIDTH 960 0
DWIDTH 14 0
BBX 18 14 -2 -2
BITMAP
000040
000080
000300
000400
000800
003000
004000
008000
030000
040000
080000
300000
400000
800000
ENDCHAR
STARTCHAR 2140
ENCODING 8512
SWIDTH 960 0
DWIDTH 14 0
BBX 18 14 -2 -2
BITMAP
080000
040000
020000
020000
010000
008000
008000
004000
002000
002000
001000
000800
000800
000400
ENDCHAR
STARTCHAR 2141
ENCODING 8513
SWIDTH 960 0
DWIDTH 14 0
BBX 18 14 -2 -2
BITMAP
000000
000000
000000
000000
000000
070000
088200
104400
003800
000000
000000
000000
000000
000000
ENDCHAR
STARTCHAR 2142
ENCODING 8514
SWIDTH 960 0
DWIDTH 14 0
BBX 18 14 -2 -2
BITMAP
004800
004800
004800
009000
009000
009000
012000
012000
012000
024000
024000
024000
048000
048000
ENDCHAR
STARTCHAR 2143
ENCODING 8515
SWIDTH 960 0
DWIDTH 14 0
BBX 18 14 -2 -2
BITMAP
001000
001000
001000
002000
002000
002000
004000
004000
004000
008000
008000
008000
010000
010000
ENDCHAR
STARTCHAR 2144
ENCODING 8516
SWIDTH 960 0
DWIDTH 14 0
BBX 18 14 -2 -2
BITMAP
000000
000000
000000
000000
000000
000000
0CCC00
0CCC00
000000
000000
000000
000000
000000
000000
ENDCHAR
STARTCHAR 2145
ENCODING 8517
SWIDTH 960 0
DWIDTH 14 0
BBX 18 14 -2 -2
BITMAP
000000
000000
000000
000000
000000
000000
041000
041000
000000
000000
000000
000000
000000
000000
ENDCHAR
STARTCHAR 2146
ENCODING 8518
SWIDTH 960 0
DWIDTH 14 0
BBX 18 14 -2 -2
BITMAP
000080
000100
000200
000400
000600
000000
000000
000000
000000
000000
000000
000000
000000
000000
ENDCHAR
STARTCHAR 2147
ENCODING 8519
SWIDTH 960 0
DWIDTH 14 0
BBX 18 14 -2 -2
BITMAP
030000
010000
020000
040000
080000
000000
000000
000000
000000
000000
000000
000000
000000
000000
ENDCHAR
STARTCHAR 2148
ENCODING 8520
SWIDTH 960 0
DWIDTH 14 0
BBX 18 14 -2 -2
BITMAP
000880
001100
003300
006600
006600
000000
000000
000000
000000
000000
000000
000000
000000
000000
ENDCHAR
STARTCHAR 2149
ENCODING 8521
SWIDTH 960 0
DWIDTH 14 0
BBX 18 14 -2 -2
BITMAP
033000
011000
023000
044000
088000
000000
000000
000000
000000
000000
000000
000000
000000
000000
ENDCHAR
STARTCHAR 214a
ENCODING 8522
SWIDTH 960 0
DWIDTH 14 0
BBX 18 14 -2 -2
BITMAP
000080
000100
000200
000400
000800
001000
002000
002000
002000
002000
002000
001000
001000
000800
ENDCHAR
STARTCHAR 214b
ENCODING 8523
SWIDTH 960 0
DWIDTH 14 0
BBX 18 14 -2 -2
BITMAP
040000
020000
010000
010000
010000
010000
010000
010000
020000
020000
040000
180000
200000
400000
ENDCHAR
STARTCHAR 214c
ENCODING 8524
SWIDTH 960 0
DWIDTH 14 0
BBX 18 14 -2 -2
BITMAP
000080
000100
000200
000400
000800
000800
001000
001000
001000
002000
002000
001000
001000
000800
ENDCHAR
STARTCHAR 214d
ENCODING 8525
SWIDTH 960 0
DWIDTH 14 0
BBX 18 14 -2 -2
BITMAP
040000
020000
010000
010000
010000
010000
020000
020000
020000
040000
040000
080000
300000
400000
ENDCHAR
STARTCHAR 214e
ENCODING 8526
SWIDTH 960 0
DWIDTH 14 0
BBX 18 14 -2 -2
BITMAP
000F80
000800
000800
001000
001000
001000
002000
002000
002000
004000
004000
004000
008000
00F800
ENDCHAR
STARTCHAR 214f
ENCODING 8527
SWIDTH 960 0
DWIDTH 14 0
BBX 18 14 -2 -2
BITMAP
07C000
004000
004000
008000
008000
008000
010000
010000
010000
020000
020000
020000
040000
7C0000
ENDCHAR
STARTCHAR 2150
ENCODING 8528
SWIDTH 960 0
DWIDTH 14 0
BBX 18 14 -2 -2
BITMAP
000180
000200
000400
000800
000800
001000
006000
001000
001000
002000
002000
002000
002000
001800
ENDCHAR
STARTCHAR 2151
ENCODING 8529
SWIDTH 960 0
DWIDTH 14 0
BBX 18 14 -2 -2
BITMAP
060000
010000
010000
010000
010000
010000
018000
020000
020000
040000
040000
080000
100000
600000
ENDCHAR
STARTCHAR 2152
ENCODING 8530
SWIDTH 960 0
DWIDTH 14 0
BBX 18 14 -2 -2
BITMAP
000080
000100
000600
000800
001000
002000
004000
008000
004000
004000
002000
001000
001000
000800
ENDCHAR
STARTCHAR 2153
ENCODING 8531
SWIDTH 960 0
DWIDTH 14 0
BBX 18 14 -2 -2
BITMAP
040000
020000
010000
010000
008000
004000
004000
004000
008000
030000
040000
180000
200000
400000
ENDCHAR
STARTCHAR 2154
ENCODING 8532
SWIDTH 960 0
DWIDTH 14 0
BBX 18 14 -2 -2
BITMAP
000480
000480
000A00
001200
002400
004400
004800
009000
008800
008800
004800
004800
004800
004800
ENDCHAR
STARTCHAR 2155
ENCODING 8533
SWIDTH 960 0
DWIDTH 14 0
BBX 18 14 -2 -2
BITMAP
048000
048000
044000
044000
024000
024000
024000
024000
050000
090000
120000
220000
240000
480000
ENDCHAR
STARTCHAR 2156
ENCODING 8534
SWIDTH 960 0
DWIDTH 14 0
BBX 18 14 -2 -2
BITMAP
001F80
001000
001000
002000
002000
002000
004000
004000
004000
008000
008000
008000
010000
010000
ENDCHAR
STARTCHAR 2157
ENCODING 8535
SWIDTH 960 0
DWIDTH 14 0
BBX 18 14 -2 -2
BITMAP
002000
002000
002000
004000
004000
004000
008000
008000
008000
010000
010000
010000
020000
7E0000
ENDCHAR
STARTCHAR 2158
ENCODING 8536
SWIDTH 960 0
DWIDTH 14 0
BBX 18 14 -2 -2
BITMAP
003F80
002080
002F80
005000
005000
005000
00A000
00A000
00A000
014000
014000
014000
028000
038000
ENDCHAR
STARTCHAR 2159
ENCODING 8537
SWIDTH 960 0
DWIDTH 14 0
BBX 18 14 -2 -2
BITMAP
007000
005000
005000
00A000
00A000
00A000
014000
014000
014000
028000
028000
3E8000
410000
7F0000
ENDCHAR
STARTCHAR 215a
ENCODING 8538
SWIDTH 960 0
DWIDTH 14 0
BBX 18 14 -2 -2
BITMAP
000F80
000F00
000E00
001C00
001800
001800
003000
003000
003000
006000
007000
007000
00F000
00F800
ENDCHAR
STARTCHAR 215b
ENCODING 8539
SWIDTH 960 0
DWIDTH 14 0
BBX 18 14 -2 -2
BITMAP
07C000
03C000
01C000
038000
018000
018000
030000
030000
030000
060000
0E0000
0E0000
3C0000
7C0000
ENDCHAR
STARTCHAR 215c
ENCODING 8540
SWIDTH 960 0
DWIDTH 14 0
BBX 18 14 -2 -2
BITMAP
000000
001000
001000
002000
002000
002000
0FFE00
004000
004000
008000
008000
008000
010000
000000
ENDCHAR
STARTCHAR 215d
ENCODING 8541
SWIDTH 960 0
DWIDTH 14 0
BBX 18 14 -2 -2
BITMAP
000000
000000
000000
000000
000000
000000
0FFE00
000000
000000
000000
000000
000000
000000
000000
ENDCHAR
STARTCHAR 215e
ENCODING 8542
SWIDTH 960 0
DWIDTH 14 0
BBX 18 14 -2 -2
BITMAP
000000
001000
001000
002000
002000
07FF00
004000
004000
004000
008000
000000
1FFC00
000000
000000
ENDCHAR
STARTCHAR 215f
ENCODING 8543
SWIDTH 960 0
DWIDTH 14 0
BBX 18 14 -2 -2
BITMAP
000000
020080
010300
010400
008800
007000
004000
00A000
031000
041000
080800
100400
000000
000000
ENDCHAR
STARTCHAR 2160
ENCODING 8544
SWIDTH 960 0
DWIDTH 14 0
BBX 18 14 -2 -2
BITMAP
000000
001000
003800
002000
000000
000000
0FFE00
000000
000000
008000
01C000
008000
000000
000000
ENDCHAR
STARTCHAR 2161
ENCODING 8545
SWIDTH 960 0
DWIDTH 14 0
BBX 18 14 -2 -2
BITMAP
000000
000000
000000
000000
07FF00
000000
000000
000000
0FFE00
000000
000000
000000
000000
000000
ENDCHAR
STARTCHAR 2162
ENCODING 8546
SWIDTH 960 0
DWIDTH 14 0
BBX 18 14 -2 -2
BITMAP
000000
000800
000800
001000
07FF00
002000
004000
004000
0FFE00
010000
010000
010000
000000
000000
ENDCHAR
STARTCHAR 2163
ENCODING 8547
SWIDTH 960 0
DWIDTH 14 0
BBX 18 14 -2 -2
BITMAP
000100
000600
001800
006000
008000
070000
080000
060000
010000
008000
004000
002000
001000
000000
ENDCHAR
STARTCHAR 2164
ENCODING 8548
SWIDTH 960 0
DWIDTH 14 0
BBX 18 14 -2 -2
BITMAP
020000
018000
004000
002000
001000
000800
000400
001800
006000
018000
020000
1C0000
200000
000000
ENDCHAR
STARTCHAR 2165
ENCODING 8549
SWIDTH 960 0
DWIDTH 14 0
BBX 18 14 -2 -2
BITMAP
000300
000C00
007000
018000
060000
018000
004000
003000
000C00
000000
1FFC00
000000
3FF800
000000
ENDCHAR
STARTCHAR 2166
ENCODING 8550
SWIDTH 960 0
DWIDTH 14 0
BBX 18 14 -2 -2
BITMAP
030000
00C000
003000
000800
000600
003800
00C000
030000
0C0000
000000
1FFC00
000000
3FF800
000000
ENDCHAR
STARTCHAR 2167
ENCODING 8551
SWIDTH 960 0
DWIDTH 14 0
BBX 18 14 -2 -2
BITMAP
000000
000000
000000
000000
038E00
069B00
08E200
08E200
09B600
0E3800
000000
000000
000000
000000
ENDCHAR
STARTCHAR 2168
ENCODING 8552
SWIDTH 960 0
DWIDTH 14 0
BBX 18 14 -2 -2
BITMAP
000000
000000
001000
007000
002000
000000
000000
000000
000000
080800
1C1C00
080800
000000
000000
ENDCHAR
STARTCHAR 2169
ENCODING 8553
SWIDTH 960 0
DWIDTH 14 0
BBX 18 14 -2 -2
BITMAP
000000
003F80
000380
000500
000900
003100
074200
088200
108000
208000
210000
120000
0C0000
000000
ENDCHAR
STARTCHAR 216a
ENCODING 8554
SWIDTH 960 0
DWIDTH 14 0
BBX 18 14 -2 -2
BITMAP
000000
003800
004400
008400
010400
010800
011000
00E000
004000
008000
0FF800
008000
010000
010000
ENDCHAR
STARTCHAR 216b
ENCODING 8555
SWIDTH 960 0
DWIDTH 14 0
BBX 18 14 -2 -2
BITMAP
000000
010000
028000
028000
010000
000000
000000
000000
000000
000000
000000
000000
000000
000000
ENDCHAR
STARTCHAR 216c
ENCODING 8556
SWIDTH 960 0
DWIDTH 14 0
BBX 18 14 -2 -2
BITMAP
000000
018000
018000
020000
040000
000000
000000
000000
000000
000000
000000
000000
000000
000000
ENDCHAR
STARTCHAR 216d
ENCODING 8557
SWIDTH 960 0
DWIDTH 14 0
BBX 18 14 -2 -2
BITMAP
000000
01B000
01B000
024000
048000
000000
000000
000000
000000
000000
000000
000000
000000
000000
ENDCHAR
STARTCHAR 216e
ENCODING 8558
SWIDTH 960 0
DWIDTH 14 0
BBX 18 14 -2 -2
BITMAP
000000
020000
051C80
052300
024100
008000
010000
010000
010000
010000
010400
009800
006000
000000
ENDCHAR
STARTCHAR 216f
ENCODING 8559
SWIDTH 960 0
DWIDTH 14 0
BBX 18 14 -2 -2
BITMAP
000000
070700
020600
020800
011000
0FFE00
014000
008000
1FFC00
010000
010000
010000
070000
000000
ENDCHAR
STARTCHAR 2170
ENCODING 8560
SWIDTH 960 0
DWIDTH 14 0
BBX 18 14 -2 -2
BITMAP
000000
001000
00F800
012400
022200
022200
014000
00E000
005000
088800
088800
04B000
03C000
010000
ENDCHAR
STARTCHAR 2171
ENCODING 8561
SWIDTH 960 0
DWIDTH 14 0
BBX 18 14 -2 -2
BITMAP
000000
000800
000800
007000
00A800
012800
024800
044000
048000
051000
032000
03C000
040000
040000
ENDCHAR
STARTCHAR 2172
ENCODING 8562
SWIDTH 960 0
DWIDTH 14 0
BBX 18 14 -2 -2
BITMAP
000000
000C00
001200
002200
004000
008000
010000
0FF800
010000
1A0000
260400
299800
306000
000000
ENDCHAR
STARTCHAR 2173
ENCODING 8563
SWIDTH 960 0
DWIDTH 14 0
BBX 18 14 -2 -2
BITMAP
000000
018080
024300
044400
084800
05B000
064000
009800
032400
044400
088400
305800
406000
000000
ENDCHAR
STARTCHAR 2174
ENCODING 8564
SWIDTH 960 0
DWIDTH 14 0
BBX 18 14 -2 -2
BITMAP
000000
002200
002200
004400
03FF00
008800
011000
011000
011000
1FF800
044000
044000
088000
088000
ENDCHAR
STARTCHAR 2175
ENCODING 8565
SWIDTH 960 0
DWIDTH 14 0
BBX 18 14 -2 -2
BITMAP
000000
00C000
012000
022000
022000
014000
018E00
028400
045800
086000
106000
099000
061800
000000
ENDCHAR
STARTCHAR 2176
ENCODING 8566
SWIDTH 960 0
DWIDTH 14 0
BBX 18 14 -2 -2
BITMAP
000000
000000
001000
007000
032600
03BE00
00E000
00E000
075C00
0C9800
01C000
008000
000000
000000
ENDCHAR
STARTCHAR 2177
ENCODING 8567
SWIDTH 960 0
DWIDTH 14 0
BBX 18 14 -2 -2
BITMAP
000000
003800
01C400
020200
047900
089900
093200
122200
126400
11B800
100400
0C1800
03E000
000000
ENDCHAR
STARTCHAR 2178
ENCODING 8568
SWIDTH 960 0
DWIDTH 14 0
BBX 18 14 -2 -2
BITMAP
003800
004400
004400
00C000
006000
00E000
013000
019000
00E000
00C000
006000
022000
024000
018000
ENDCHAR
STARTCHAR 2179
ENCODING 8569
SWIDTH 960 0
DWIDTH 14 0
BBX 18 14 -2 -2
BITMAP
000000
001000
001000
003000
005000
0F8F80
0C0600
031800
011000
029000
055000
0E3000
101000
000000
ENDCHAR
STARTCHAR 217a
ENCODING 8570
SWIDTH 960 0
DWIDTH 14 0
BBX 18 14 -2 -2
BITMAP
000000
001000
001000
007000
007000
0FFF80
0FFE00
03F800
01F000
07F000
077000
0E3000
101000
000000
ENDCHAR
STARTCHAR 217b
ENCODING 8571
SWIDTH 960 0
DWIDTH 14 0
BBX 18 14 -2 -2
BITMAP
000000
000000
007800
018400
020200
040200
040200
080200
080400
080400
080800
063000
01C000
000000
ENDCHAR
STARTCHAR 217c
ENCODING 8572
SWIDTH 960 0
DWIDTH 14 0
BBX 18 14 -2 -2
BITMAP
000000
000000
003800
01FC00
03FE00
03FE00
0FFE00
0FFE00
0FFE00
0FF800
0FF800
07F000
038000
000000
ENDCHAR
STARTCHAR 217d
ENCODING 8573
SWIDTH 960 0
DWIDTH 14 0
BBX 18 14 -2 -2
BITMAP
000000
000000
007000
018C00
027200
038E00
060A00
0A0A00
0E1C00
0A2400
09C800
067000
018000
000000
ENDCHAR
STARTCHAR 217e
ENCODING 8574
SWIDTH 960 0
DWIDTH 14 0
BBX 18 14 -2 -2
BITMAP
000000
001000
006800
008800
010400
060200
080200
100100
080600
080800
041000
026000
028000
010000
ENDCHAR
STARTCHAR 2221
ENCODING 8737
SWIDTH 960 0
DWIDTH 14 0
BBX 18 14 -2 -2
BITMAP
000000
001000
003800
00F800
01FC00
03FE00
0FFE00
1FFF00
0FFE00
0FF800
07F000
03E000
038000
010000
ENDCHAR
STARTCHAR 2222
ENCODING 8738
SWIDTH 960 0
DWIDTH 14 0
BBX 18 14 -2 -2
BITMAP
000000
07FF80
040080
080100
080100
080100
100200
100200
100200
200400
200400
200400
7FF800
000000
ENDCHAR
STARTCHAR 2223
ENCODING 8739
SWIDTH 960 0
DWIDTH 14 0
BBX 18 14 -2 -2
BITMAP
000000
07FF80
07FF80
0FFF00
0FFF00
0FFF00
1FFE00
1FFE00
1FFE00
3FFC00
3FFC00
3FFC00
7FF800
000000
ENDCHAR
STARTCHAR 2224
ENCODING 8740
SWIDTH 960 0
DWIDTH 14 0
BBX 18 14 -2 -2
BITMAP
000000
001000
001000
003000
005000
009000
011000
020800
040800
040800
080800
1FFC00
000000
000000
ENDCHAR
STARTCHAR 2225
ENCODING 8741
SWIDTH 960 0
DWIDTH 14 0
BBX 18 14 -2 -2
BITMAP
000000
001000
001000
007000
007000
00F800
01F000
03F800
03F800
0FF800
0FF800
1FFC00
000000
000000
ENDCHAR
STARTCHAR 2226
ENCODING 8742
SWIDTH 960 0
DWIDTH 14 0
BBX 18 14 -2 -2
BITMAP
000000
03FF80
010200
010200
010400
010800
010800
011000
012000
014000
008000
008000
000000
000000
ENDCHAR
STARTCHAR 2227
ENCODING 8743
SWIDTH 960 0
DWIDTH 14 0
BBX 18 14 -2 -2
BITMAP
000000
03FF80
01FF00
03FE00
01FC00
01FC00
01F000
01F000
00E000
01C000
008000
008000
000000
000000
ENDCHAR
STARTCHAR 2228
ENCODING 8744
SWIDTH 960 0
DWIDTH 14 0
BBX 18 14 -2 -2
BITMAP
000000
000000
021180
027200
012400
009800
04A400
0E4E00
05A400
022000
049000
19C800
210800
000000
ENDCHAR
STARTCHAR 2229
ENCODING 8745
SWIDTH 960 0
DWIDTH 14 0
BBX 18 14 -2 -2
BITMAP
000000
03FF00
03FF00
000000
000000
0FFF00
1FFE00
00C000
00C000
018000
018000
018000
030000
000000
ENDCHAR
STARTCHAR 222a
ENCODING 8746
SWIDTH 960 0
DWIDTH 14 0
BBX 18 14 -2 -2
BITMAP
000000
000000
000000
002000
001000
000C00
1FFE00
001800
006000
008000
000000
000000
000000
000000
ENDCHAR
STARTCHAR 222b
ENCODING 8747
SWIDTH 960 0
DWIDTH 14 0
BBX 18 14 -2 -2
BITMAP
000000
000000
000000
004000
008000
030000
1FFE00
060000
010000
010000
000000
000000
000000
000000
ENDCHAR
STARTCHAR 222c
ENCODING 8748
SWIDTH 960 0
DWIDTH 14 0
BBX 18 14 -2 -2
BITMAP
000000
001000
001000
007000
007000
00A800
034800
004000
004000
008000
008000
008000
010000
000000
ENDCHAR
STARTCHAR 222d
ENCODING 8749
SWIDTH 960 0
DWIDTH 14 0
BBX 18 14 -2 -2
BITMAP
000000
001000
001000
002000
002000
002000
004000
024800
017000
01C000
01C000
008000
010000
000000
ENDCHAR
STARTCHAR 222e
ENCODING 8750
SWIDTH 960 0
DWIDTH 14 0
BBX 18 14 -2 -2
BITMAP
000000
000000
000000
000000
07FE00
07FE00
000000
000000
0FFC00
1FF800
000000
000000
000000
000000
ENDCHAR
STARTCHAR 223a
ENCODING 8762
SWIDTH 960 0
DWIDTH 14 0
BBX 18 14 -2 -2
BITMAP
000000
000000
007F00
018000
020000
040000
0FFC00
080000
040000
020000
01F800
000000
000000
000000
ENDCHAR
STARTCHAR 223b
ENCODING 8763
SWIDTH 960 0
DWIDTH 14 0
BBX 18 14 -2 -2
BITMAP
000000
000000
03F000
000800
000400
000200
0FFC00
000400
001800
006000
1F8000
000000
000000
000000
ENDCHAR
STARTCHAR 223c
ENCODING 8764
SWIDTH 960 0
DWIDTH 14 0
BBX 18 14 -2 -2
BITMAP
000000
000000
01FF00
020000
040000
040000
040000
040000
03FC00
000000
000000
1FF800
000000
000000
ENDCHAR
STARTCHAR 223d
ENCODING 8765
SWIDTH 960 0
DWIDTH 14 0
BBX 18 14 -2 -2
BITMAP
000000
000000
03F800
000400
000200
000200
000400
000800
0FF000
000000
000000
1FF800
000000
000000
ENDCHAR
STARTCHAR 223e
ENCODING 8766
SWIDTH 960 0
DWIDTH 14 0
BBX 18 14 -2 -2
BITMAP
000000
000000
007F00
018000
020000
040000
080000
080000
080000
080000
060000
01F800
000000
000000
ENDCHAR
STARTCHAR 223f
ENCODING 8767
SWIDTH 960 0
DWIDTH 14 0
BBX 18 14 -2 -2
BITMAP
000000
000000
03F000
000800
000400
000400
000400
000400
000800
001000
006000
1F8000
000000
000000
ENDCHAR
STARTCHAR 2240
ENCODING 8768
SWIDTH 960 0
DWIDTH 14 0
BBX 18 14 -2 -2
BITMAP
000000
000000
020100
040200
040200
040200
080400
080400
080800
081000
042000
03C000
000000
000000
ENDCHAR
STARTCHAR 2241
ENCODING 8769
SWIDTH 960 0
DWIDTH 14 0
BBX 18 14 -2 -2
BITMAP
000000
000000
00F000
010800
020400
040400
040400
080400
080400
100800
100800
100800
000000
000000
ENDCHAR
STARTCHAR 224a
ENCODING 8778
SWIDTH 960 0
DWIDTH 14 0
BBX 18 14 -2 -2
BITMAP
000000
000000
001000
002000
005000
009000
009000
011000
021000
041000
080800
080800
000000
000000
ENDCHAR
STARTCHAR 224b
ENCODING 8779
SWIDTH 960 0
DWIDTH 14 0
BBX 18 14 -2 -2
BITMAP
000000
000000
010200
010200
010400
010800
010800
011000
012000
014000
008000
008000
000000
000000
ENDCHAR
STARTCHAR 224c
ENCODING 8780
SWIDTH 960 0
DWIDTH 14 0
BBX 18 14 -2 -2
BITMAP
000000
000000
000000
000000
000000
000000
0FFC00
000400
000400
000800
000800
000800
000000
000000
ENDCHAR
STARTCHAR 224d
ENCODING 8781
SWIDTH 960 0
DWIDTH 14 0
BBX 18 14 -2 -2
BITMAP
000000
000000
000000
000800
000400
0FFE00
000200
1FFC00
001800
002000
000000
000000
000000
000000
ENDCHAR
STARTCHAR 224e
ENCODING 8782
SWIDTH 960 0
DWIDTH 14 0
BBX 18 14 -2 -2
BITMAP
000000
000000
000000
010800
020400
0FFE00
100200
0FFC00
041800
042000
000000
000000
000000
000000
ENDCHAR
STARTCHAR 224f
ENCODING 8783
SWIDTH 960 0
DWIDTH 14 0
BBX 18 14 -2 -2
BITMAP
000000
020080
020100
020100
03FE00
020800
020800
011000
012000
012000
014000
018000
010000
000000
ENDCHAR
STARTCHAR 2250
ENCODING 8784
SWIDTH 960 0
DWIDTH 14 0
BBX 18 14 -2 -2
BITMAP
000000
01FE00
000200
000400
000400
000400
07F800
000800
000800
001000
001000
0FF000
000000
000000
ENDCHAR
STARTCHAR 225c
ENCODING 8796
SWIDTH 960 0
DWIDTH 14 0
BBX 18 14 -2 -2
BITMAP
000000
000000
000300
000400
000800
003000
004000
008000
030000
040000
080000
1FF800
000000
000000
ENDCHAR
STARTCHAR 225d
ENCODING 8797
SWIDTH 960 0
DWIDTH 14 0
BBX 18 14 -2 -2
BITMAP
000000
000000
001000
002000
002000
002000
004000
004000
004000
008000
008000
1FFC00
000000
000000
ENDCHAR
STARTCHAR 225e
ENCODING 8798
SWIDTH 960 0
DWIDTH 14 0
BBX 18 14 -2 -2
BITMAP
000000
00FE00
070100
080080
000000
000000
000000
000000
000000
000000
000000
000000
000000
000000
ENDCHAR
STARTCHAR 225f
ENCODING 8799
SWIDTH 960 0
DWIDTH 14 0
BBX 18 14 -2 -2
BITMAP
000000
001C00
002400
000400
000400
006400
009800
011800
031800
062000
066000
02C000
030000
000000
ENDCHAR
STARTCHAR 2260
ENCODING 8800
SWIDTH 960 0
DWIDTH 14 0
BBX 18 14 -2 -2
BITMAP
000000
000000
03FF80
03FE00
030200
010400
030800
011000
012000
012000
01C000
010000
010000
000000
ENDCHAR
STARTCHAR 2261
ENCODING 8801
SWIDTH 960 0
DWIDTH 14 0
BBX 18 14 -2 -2
BITMAP
000000
000000
000000
07FE00
000000
000000
0FFC00
000000
000000
1FF800
000000
000000
000000
000000
ENDCHAR
STARTCHAR 2262
ENCODING 8802
SWIDTH 960 0
DWIDTH 14 0
BBX 18 14 -2 -2
BITMAP
000000
000000
008000
038000
010000
07FE00
000000
000000
0FFC00
002000
007000
002000
000000
000000
ENDCHAR
STARTCHAR 2263
ENCODING 8803
SWIDTH 960 0
DWIDTH 14 0
BBX 18 14 -2 -2
BITMAP
000000
001100
006200
008800
011000
062000
088000
044000
022000
022000
011000
008800
000000
000000
ENDCHAR
STARTCHAR 2264
ENCODING 8804
SWIDTH 960 0
DWIDTH 14 0
BBX 18 14 -2 -2
BITMAP
000000
022000
011000
011000
008800
004400
004400
008800
031000
044000
088000
110000
000000
000000
ENDCHAR
STARTCHAR 2265
ENCODING 8805
SWIDTH 960 0
DWIDTH 14 0
BBX 18 14 -2 -2
BITMAP
000000
001F80
001000
002000
002000
004000
008000
008000
090000
390000
0E0000
060000
040000
000000
ENDCHAR
STARTCHAR 2266
ENCODING 8806
SWIDTH 960 0
DWIDTH 14 0
BBX 18 14 -2 -2
BITMAP
000000
000000
000000
000000
018C00
023200
044200
084200
058400
063800
000000
000000
000000
000000
ENDCHAR
STARTCHAR 2267
ENCODING 8807
SWIDTH 960 0
DWIDTH 14 0
BBX 18 14 -2 -2
BITMAP
000000
000000
000000
000000
00C600
013800
022000
042000
02D000
030800
000000
000000
000000
000000
ENDCHAR
STARTCHAR 2268
ENCODING 8808
SWIDTH 960 0
DWIDTH 14 0
BBX 18 14 -2 -2
BITMAP
000000
000000
010100
070700
020200
000000
000000
000000
000000
008000
01C000
008000
000000
000000
ENDCHAR
STARTCHAR 2269
ENCODING 8809
SWIDTH 960 0
DWIDTH 14 0
BBX 18 14 -2 -2
BITMAP
000C00
001000
002000
004000
006000
006000
006000
006000
003000
006000
002000
004000
008000
030000
ENDCHAR
STARTCHAR 226a
ENCODING 8810
SWIDTH 960 0
DWIDTH 14 0
BBX 18 14 -2 -2
BITMAP
006600
008800
011000
022000
033000
033000
033000
033000
019800
033000
011000
023000
044000
198000
ENDCHAR
STARTCHAR 2272
ENCODING 8818
SWIDTH 960 0
DWIDTH 14 0
BBX 18 14 -2 -2
BITMAP
003000
004800
005000
005000
002000
006000
00A000
011000
021000
041000
07F000
180800
283800
000000
ENDCHAR
STARTCHAR 2273
ENCODING 8819
SWIDTH 960 0
DWIDTH 14 0
BBX 18 14 -2 -2
BITMAP
000000
018200
028400
0CC800
0CD000
05E000
068000
00C400
01CA00
077600
0B7600
115C00
219000
000000
ENDCHAR
STARTCHAR 2274
ENCODING 8820
SWIDTH 960 0
DWIDTH 14 0
BBX 18 14 -2 -2
BITMAP
000800
004800
004E00
00FC00
03F000
039000
012000
013800
01F800
0FC000
0E4000
024000
040000
000000
ENDCHAR
STARTCHAR 2275
ENCODING 8821
SWIDTH 960 0
DWIDTH 14 0
BBX 18 14 -2 -2
BITMAP
000000
004000
004000
008000
008000
008000
017000
019800
011800
022000
024000
038000
060000
000000
ENDCHAR
STARTCHAR 2276
ENCODING 8822
SWIDTH 960 0
DWIDTH 14 0
BBX 18 14 -2 -2
BITMAP
001000
001800
001800
002C00
002400
002400
004400
004400
004800
039000
078000
078000
060000
000000
ENDCHAR
STARTCHAR 2277
ENCODING 8823
SWIDTH 960 0
DWIDTH 14 0
BBX 18 14 -2 -2
BITMAP
001000
003800
001000
012400
03FE00
012400
00E000
00E000
004000
008000
008000
008000
010000
010000
ENDCHAR
STARTCHAR 2278
ENCODING 8824
SWIDTH 960 0
DWIDTH 14 0
BBX 18 14 -2 -2
BITMAP
001000
003800
009200
03FE00
012400
007000
004000
004000
00E000
049000
0FF800
049000
038000
010000
ENDCHAR
STARTCHAR 2279
ENCODING 8825
SWIDTH 960 0
DWIDTH 14 0
BBX 18 14 -2 -2
BITMAP
000000
003C00
007400
00E800
00E800
006800
005000
005000
005000
00A000
00A000
00A000
014000
000000
ENDCHAR
STARTCHAR 227e
ENCODING 8830
SWIDTH 960 0
DWIDTH 14 0
BBX 18 14 -2 -2
BITMAP
000000
007C00
018200
020100
040100
080100
100100
100100
100200
100200
100400
100800
083000
07C000
ENDCHAR
STARTCHAR 2330
ENCODING 9008
SWIDTH 960 0
DWIDTH 14 0
BBX 18 14 -2 -2
BITMAP
000000
003800
004400
008400
010400
010400
020800
020800
020800
021000
022000
01C000
000000
000000
ENDCHAR
STARTCHAR 2331
ENCODING 9009
SWIDTH 960 0
DWIDTH 14 0
BBX 18 14 -2 -2
BITMAP
000000
001000
001000
00E000
002000
002000
004000
004000
004000
008000
008000
01C000
000000
000000
ENDCHAR
STARTCHAR 2332
ENCODING 9010
SWIDTH 960 0
DWIDTH 14 0
BBX 18 14 -2 -2
BITMAP
000000
007800
008400
010400
020400
000800
003000
00C000
030000
040000
080000
0FF000
000000
000000
ENDCHAR
STARTCHAR 2333
ENCODING 9011
SWIDTH 960 0
DWIDTH 14 0
BBX 18 14 -2 -2
BITMAP
000000
007800
008400
010400
020400
001800
00E000
001000
041000
041000
042000
03C000
000000
000000
ENDCHAR
STARTCHAR 2334
ENCODING 9012
SWIDTH 960 0
DWIDTH 14 0
BBX 18 14 -2 -2
BITMAP
000000
000400
001C00
002800
004800
018800
021000
041000
07FC00
002000
002000
007000
000000
000000
ENDCHAR
STARTCHAR 2335
ENCODING 9013
SWIDTH 960 0
DWIDTH 14 0
BBX 18 14 -2 -2
BITMAP
000000
00FE00
008000
010000
010000
01E000
031000
000800
000800
001000
042000
03C000
000000
000000
ENDCHAR
STARTCHAR 2336
ENCODING 9014
SWIDTH 960 0
DWIDTH 14 0
BBX 18 14 -2 -2
BITMAP
000000
003C00
004200
008000
010000
02F000
050800
060400
040400
040800
021000
01E000
000000
000000
ENDCHAR
STARTCHAR 2337
ENCODING 9015
SWIDTH 960 0
DWIDTH 14 0
BBX 18 14 -2 -2
BITMAP
000000
00FF00
010600
020800
001000
002000
002000
004000
004000
008000
008000
008000
000000
000000
ENDCHAR
STARTCHAR 2338
ENCODING 9016
SWIDTH 960 0
DWIDTH 14 0
BBX 18 14 -2 -2
BITMAP
000000
007800
008400
010400
020800
011000
01E000
021000
041000
041000
042000
03C000
000000
000000
ENDCHAR
STARTCHAR 2339
ENCODING 9017
SWIDTH 960 0
DWIDTH 14 0
BBX 18 14 -2 -2
BITMAP
000000
007800
008400
010400
020400
020400
021800
01E800
000800
081000
042000
03C000
000000
000000
ENDCHAR
STARTCHAR 2341
ENCODING 9025
SWIDTH 960 0
DWIDTH 14 0
BBX 18 14 -2 -2
BITMAP
000000
001000
001000
003000
005000
009000
011000
020800
03F800
040800
080800
1C1C00
000000
000000
ENDCHAR
STARTCHAR 2342
ENCODING 9026
SWIDTH 960 0
DWIDTH 14 0
BBX 18 14 -2 -2
BITMAP
000000
01F800
008400
010200
010200
010C00
03F000
020800
020400
040400
041800
0FE000
000000
000000
ENDCHAR
STARTCHAR 2343
ENCODING 9027
SWIDTH 960 0
DWIDTH 14 0
BBX 18 14 -2 -2
BITMAP
000000
003D00
01C300
020200
040000
040000
080000
080000
080000
080800
061000
01E000
000000
000000
ENDCHAR
STARTCHAR 2344
ENCODING 9028
SWIDTH 960 0
DWIDTH 14 0
BBX 18 14 -2 -2
BITMAP
000000
03F000
010800
020400
020200
020200
040400
040400
040800
081000
086000
1F8000
000000
000000
ENDCHAR
STARTCHAR 2345
ENCODING 9029
SWIDTH 960 0
DWIDTH 14 0
BBX 18 14 -2 -2
BITMAP
000000
03FC00
010400
020400
020000
020800
07F000
041000
040000
080000
081000
1FF000
000000
000000
ENDCHAR
STARTCHAR 2346
ENCODING 9030
SWIDTH 960 0
DWIDTH 14 0
BBX 18 14 -2 -2
BITMAP
000000
03FC00
010400
020400
020000
021000
07E000
042000
040000
080000
080000
1C0000
000000
000000
ENDCHAR
STARTCHAR 2347
ENCODING 9031
SWIDTH 960 0
DWIDTH 14 0
BBX 18 14 -2 -2
BITMAP
000000
003A00
01C600
020400
040000
040000
083E00
080800
080800
081000
063000
01D000
002000
000000
ENDCHAR
STARTCHAR 2348
ENCODING 9032
SWIDTH 960 0
DWIDTH 14 0
BBX 18 14 -2 -2
BITMAP
000000
038700
010200
020400
020400
020400
07F800
040800
040800
081000
081000
1C3800
000000
000000
ENDCHAR
STARTCHAR 2349
ENCODING 9033
SWIDTH 960 0
DWIDTH 14 0
BBX 18 14 -2 -2
BITMAP
000000
007000
002000
004000
004000
004000
008000
008000
008000
010000
010000
038000
000000
000000
ENDCHAR
STARTCHAR 234a
ENCODING 9034
SWIDTH 960 0
DWIDTH 14 0
BBX 18 14 -2 -2
BITMAP
000000
000E00
000400
000800
000800
000800
001000
001000
001000
042000
044000
038000
000000
000000
ENDCHAR
STARTCHAR 234b
ENCODING 9035
SWIDTH 960 0
DWIDTH 14 0
BBX 18 14 -2 -2
BITMAP
000000
038E00
010C00
021000
022000
03C000
068000
044000
042000
082000
081000
1C3800
000000
000000
ENDCHAR
STARTCHAR 234c
ENCODING 9036
SWIDTH 960 0
DWIDTH 14 0
BBX 18 14 -2 -2
BITMAP
000000
038000
010000
020000
020000
020000
040000
040000
040000
081000
082000
1FE000
000000
000000
ENDCHAR
STARTCHAR 234d
ENCODING 9037
SWIDTH 960 0
DWIDTH 14 0
BBX 18 14 -2 -2
BITMAP
000000
060180
030300
060600
050A00
051200
092400
094400
098400
110800
100800
381C00
000000
000000
ENDCHAR
STARTCHAR 234e
ENCODING 9038
SWIDTH 960 0
DWIDTH 14 0
BBX 18 14 -2 -2
BITMAP
000000
030700
018200
030400
028400
024400
044800
044800
042800
083000
083000
1C1000
000000
000000
ENDCHAR
STARTCHAR 234f
ENCODING 9039
SWIDTH 960 0
DWIDTH 14 0
BBX 18 14 -2 -2
BITMAP
000000
003800
01C400
020200
040100
040100
080200
080200
080400
080800
063000
01C000
000000
000000
ENDCHAR
STARTCHAR 2350
ENCODING 9040
SWIDTH 960 0
DWIDTH 14 0
BBX 18 14 -2 -2
BITMAP
000000
03F000
010800
020400
020400
021800
07E000
040000
040000
080000
080000
1C0000
000000
000000
ENDCHAR
STARTCHAR 2351
ENCODING 9041
SWIDTH 960 0
DWIDTH 14 0
BBX 18 14 -2 -2
BITMAP
000000
003800
01C400
020200
040100
040100
080200
080200
0B8400
044800
063000
01F000
000800
000000
ENDCHAR
STARTCHAR 2352
ENCODING 9042
SWIDTH 960 0
DWIDTH 14 0
BBX 18 14 -2 -2
BITMAP
000000
03F000
010800
020400
020400
021800
07E000
042000
042000
082000
081000
1C3800
000000
000000
ENDCHAR
STARTCHAR 2353
ENCODING 9043
SWIDTH 960 0
DWIDTH 14 0
BBX 18 14 -2 -2
BITMAP
000000
007A00
018600
020400
010000
00C000
002000
001000
040800
080800
0C1000
0BE000
000000
000000
ENDCHAR
STARTCHAR 2354
ENCODING 9044
SWIDTH 960 0
DWIDTH 14 0
BBX 18 14 -2 -2
BITMAP
000000
03FE00
042200
084200
004000
004000
008000
008000
008000
010000
010000
038000
000000
000000
ENDCHAR
STARTCHAR 2355
ENCODING 9045
SWIDTH 960 0
DWIDTH 14 0
BBX 18 14 -2 -2
BITMAP
000000
038700
010200
020400
020400
020400
040800
040800
040800
041000
042000
03C000
000000
000000
ENDCHAR
STARTCHAR 2356
ENCODING 9046
SWIDTH 960 0
DWIDTH 14 0
BBX 18 14 -2 -2
BITMAP
000000
038380
010200
010200
010400
010800
010800
011000
012000
014000
008000
008000
000000
000000
ENDCHAR
STARTCHAR 2357
ENCODING 9047
SWIDTH 960 0
DWIDTH 14 0
BBX 18 14 -2 -2
BITMAP
000000
0711C0
021100
042100
042200
045200
04A400
052400
052800
063000
041000
041000
000000
000000
ENDCHAR
STARTCHAR 2358
ENCODING 9048
SWIDTH 960 0
DWIDTH 14 0
BBX 18 14 -2 -2
BITMAP
000000
038700
010600
010800
009000
006000
004000
00A000
031000
041000
080800
1C1C00
000000
000000
ENDCHAR
STARTCHAR 2359
ENCODING 9049
SWIDTH 960 0
DWIDTH 14 0
BBX 18 14 -2 -2
BITMAP
000000
038E00
010C00
011000
00A000
00C000
008000
008000
008000
010000
010000
038000
000000
000000
ENDCHAR
STARTCHAR 235a
ENCODING 9050
SWIDTH 960 0
DWIDTH 14 0
BBX 18 14 -2 -2
BITMAP
000000
01FF00
020600
040800
001000
002000
004000
008000
030000
040400
080800
1FF800
000000
000000
ENDCHAR
STARTCHAR 2361
ENCODING 9057
SWIDTH 960 0
DWIDTH 14 0
BBX 18 14 -2 -2
BITMAP
000000
000000
000000
000000
00E000
011000
021000
00F000
031000
042000
086000
079000
000000
000000
ENDCHAR
STARTCHAR 2362
ENCODING 9058
SWIDTH 960 0
DWIDTH 14 0
BBX 18 14 -2 -2
BITMAP
000000
018000
008000
010000
013000
01C800
030800
020800
020800
041000
062000
0DC000
000000
000000
ENDCHAR
STARTCHAR 2363
ENCODING 9059
SWIDTH 960 0
DWIDTH 14 0
BBX 18 14 -2 -2
BITMAP
000000
000000
000000
000000
00F000
010800
020800
040000
040000
041000
042000
03C000
000000
000000
ENDCHAR
STARTCHAR 2364
ENCODING 9060
SWIDTH 960 0
DWIDTH 14 0
BBX 18 14 -2 -2
BITMAP
000000
000600
000400
000800
00E800
011800
021000
041000
041000
042000
046000
03B000
000000
000000
ENDCHAR
STARTCHAR 2365
ENCODING 9061
SWIDTH 960 0
DWIDTH 14 0
BBX 18 14 -2 -2
BITMAP
000000
000000
000000
000000
00F000
010800
020800
07F800
040000
041000
022000
01C000
000000
000000
ENDCHAR
STARTCHAR 2366
ENCODING 9062
SWIDTH 960 0
DWIDTH 14 0
BBX 18 14 -2 -2
BITMAP
000000
001800
002400
004000
008000
03F800
010000
010000
010000
020000
020000
070000
000000
000000
ENDCHAR
STARTCHAR 2367
ENCODING 9063
SWIDTH 960 0
DWIDTH 14 0
BBX 18 14 -2 -2
BITMAP
000000
000000
000000
000000
00E400
011800
021000
022000
01C000
020000
07C000
083000
082000
07C000
ENDCHAR
STARTCHAR 2368
ENCODING 9064
SWIDTH 960 0
DWIDTH 14 0
BBX 18 14 -2 -2
BITMAP
000000
018000
008000
010000
013000
01C800
030800
020800
020800
041000
041000
0E3800
000000
000000
ENDCHAR
STARTCHAR 2369
ENCODING 9065
SWIDTH 960 0
DWIDTH 14 0
BBX 18 14 -2 -2
BITMAP
000000
002000
002000
000000
00C000
004000
008000
008000
008000
010000
010000
038000
000000
000000
ENDCHAR
STARTCHAR 236a
ENCODING 9066
SWIDTH 960 0
DWIDTH 14 0
BBX 18 14 -2 -2
BITMAP
000000
001000
001000
000000
006000
002000
004000
004000
004000
008000
008000
008000
110000
0E0000
ENDCHAR
STARTCHAR 236b
ENCODING 9067
SWIDTH 960 0
DWIDTH 14 0
BBX 18 14 -2 -2
BITMAP
000000
01C000
008000
010E00
010800
011000
026000
02C000
032000
042000
041000
0E3800
000000
000000
ENDCHAR
STARTCHAR 236c
ENCODING 9068
SWIDTH 960 0
DWIDTH 14 0
BBX 18 14 -2 -2
BITMAP
000000
006000
002000
004000
004000
004000
008000
008000
008000
010000
010000
038000
000000
000000
ENDCHAR
STARTCHAR 236d
ENCODING 9069
SWIDTH 960 0
DWIDTH 14 0
BBX 18 14 -2 -2
BITMAP
000000
000000
000000
000000
0D9000
06E800
088800
088800
088800
111000
111000
3BB800
000000
000000
ENDCHAR
STARTCHAR 236e
ENCODING 9070
SWIDTH 960 0
DWIDTH 14 0
BBX 18 14 -2 -2
BITMAP
000000
000000
000000
000000
033000
01C800
030800
020800
020800
041000
041000
0E3800
000000
000000
ENDCHAR
STARTCHAR 236f
ENCODING 9071
SWIDTH 960 0
DWIDTH 14 0
BBX 18 14 -2 -2
BITMAP
000000
000000
000000
000000
00F000
010800
020800
040800
040800
041000
042000
03C000
000000
000000
ENDCHAR
STARTCHAR 2370
ENCODING 9072
SWIDTH 960 0
DWIDTH 14 0
BBX 18 14 -2 -2
BITMAP
000000
000000
000000
000000
017000
018800
020800
020800
020800
041000
062000
05C000
080000
1C0000
ENDCHAR
STARTCHAR 2371
ENCODING 9073
SWIDTH 960 0
DWIDTH 14 0
BBX 18 14 -2 -2
BITMAP
000000
000000
000000
000000
00E800
011800
021000
041000
041000
042000
046000
03A000
004000
00E000
ENDCHAR
STARTCHAR 2372
ENCODING 9074
SWIDTH 960 0
DWIDTH 14 0
BBX 18 14 -2 -2
BITMAP
000000
000000
000000
000000
012000
01D000
031000
020000
020000
040000
040000
0E0000
000000
000000
ENDCHAR
STARTCHAR 2373
ENCODING 9075
SWIDTH 960 0
DWIDTH 14 0
BBX 18 14 -2 -2
BITMAP
000000
000000
000000
000000
01E800
021800
020000
010000
00C000
002000
182000
07C000
000000
000000
ENDCHAR
STARTCHAR 2374
ENCODING 9076
SWIDTH 960 0
DWIDTH 14 0
BBX 18 14 -2 -2
BITMAP
000000
000000
004000
008000
008000
03F800
010000
010000
010000
020000
022000
01C000
000000
000000
ENDCHAR
STARTCHAR 2375
ENCODING 9077
SWIDTH 960 0
DWIDTH 14 0
BBX 18 14 -2 -2
BITMAP
000000
000000
000000
000000
038E00
010400
020800
020800
020800
021000
023000
01D800
000000
000000
ENDCHAR
STARTCHAR 2376
ENCODING 9078
SWIDTH 960 0
DWIDTH 14 0
BBX 18 14 -2 -2
BITMAP
000000
000000
000000
000000
070E00
020400
020800
021000
022000
024000
018000
018000
000000
000000
ENDCHAR
STARTCHAR 2377
ENCODING 9079
SWIDTH 960 0
DWIDTH 14 0
BBX 18 14 -2 -2
BITMAP
000000
000000
000000
000000
070700
022200
024400
02A400
032800
053000
022000
022000
000000
000000
ENDCHAR
STARTCHAR 2378
ENCODING 9080
SWIDTH 960 0
DWIDTH 14 0
BBX 18 14 -2 -2
BITMAP
000000
000000
000000
000000
030C00
011000
012000
00C000
01C000
024000
042000
0C3000
000000
000000
ENDCHAR
STARTCHAR 2379
ENCODING 9081
SWIDTH 960 0
DWIDTH 14 0
BBX 18 14 -2 -2
BITMAP
000000
000000
000000
000000
038E00
010800
010800
011000
012000
012000
00C000
010000
020000
0C0000
ENDCHAR
STARTCHAR 237a
ENCODING 9082
SWIDTH 960 0
DWIDTH 14 0
BBX 18 14 -2 -2
BITMAP
000000
000000
000000
000000
01F800
023000
004000
008000
030000
041000
082000
0FE000
000000
000000
ENDCHAR
STARTCHAR 2421
ENCODING 9249
SWIDTH 960 0
DWIDTH 14 0
BBX 18 14 -2 -2
BITMAP
000000
000000
000000
000000
008000
03F000
010000
01F000
024800
0C8800
150800
121000
0C6000
018000
ENDCHAR
STARTCHAR 2422
ENCODING 9250
SWIDTH 960 0
DWIDTH 14 0
BBX 18 14 -2 -2
BITMAP
004000
004C00
01F000
008000
00A000
00F800
034400
064200
0A8200
130400
120800
0D3000
00C000
000000
ENDCHAR
STARTCHAR 2423
ENCODING 9251
SWIDTH 960 0
DWIDTH 14 0
BBX 18 14 -2 -2
BITMAP
000000
000000
000000
000000
000000
000000
020000
020800
040800
080800
080800
050000
060000
000000
ENDCHAR
STARTCHAR 2424
ENCODING 9252
SWIDTH 960 0
DWIDTH 14 0
BBX 18 14 -2 -2
BITMAP
000000
000000
010000
020000
020400
040400
080400
080200
080200
080400
090000
060000
000000
000000
ENDCHAR
STARTCHAR 2425
ENCODING 9253
SWIDTH 960 0
DWIDTH 14 0
BBX 18 14 -2 -2
BITMAP
000000
000000
000000
000000
004000
003000
000000
01C000
022000
002000
002000
004000
008000
030000
ENDCHAR
STARTCHAR 2426
ENCODING 9254
SWIDTH 960 0
DWIDTH 14 0
BBX 18 14 -2 -2
BITMAP
006000
001800
000000
00F000
070800
000800
000800
000800
001000
002000
004000
018000
0E0000
000000
ENDCHAR
STARTCHAR 2427
ENCODING 9255
SWIDTH 960 0
DWIDTH 14 0
BBX 18 14 -2 -2
BITMAP
000000
000000
000000
000000
00C000
002000
000000
03F000
006000
008000
010000
070000
090000
10F000
ENDCHAR
STARTCHAR 2428
ENCODING 9256
SWIDTH 960 0
DWIDTH 14 0
BBX 18 14 -2 -2
BITMAP
006000
001800
000000
000000
03FC00
003000
004000
008000
030000
050000
088000
108000
207800
000000
ENDCHAR
STARTCHAR 2429
ENCODING 9257
SWIDTH 960 0
DWIDTH 14 0
BBX 18 14 -2 -2
BITMAP
000000
000000
000000
000000
010000
010800
0F8800
020000
03C000
0C2000
142000
18C000
030000
000000
ENDCHAR
STARTCHAR 242a
ENCODING 9258
SWIDTH 960 0
DWIDTH 14 0
BBX 18 14 -2 -2
BITMAP
000000
004000
004200
00F100
078080
008000
01F800
030400
050400
0A0400
120400
0C1800
00E000
000000
ENDCHAR
STARTCHAR 242b
ENCODING 9259
SWIDTH 960 0
DWIDTH 14 0
BBX 18 14 -2 -2
BITMAP
000000
008000
008400
010400
0FC200
022200
022200
042200
084000
084000
108000
250000
060000
000000
ENDCHAR
STARTCHAR 242c
ENCODING 9260
SWIDTH 960 0
DWIDTH 14 0
BBX 18 14 -2 -2
BITMAP
000000
008140
008640
010400
0FC200
022200
022200
042200
084000
084000
108000
250000
060000
000000
ENDCHAR
STARTCHAR 242d
ENCODING 9261
SWIDTH 960 0
DWIDTH 14 0
BBX 18 14 -2 -2
BITMAP
001000
001000
001E00
01F000
001000
003E00
07D000
000800
01E400
021800
040000
030000
00C000
000000
ENDCHAR
STARTCHAR 242e
ENCODING 9262
SWIDTH 960 0
DWIDTH 14 0
BBX 18 14 -2 -2
BITMAP
002000
002280
003E80
03E500
002000
007C00
0FA000
001000
03C800
043000
080000
060000
018000
000000
ENDCHAR
STARTCHAR 242f
ENCODING 9263
SWIDTH 960 0
DWIDTH 14 0
BBX 18 14 -2 -2
BITMAP
000400
000400
000800
003000
004000
018000
020000
010000
008000
008000
004000
004000
004000
000000
ENDCHAR
STARTCHAR 2430
ENCODING 9264
SWIDTH 960 0
DWIDTH 14 0
BBX 18 14 -2 -2
BITMAP
000400
000400
000C80
003500
004500
018000
020000
010000
008000
008000
004000
004000
004000
000000
ENDCHAR
STARTCHAR 2431
ENCODING 9265
SWIDTH 960 0
DWIDTH 14 0
BBX 18 14 -2 -2
BITMAP
000200
010200
020200
020780
047C00
040400
080800
080800
080800
0C1000
081000
006000
018000
000000
ENDCHAR
STARTCHAR 2432
ENCODING 9266
SWIDTH 960 0
DWIDTH 14 0
BBX 18 14 -2 -2
BITMAP
000540
010540
020400
020700
047C00
040400
080800
080800
080800
0C1000
081000
006000
018000
000000
ENDCHAR
STARTCHAR 2433
ENCODING 9267
SWIDTH 960 0
DWIDTH 14 0
BBX 18 14 -2 -2
BITMAP
000000
000000
00E000
001C00
000000
000000
000000
000000
000000
080000
080800
07F000
000000
000000
ENDCHAR
STARTCHAR 2434
ENCODING 9268
SWIDTH 960 0
DWIDTH 14 0
BBX 18 14 -2 -2
BITMAP
000000
000140
00E140
001E80
000000
000000
000000
000000
000000
080000
080800
07F000
000000
000000
ENDCHAR
STARTCHAR 2435
ENCODING 9269
SWIDTH 960 0
DWIDTH 14 0
BBX 18 14 -2 -2
BITMAP
002000
002000
001F00
03F000
001000
001000
001000
01E800
021800
040000
080000
060000
01C000
000000
ENDCHAR
STARTCHAR 2436
ENCODING 9270
SWIDTH 960 0
DWIDTH 14 0
BBX 18 14 -2 -2
BITMAP
002000
002140
001F40
03F280
001000
001000
001000
01E800
021800
040000
080000
060000
01C000
000000
ENDCHAR
STARTCHAR 2437
ENCODING 9271
SWIDTH 960 0
DWIDTH 14 0
BBX 18 14 -2 -2
BITMAP
000000
008000
008000
010000
010000
010000
020000
020000
020400
040800
041000
026000
018000
000000
ENDCHAR
STARTCHAR 2438
ENCODING 9272
SWIDTH 960 0
DWIDTH 14 0
BBX 18 14 -2 -2
BITMAP
000000
008500
008500
010A00
010000
010000
020000
020000
020000
040800
041000
026000
018000
000000
ENDCHAR
STARTCHAR 2439
ENCODING 9273
SWIDTH 960 0
DWIDTH 14 0
BBX 18 14 -2 -2
BITMAP
000800
000800
000F80
07F000
001000
00D000
016000
022000
022000
01C000
004000
008000
010000
060000
ENDCHAR
STARTCHAR 243a
ENCODING 9274
SWIDTH 960 0
DWIDTH 14 0
BBX 18 14 -2 -2
BITMAP
000940
000940
000FC0
07F000
001000
00D000
016000
022000
022000
01C000
004000
008000
010000
060000
ENDCHAR
STARTCHAR 243b
ENCODING 9275
SWIDTH 960 0
DWIDTH 14 0
BBX 18 14 -2 -2
BITMAP
000000
000400
008400
010F00
017800
0F8800
021000
021000
022000
020000
020000
01F000
000000
000000
ENDCHAR
STARTCHAR 243c
ENCODING 9276
SWIDTH 960 0
DWIDTH 14 0
BBX 18 14 -2 -2
BITMAP
000140
000540
008580
010F00
017800
0F8800
021000
021000
022000
020000
020000
01F000
000000
000000
ENDCHAR
STARTCHAR 243d
ENCODING 9277
SWIDTH 960 0
DWIDTH 14 0
BBX 18 14 -2 -2
BITMAP
000000
00FC00
001800
002000
004000
019E00
0EE000
004000
008000
010000
020000
010000
00C000
000000
ENDCHAR
STARTCHAR 243e
ENCODING 9278
SWIDTH 960 0
DWIDTH 14 0
BBX 18 14 -2 -2
BITMAP
000140
00FD40
001940
002000
004000
019E00
0EE000
004000
008000
010000
020000
010000
00C000
000000
ENDCHAR
STARTCHAR 243f
ENCODING 9279
SWIDTH 960 0
DWIDTH 14 0
BBX 18 14 -2 -2
BITMAP
000000
004000
004000
07F000
008000
010700
023800
020000
040000
080000
088000
108000
207800
000000
ENDCHAR
STARTCHAR 2440
ENCODING 9280
SWIDTH 960 0
DWIDTH 14 0
BBX 18 14 -2 -2
BITMAP
000000
004140
004140
07F280
008000
010700
023800
020000
040000
080000
088000
108000
207800
000000
ENDCHAR
STARTCHAR 2441
ENCODING 9281
SWIDTH 960 0
DWIDTH 14 0
BBX 18 14 -2 -2
BITMAP
004000
004000
004000
07F800
008000
010000
027000
028800
070800
080800
000800
003000
07C000
000000
ENDCHAR
STARTCHAR 2442
ENCODING 9282
SWIDTH 960 0
DWIDTH 14 0
BBX 18 14 -2 -2
BITMAP
004000
004140
004140
07FA80
008000
010000
027000
028800
070800
080800
000800
003000
07C000
000000
ENDCHAR
STARTCHAR 2443
ENCODING 9283
SWIDTH 960 0
DWIDTH 14 0
BBX 18 14 -2 -2
BITMAP
000000
000000
000000
000000
000000
000000
00F000
0F0800
000800
000800
001000
006000
078000
000000
ENDCHAR
STARTCHAR 2444
ENCODING 9284
SWIDTH 960 0
DWIDTH 14 0
BBX 18 14 -2 -2
BITMAP
000000
000000
000000
007C00
018200
0E0200
000200
000400
000800
003000
01C000
000000
000000
000000
ENDCHAR
STARTCHAR 2445
ENCODING 9285
SWIDTH 960 0
DWIDTH 14 0
BBX 18 14 -2 -2
BITMAP
000000
000140
000140
007E80
018200
0E0200
000200
000400
000800
003000
01C000
000000
000000
000000
ENDCHAR
STARTCHAR 2446
ENCODING 9286
SWIDTH 960 0
DWIDTH 14 0
BBX 18 14 -2 -2
BITMAP
000000
000380
00FE00
0F1000
002000
004000
004000
008000
008000
010000
010000
008000
006000
000000
ENDCHAR
STARTCHAR 2447
ENCODING 9287
SWIDTH 960 0
DWIDTH 14 0
BBX 18 14 -2 -2
BITMAP
000000
000380
00FC00
0F1280
002280
004280
004000
008000
008000
010000
010000
008000
006000
000000
ENDCHAR
STARTCHAR 2448
ENCODING 9288
SWIDTH 960 0
DWIDTH 14 0
BBX 18 14 -2 -2
BITMAP
000000
004000
004000
004000
004000
005E00
00E000
018000
020000
040000
080000
040000
03F000
000000
ENDCHAR
STARTCHAR 2449
ENCODING 9289
SWIDTH 960 0
DWIDTH 14 0
BBX 18 14 -2 -2
BITMAP
000000
004000
004140
004280
004280
005E00
00E000
018000
020000
040000
080000
040000
03F000
000000
ENDCHAR
STARTCHAR 244a
ENCODING 9290
SWIDTH 960 0
DWIDTH 14 0
BBX 18 14 -2 -2
BITMAP
004000
004000
03F800
008600
010100
020800
021000
041000
081000
01E000
023000
024800
018000
000000
ENDCHAR
STARTCHAR 244b
ENCODING 9291
SWIDTH 960 0
DWIDTH 14 0
BBX 18 14 -2 -2
BITMAP
000000
010000
010000
020E00
027000
040000
080000
080000
080000
110000
108000
147C00
180000
000000
ENDCHAR
STARTCHAR 244c
ENCODING 9292
SWIDTH 960 0
DWIDTH 14 0
BBX 18 14 -2 -2
BITMAP
000000
000800
010800
021000
02FC00
034200
0C4200
0C8200
150200
160400
263400
1A5800
002800
000000
ENDCHAR
STARTCHAR 244d
ENCODING 9293
SWIDTH 960 0
DWIDTH 14 0
BBX 18 14 -2 -2
BITMAP
008000
008000
008000
010000
0F9800
01E400
030400
020400
060400
0C0800
147800
249C00
086000
000000
ENDCHAR
STARTCHAR 244e
ENCODING 9294
SWIDTH 960 0
DWIDTH 14 0
BBX 18 14 -2 -2
BITMAP
000000
000000
007800
01A400
022200
042200
044200
088200
090400
0A0400
040800
003000
01C000
000000
ENDCHAR
STARTCHAR 244f
ENCODING 9295
SWIDTH 960 0
DWIDTH 14 0
BBX 18 14 -2 -2
BITMAP
000200
010200
010200
020700
027C00
040400
080800
080800
080800
10F000
111C00
152200
18C000
000000
ENDCHAR
STARTCHAR 2450
ENCODING 9296
SWIDTH 960 0
DWIDTH 14 0
BBX 18 14 -2 -2
BITMAP
000540
020540
020440
040E00
04F800
080800
101000
101000
101000
21E000
223800
2A4400
318000
000000
ENDCHAR
STARTCHAR 2451
ENCODING 9297
SWIDTH 960 0
DWIDTH 14 0
BBX 18 14 -2 -2
BITMAP
000580
020640
020680
040F00
04F800
080800
101000
101000
101000
21E000
223800
2A4400
318000
000000
ENDCHAR
STARTCHAR 2452
ENCODING 9298
SWIDTH 960 0
DWIDTH 14 0
BBX 18 14 -2 -2
BITMAP
000000
001000
006000
078000
010400
020400
040C00
080A00
081000
101000
102000
08C000
070000
000000
ENDCHAR
STARTCHAR 2453
ENCODING 9299
SWIDTH 960 0
DWIDTH 14 0
BBX 18 14 -2 -2
BITMAP
000000
001140
006240
078280
010400
020400
040C00
080A00
081000
101000
102000
08C000
070000
000000
ENDCHAR
STARTCHAR 2454
ENCODING 9300
SWIDTH 960 0
DWIDTH 14 0
BBX 18 14 -2 -2
BITMAP
000180
001240
006280
078300
010400
020400
040C00
080A00
081000
101000
102000
08C000
070000
000000
ENDCHAR
STARTCHAR 2455
ENCODING 9301
SWIDTH 960 0
DWIDTH 14 0
BBX 18 14 -2 -2
BITMAP
000000
004000
003800
001000
002000
004000
004000
042400
082200
102200
204200
048000
030000
000000
ENDCHAR
STARTCHAR 2456
ENCODING 9302
SWIDTH 960 0
DWIDTH 14 0
BBX 18 14 -2 -2
BITMAP
000000
004280
003A80
001500
002000
004000
004000
042400
082200
102200
204200
048000
030000
000000
ENDCHAR
STARTCHAR 2457
ENCODING 9303
SWIDTH 960 0
DWIDTH 14 0
BBX 18 14 -2 -2
BITMAP
000000
004200
003D00
001500
002200
004000
004000
042400
082200
102200
204200
048000
030000
000000
ENDCHAR
STARTCHAR 2458
ENCODING 9304
SWIDTH 960 0
DWIDTH 14 0
BBX 18 14 -2 -2
BITMAP
000000
000000
000000
000000
00C000
032000
042000
081000
100C00
000200
000000
000000
000000
000000
ENDCHAR
STARTCHAR 2459
ENCODING 9305
SWIDTH 960 0
DWIDTH 14 0
BBX 18 14 -2 -2
BITMAP
000000
000000
000280
000500
00C500
032000
042000
081000
100C00
000200
000000
000000
000000
000000
ENDCHAR
STARTCHAR 245a
ENCODING 9306
SWIDTH 960 0
DWIDTH 14 0
BBX 18 14 -2 -2
BITMAP
000000
000200
000500
000500
00C200
032000
042000
081000
100C00
000200
000000
000000
000000
000000
ENDCHAR
STARTCHAR 245b
ENCODING 9307
SWIDTH 960 0
DWIDTH 14 0
BBX 18 14 -2 -2
BITMAP
000000
013F80
010200
020400
020700
047C00
080800
080800
080800
10F000
111C00
152200
18C000
000000
ENDCHAR
STARTCHAR 245c
ENCODING 9308
SWIDTH 960 0
DWIDTH 14 0
BBX 18 14 -2 -2
BITMAP
000140
027F40
020540
040800
040F00
08F800
101000
101000
101000
21E000
223800
2A4400
318000
000000
ENDCHAR
STARTCHAR 245d
ENCODING 9309
SWIDTH 960 0
DWIDTH 14 0
BBX 18 14 -2 -2
BITMAP
000180
027E40
020680
040B00
040E00
08F800
101000
101000
101000
21E000
223800
2A4400
318000
000000
ENDCHAR
STARTCHAR 245e
ENCODING 9310
SWIDTH 960 0
DWIDTH 14 0
BBX 18 14 -2 -2
BITMAP
000800
000800
01FF00
001000
001000
001C00
07E000
002000
002000
07C000
087000
088800
070000
000000
ENDCHAR
STARTCHAR 245f
ENCODING 9311
SWIDTH 960 0
DWIDTH 14 0
BBX 18 14 -2 -2
BITMAP
000000
000000
01F000
002000
002000
004200
008400
03FC00
0D0E00
121200
241000
182000
00C000
000000
ENDCHAR
STARTCHAR 2460
ENCODING 9312
SWIDTH 960 0
DWIDTH 14 0
BBX 18 14 -2 -2
BITMAP
004000
004000
03F000
008600
008100
038080
050000
090000
0B0800
0C0800
040800
041000
03E000
000000
ENDCHAR
STARTCHAR 2461
ENCODING 9313
SWIDTH 960 0
DWIDTH 14 0
BBX 18 14 -2 -2
BITMAP
000000
000800
010800
021000
027800
039400
042400
0A4200
128200
130400
220400
251800
186000
000000
ENDCHAR
STARTCHAR 2462
ENCODING 9314
SWIDTH 960 0
DWIDTH 14 0
BBX 18 14 -2 -2
BITMAP
002000
002000
002000
03F000
004000
005800
0FE000
010000
010200
020400
020800
013000
00C000
000000
ENDCHAR
STARTCHAR 2463
ENCODING 9315
SWIDTH 960 0
DWIDTH 14 0
BBX 18 14 -2 -2
BITMAP
000000
000000
000000
000000
002000
011000
027800
038400
0F0800
023000
010000
010000
010000
010000
ENDCHAR
STARTCHAR 2464
ENCODING 9316
SWIDTH 960 0
DWIDTH 14 0
BBX 18 14 -2 -2
BITMAP
001000
000800
000400
020000
021C00
01E200
070200
190200
011C00
010000
008000
008000
008000
008000
ENDCHAR
STARTCHAR 2465
ENCODING 9317
SWIDTH 960 0
DWIDTH 14 0
BBX 18 14 -2 -2
BITMAP
000000
000000
000000
000000
002000
002000
087800
09C400
0E4400
188800
119000
10E000
010000
020000
ENDCHAR
STARTCHAR 2466
ENCODING 9318
SWIDTH 960 0
DWIDTH 14 0
BBX 18 14 -2 -2
BITMAP
000000
001000
020800
043C00
045200
059200
0A2200
0C2200
0D2400
114800
10F000
00C000
010000
020000
ENDCHAR
STARTCHAR 2467
ENCODING 9319
SWIDTH 960 0
DWIDTH 14 0
BBX 18 14 -2 -2
BITMAP
000000
000000
000000
002000
002000
003C00
004000
004000
004000
078000
08E000
091000
060000
000000
ENDCHAR
STARTCHAR 2468
ENCODING 9320
SWIDTH 960 0
DWIDTH 14 0
BBX 18 14 -2 -2
BITMAP
001000
001000
001000
002600
003800
002000
004000
004000
004000
0FC000
10B000
110800
0E0000
000000
ENDCHAR
STARTCHAR 2469
ENCODING 9321
SWIDTH 960 0
DWIDTH 14 0
BBX 18 14 -2 -2
BITMAP
002000
001000
000C00
000000
020000
020000
047800
058400
060400
080800
001000
006000
038000
000000
ENDCHAR
STARTCHAR 246a
ENCODING 9322
SWIDTH 960 0
DWIDTH 14 0
BBX 18 14 -2 -2
BITMAP
000400
004200
008200
008400
010400
010400
020800
028800
011000
001000
002000
00C000
030000
000000
ENDCHAR
STARTCHAR 246b
ENCODING 9323
SWIDTH 960 0
DWIDTH 14 0
BBX 18 14 -2 -2
BITMAP
000000
007C00
001800
002000
004000
00F000
030800
040400
080400
01C800
023000
024000
018000
000000
ENDCHAR
STARTCHAR 246c
ENCODING 9324
SWIDTH 960 0
DWIDTH 14 0
BBX 18 14 -2 -2
BITMAP
000000
008000
008000
013800
014400
0F8400
030800
020800
060800
0C1000
141000
241600
080800
080000
ENDCHAR
STARTCHAR 246d
ENCODING 9325
SWIDTH 960 0
DWIDTH 14 0
BBX 18 14 -2 -2
BITMAP
000000
00F800
001000
002000
004000
01F000
020800
040400
080400
000800
001000
006000
078000
000000
ENDCHAR
STARTCHAR 246e
ENCODING 9326
SWIDTH 960 0
DWIDTH 14 0
BBX 18 14 -2 -2
BITMAP
000000
000000
000000
008000
008000
008000
07B800
014400
018400
060800
060800
0A1000
046000
000000
ENDCHAR
STARTCHAR 246f
ENCODING 9327
SWIDTH 960 0
DWIDTH 14 0
BBX 18 14 -2 -2
BITMAP
008000
008000
008000
039C00
0DE200
018200
020200
060200
0E0400
140800
241000
046000
080000
000000
ENDCHAR
STARTCHAR 2470
ENCODING 9328
SWIDTH 960 0
DWIDTH 14 0
BBX 18 14 -2 -2
BITMAP
000000
00F800
000800
001000
002000
007800
038400
048200
090200
120400
146400
0C9800
006000
000000
ENDCHAR
STARTCHAR 2471
ENCODING 9329
SWIDTH 960 0
DWIDTH 14 0
BBX 18 14 -2 -2
BITMAP
000000
00F800
001000
00F800
010400
020400
018800
027000
03C000
040000
0E7000
318800
403800
000000
ENDCHAR
STARTCHAR 2472
ENCODING 9330
SWIDTH 960 0
DWIDTH 14 0
BBX 18 14 -2 -2
BITMAP
002000
002000
007C00
03C000
008300
01CC00
063000
086000
01A000
024000
040000
040000
03E000
000000
ENDCHAR
STARTCHAR 2473
ENCODING 9331
SWIDTH 960 0
DWIDTH 14 0
BBX 18 14 -2 -2
BITMAP
001000
001000
002000
002000
004000
008000
010000
038000
044000
044000
084400
105800
202000
000000
ENDCHAR
STARTCHAR 2521
ENCODING 9505
SWIDTH 960 0
DWIDTH 14 0
BBX 18 14 -2 -2
BITMAP
000000
000000
000000
000000
000000
000000
07F800
001000
00A000
01C000
010000
020000
0C0000
000000
ENDCHAR
STARTCHAR 2522
ENCODING 9506
SWIDTH 960 0
DWIDTH 14 0
BBX 18 14 -2 -2
BITMAP
000000
000000
07FF00
000200
004400
005800
00E000
008000
010000
010000
020000
0C0000
300000
000000
ENDCHAR
STARTCHAR 2523
ENCODING 9507
SWIDTH 960 0
DWIDTH 14 0
BBX 18 14 -2 -2
BITMAP
000000
000000
000000
000000
000400
001800
002000
00C000
074000
008000
008000
008000
010000
000000
ENDCHAR
STARTCHAR 2524
ENCODING 9508
SWIDTH 960 0
DWIDTH 14 0
BBX 18 14 -2 -2
BITMAP
000000
000200
000400
000800
001000
00E000
034000
0C4000
004000
008000
008000
008000
010000
000000
ENDCHAR
STARTCHAR 2525
ENCODING 9509
SWIDTH 960 0
DWIDTH 14 0
BBX 18 14 -2 -2
BITMAP
000000
000000
000000
000000
002000
002000
07F800
040800
040800
081000
002000
00C000
030000
000000
ENDCHAR
STARTCHAR 2526
ENCODING 9510
SWIDTH 960 0
DWIDTH 14 0
BBX 18 14 -2 -2
BITMAP
000000
001000
001000
002000
07FE00
040200
080400
080400
000800
001000
002000
00C000
070000
000000
ENDCHAR
STARTCHAR 2527
ENCODING 9511
SWIDTH 960 0
DWIDTH 14 0
BBX 18 14 -2 -2
BITMAP
000000
000000
000000
000000
000000
000000
03F800
004000
004000
008000
008000
008000
1FF000
000000
ENDCHAR
STARTCHAR 2528
ENCODING 9512
SWIDTH 960 0
DWIDTH 14 0
BBX 18 14 -2 -2
BITMAP
000000
000000
000000
03FE00
002000
002000
004000
004000
004000
008000
1FFC00
000000
000000
000000
ENDCHAR
STARTCHAR 2529
ENCODING 9513
SWIDTH 960 0
DWIDTH 14 0
BBX 18 14 -2 -2
BITMAP
000000
000000
000000
000000
001000
001000
07F800
002000
006000
01C000
024000
0C4000
008000
000000
ENDCHAR
STARTCHAR 252a
ENCODING 9514
SWIDTH 960 0
DWIDTH 14 0
BBX 18 14 -2 -2
BITMAP
000000
000400
000400
000800
07FF00
001800
003000
005000
009000
032000
042000
182000
00C000
000000
ENDCHAR
STARTCHAR 252b
ENCODING 9515
SWIDTH 960 0
DWIDTH 14 0
BBX 18 14 -2 -2
BITMAP
000000
002000
002000
004000
07FE00
004200
008400
008400
010400
020800
040800
183000
20C000
000000
ENDCHAR
STARTCHAR 252c
ENCODING 9516
SWIDTH 960 0
DWIDTH 14 0
BBX 18 14 -2 -2
BITMAP
000000
002140
002140
004280
07FE00
004200
008400
008400
010400
020800
040800
183000
20C000
000000
ENDCHAR
STARTCHAR 252d
ENCODING 9517
SWIDTH 960 0
DWIDTH 14 0
BBX 18 14 -2 -2
BITMAP
000000
002000
002000
004E00
007000
03C000
004000
005E00
01E000
1E4000
004000
004000
004000
004000
ENDCHAR
STARTCHAR 252e
ENCODING 9518
SWIDTH 960 0
DWIDTH 14 0
BBX 18 14 -2 -2
BITMAP
000000
002140
002140
004E80
007000
03C000
004000
005E00
01E000
1E4000
004000
004000
004000
004000
ENDCHAR
STARTCHAR 252f
ENCODING 9519
SWIDTH 960 0
DWIDTH 14 0
BBX 18 14 -2 -2
BITMAP
000000
001000
001000
003E00
004200
018400
020400
040800
001000
006000
008000
030000
1C0000
000000
ENDCHAR
STARTCHAR 2530
ENCODING 9520
SWIDTH 960 0
DWIDTH 14 0
BBX 18 14 -2 -2
BITMAP
000000
002140
002140
007E80
008400
030800
040800
081000
002000
00C000
010000
060000
380000
000000
ENDCHAR
STARTCHAR 2531
ENCODING 9521
SWIDTH 960 0
DWIDTH 14 0
BBX 18 14 -2 -2
BITMAP
000000
008000
008000
010000
01FF00
010800
021000
041000
082000
004000
008000
030000
0C0000
000000
ENDCHAR
STARTCHAR 2532
ENCODING 9522
SWIDTH 960 0
DWIDTH 14 0
BBX 18 14 -2 -2
BITMAP
000140
008140
008140
010000
01FF00
010800
021000
041000
082000
004000
008000
030000
0C0000
000000
ENDCHAR
STARTCHAR 2533
ENCODING 9523
SWIDTH 960 0
DWIDTH 14 0
BBX 18 14 -2 -2
BITMAP
000000
000000
000000
07FE00
000200
000200
000400
000400
000400
000800
1FF800
000800
000000
000000
ENDCHAR
STARTCHAR 2534
ENCODING 9524
SWIDTH 960 0
DWIDTH 14 0
BBX 18 14 -2 -2
BITMAP
000140
000140
000240
0FFA00
000400
000400
000800
000800
000800
001000
3FF000
001000
000000
000000
ENDCHAR
STARTCHAR 2535
ENCODING 9525
SWIDTH 960 0
DWIDTH 14 0
BBX 18 14 -2 -2
BITMAP
000000
008400
008400
010800
010800
0FFF00
021000
021000
021000
042000
004000
018000
060000
000000
ENDCHAR
STARTCHAR 2536
ENCODING 9526
SWIDTH 960 0
DWIDTH 14 0
BBX 18 14 -2 -2
BITMAP
000000
000140
008540
010A80
010800
0FFF00
021000
021000
021000
042000
004000
018000
060000
000000
ENDCHAR
STARTCHAR 2537
ENCODING 9527
SWIDTH 960 0
DWIDTH 14 0
BBX 18 14 -2 -2
BITMAP
000000
000000
008000
004000
000100
020200
010200
000400
000800
003000
004000
018000
1E0000
000000
ENDCHAR
STARTCHAR 2538
ENCODING 9528
SWIDTH 960 0
DWIDTH 14 0
BBX 18 14 -2 -2
BITMAP
000000
000140
008140
004280
000000
020100
010200
000400
000800
003000
004000
018000
1E0000
000000
ENDCHAR
STARTCHAR 2539
ENCODING 9529
SWIDTH 960 0
DWIDTH 14 0
BBX 18 14 -2 -2
BITMAP
000000
000000
000000
07F800
000800
001000
001000
002000
006000
01A000
021000
0C1000
701000
000000
ENDCHAR
STARTCHAR 253a
ENCODING 9530
SWIDTH 960 0
DWIDTH 14 0
BBX 18 14 -2 -2
BITMAP
000000
000140
000140
07FA80
000800
001000
001000
002000
006000
01A000
021000
0C1000
701000
000000
ENDCHAR
STARTCHAR 253b
ENCODING 9531
SWIDTH 960 0
DWIDTH 14 0
BBX 18 14 -2 -2
BITMAP
000000
004000
004000
008000
008F00
00F200
0F0400
010800
011000
020000
020000
010000
00F000
000000
ENDCHAR
STARTCHAR 253c
ENCODING 9532
SWIDTH 960 0
DWIDTH 14 0
BBX 18 14 -2 -2
BITMAP
000000
004140
004180
008280
008F00
00F200
0F0400
010800
011000
020000
020000
010000
00F800
000000
ENDCHAR
STARTCHAR 253d
ENCODING 9533
SWIDTH 960 0
DWIDTH 14 0
BBX 18 14 -2 -2
BITMAP
000000
000000
000100
020200
010200
010400
010400
000800
001000
006000
008000
030000
1C0000
000000
ENDCHAR
STARTCHAR 253e
ENCODING 9534
SWIDTH 960 0
DWIDTH 14 0
BBX 18 14 -2 -2
BITMAP
000000
000140
000240
020280
010400
010800
010800
001000
002000
004000
008000
030000
1C0000
000000
ENDCHAR
STARTCHAR 253f
ENCODING 9535
SWIDTH 960 0
DWIDTH 14 0
BBX 18 14 -2 -2
BITMAP
000000
001000
001000
007E00
008200
030400
0CC400
002800
003000
004000
008000
030000
1C0000
000000
ENDCHAR
STARTCHAR 2540
ENCODING 9536
SWIDTH 960 0
DWIDTH 14 0
BBX 18 14 -2 -2
BITMAP
000140
001140
001140
007E00
008200
030400
0CC400
002800
003000
004000
008000
030000
1C0000
000000
ENDCHAR
STARTCHAR 2541
ENCODING 9537
SWIDTH 960 0
DWIDTH 14 0
BBX 18 14 -2 -2
BITMAP
000000
000400
001800
03E000
002000
002000
1FFC00
004000
004000
008000
010000
060000
180000
000000
ENDCHAR
STARTCHAR 2542
ENCODING 9538
SWIDTH 960 0
DWIDTH 14 0
BBX 18 14 -2 -2
BITMAP
000140
000740
001940
03E000
002000
002000
1FFC00
004000
004000
008000
010000
060000
180000
000000
ENDCHAR
STARTCHAR 2543
ENCODING 9539
SWIDTH 960 0
DWIDTH 14 0
BBX 18 14 -2 -2
BITMAP
000000
000000
000000
000000
000000
000000
010800
048800
049000
041000
002000
00C000
030000
000000
ENDCHAR
STARTCHAR 2544
ENCODING 9540
SWIDTH 960 0
DWIDTH 14 0
BBX 18 14 -2 -2
BITMAP
000000
000000
002080
022100
022100
022200
020200
000400
000800
001000
002000
00C000
070000
000000
ENDCHAR
STARTCHAR 2545
ENCODING 9541
SWIDTH 960 0
DWIDTH 14 0
BBX 18 14 -2 -2
BITMAP
000000
000140
008240
088280
088400
088800
080800
001000
002000
004000
008000
030000
1C0000
000000
ENDCHAR
STARTCHAR 2546
ENCODING 9542
SWIDTH 960 0
DWIDTH 14 0
BBX 18 14 -2 -2
BITMAP
000000
000000
00FF00
000000
000000
000000
0FFE00
002000
002000
004000
008000
030000
0C0000
000000
ENDCHAR
STARTCHAR 2547
ENCODING 9543
SWIDTH 960 0
DWIDTH 14 0
BBX 18 14 -2 -2
BITMAP
000140
000140
00FF40
000000
000000
000000
0FFE00
002000
002000
004000
008000
030000
0C0000
000000
ENDCHAR
STARTCHAR 2548
ENCODING 9544
SWIDTH 960 0
DWIDTH 14 0
BBX 18 14 -2 -2
BITMAP
000000
004000
004000
008000
008000
008000
01C000
013000
010800
020000
020000
020000
040000
040000
ENDCHAR
STARTCHAR 2549
ENCODING 9545
SWIDTH 960 0
DWIDTH 14 0
BBX 18 14 -2 -2
BITMAP
000000
008500
008500
010A00
010000
010000
038000
026000
021000
040000
040000
040000
080000
080000
ENDCHAR
STARTCHAR 254a
ENCODING 9546
SWIDTH 960 0
DWIDTH 14 0
BBX 18 14 -2 -2
BITMAP
000000
000800
000800
001000
07FF00
001000
002000
002000
004000
008000
010000
060000
180000
000000
ENDCHAR
STARTCHAR 254b
ENCODING 9547
SWIDTH 960 0
DWIDTH 14 0
BBX 18 14 -2 -2
BITMAP
000000
000000
000000
03FC00
000000
000000
000000
000000
000000
3FFC00
000000
000000
000000
000000
ENDCHAR
STARTCHAR 254c
ENCODING 9548
SWIDTH 960 0
DWIDTH 14 0
BBX 18 14 -2 -2
BITMAP
000000
000000
01FE00
000400
000400
018800
005000
002000
005000
019000
020800
0C0000
700000
000000
ENDCHAR
STARTCHAR 254d
ENCODING 9549
SWIDTH 960 0
DWIDTH 14 0
BBX 18 14 -2 -2
BITMAP
000000
002000
001000
03FC00
000800
001000
002000
004000
01D000
068800
188400
008000
010000
000000
ENDCHAR
STARTCHAR 254e
ENCODING 9550
SWIDTH 960 0
DWIDTH 14 0
BBX 18 14 -2 -2
BITMAP
000000
000200
000200
000400
000400
000800
001000
002000
004000
008000
010000
060000
380000
000000
ENDCHAR
STARTCHAR 254f
ENCODING 9551
SWIDTH 960 0
DWIDTH 14 0
BBX 18 14 -2 -2
BITMAP
000000
000000
000000
000000
011000
010800
020800
020400
040400
080400
100400
200400
000800
000000
ENDCHAR
STARTCHAR 2550
ENCODING 9552
SWIDTH 960 0
DWIDTH 14 0
BBX 18 14 -2 -2
BITMAP
000000
000140
000140
000280
011000
010800
020800
020400
040400
080400
100400
200400
000800
000000
ENDCHAR
STARTCHAR 2551
ENCODING 9553
SWIDTH 960 0
DWIDTH 14 0
BBX 18 14 -2 -2
BITMAP
000180
000240
000280
000300
011000
010800
020800
020400
040400
080400
100400
200400
000800
000000
ENDCHAR
STARTCHAR 2552
ENCODING 9554
SWIDTH 960 0
DWIDTH 14 0
BBX 18 14 -2 -2
BITMAP
000000
000000
010000
020000
020000
023C00
07C000
040000
040000
080000
080000
07F800
000000
000000
ENDCHAR
STARTCHAR 2553
ENCODING 9555
SWIDTH 960 0
DWIDTH 14 0
BBX 18 14 -2 -2
BITMAP
000000
000000
010280
020500
020500
027C00
078000
040000
040000
080000
080000
07F800
000000
000000
ENDCHAR
STARTCHAR 2554
ENCODING 9556
SWIDTH 960 0
DWIDTH 14 0
BBX 18 14 -2 -2
BITMAP
000000
000200
010500
020500
020600
027C00
078000
040000
040000
080000
080000
07F800
000000
000000
ENDCHAR
STARTCHAR 2555
ENCODING 9557
SWIDTH 960 0
DWIDTH 14 0
BBX 18 14 -2 -2
BITMAP
000000
000000
000000
07FE00
000200
000400
000400
000800
001000
006000
008000
030000
1C0000
000000
ENDCHAR
STARTCHAR 2556
ENCODING 9558
SWIDTH 960 0
DWIDTH 14 0
BBX 18 14 -2 -2
BITMAP
000000
000140
000140
0FFE80
000400
000800
000800
001000
002000
00C000
010000
060000
380000
000000
ENDCHAR
STARTCHAR 2557
ENCODING 9559
SWIDTH 960 0
DWIDTH 14 0
BBX 18 14 -2 -2
BITMAP
000000
000100
000280
0FFC80
000700
000800
000800
001000
002000
00C000
010000
060000
380000
000000
ENDCHAR
STARTCHAR 2558
ENCODING 9560
SWIDTH 960 0
DWIDTH 14 0
BBX 18 14 -2 -2
BITMAP
000000
000000
000000
000000
00C000
032000
042000
081000
100800
000800
000600
000000
000000
000000
ENDCHAR
STARTCHAR 2559
ENCODING 9561
SWIDTH 960 0
DWIDTH 14 0
BBX 18 14 -2 -2
BITMAP
000000
000000
000280
000500
00C500
032000
042000
081000
100800
000800
000600
000000
000000
000000
ENDCHAR
STARTCHAR 255a
ENCODING 9562
SWIDTH 960 0
DWIDTH 14 0
BBX 18 14 -2 -2
BITMAP
000000
000200
000500
000500
00C200
032000
042000
081000
100800
000800
000600
000000
000000
000000
ENDCHAR
STARTCHAR 255b
ENCODING 9563
SWIDTH 960 0
DWIDTH 14 0
BBX 18 14 -2 -2
BITMAP
000000
001000
001000
002000
07FF00
002000
004000
024800
044800
048800
088400
108400
210000
030000
ENDCHAR
STARTCHAR 255c
ENCODING 9564
SWIDTH 960 0
DWIDTH 14 0
BBX 18 14 -2 -2
BITMAP
000000
001140
001140
002280
07FF00
002000
004000
024800
044800
048800
088400
108400
210000
030000
ENDCHAR
STARTCHAR 255d
ENCODING 9565
SWIDTH 960 0
DWIDTH 14 0
BBX 18 14 -2 -2
BITMAP
000000
001100
001280
002480
07FF00
002000
004000
024800
044800
048800
088400
108400
210000
030000
ENDCHAR
STARTCHAR 255e
ENCODING 9566
SWIDTH 960 0
DWIDTH 14 0
BBX 18 14 -2 -2
BITMAP
000000
000000
000000
07FF00
000200
000400
000800
001000
036000
008000
004000
002000
000000
000000
ENDCHAR
STARTCHAR 255f
ENCODING 9567
SWIDTH 960 0
DWIDTH 14 0
BBX 18 14 -2 -2
BITMAP
000000
004000
003000
000800
000400
010000
008000
006000
001000
080000
060000
018000
004000
002000
ENDCHAR
STARTCHAR 2560
ENCODING 9568
SWIDTH 960 0
DWIDTH 14 0
BBX 18 14 -2 -2
BITMAP
000000
001000
002000
002000
004000
008000
008800
010800
020800
021C00
05E400
1E0400
000800
000000
ENDCHAR
STARTCHAR 2561
ENCODING 9569
SWIDTH 960 0
DWIDTH 14 0
BBX 18 14 -2 -2
BITMAP
000000
000200
000200
000400
018400
004800
003000
002800
004400
008000
010000
060000
380000
000000
ENDCHAR
STARTCHAR 2562
ENCODING 9570
SWIDTH 960 0
DWIDTH 14 0
BBX 18 14 -2 -2
BITMAP
000000
000000
01FE00
004000
004000
004000
0FFE00
008000
008000
010000
010000
00F800
000000
000000
ENDCHAR
STARTCHAR 2563
ENCODING 9571
SWIDTH 960 0
DWIDTH 14 0
BBX 18 14 -2 -2
BITMAP
000000
000000
000000
000000
000000
004000
009C00
00E800
079000
00A000
008000
008000
008000
008000
ENDCHAR
STARTCHAR 2564
ENCODING 9572
SWIDTH 960 0
DWIDTH 14 0
BBX 18 14 -2 -2
BITMAP
000000
004000
004000
004F00
00F200
074400
004800
005000
004000
004000
004000
004000
008000
000000
ENDCHAR
STARTCHAR 2565
ENCODING 9573
SWIDTH 960 0
DWIDTH 14 0
BBX 18 14 -2 -2
BITMAP
000000
000000
000000
000000
000000
000000
03F000
001000
002000
002000
004000
0FF800
000000
000000
ENDCHAR
STARTCHAR 2566
ENCODING 9574
SWIDTH 960 0
DWIDTH 14 0
BBX 18 14 -2 -2
BITMAP
000000
000000
000000
000000
07F800
001000
001000
002000
002000
004000
3FFC00
000000
000000
000000
ENDCHAR
STARTCHAR 2567
ENCODING 9575
SWIDTH 960 0
DWIDTH 14 0
BBX 18 14 -2 -2
BITMAP
000000
000000
000000
000000
000000
01F800
001000
001000
03F000
002000
002000
002000
0FC000
000000
ENDCHAR
STARTCHAR 2568
ENCODING 9576
SWIDTH 960 0
DWIDTH 14 0
BBX 18 14 -2 -2
BITMAP
000000
000000
03FE00
000400
000400
000400
07F800
000800
000800
001000
001000
1FF000
002000
000000
ENDCHAR
STARTCHAR 2569
ENCODING 9577
SWIDTH 960 0
DWIDTH 14 0
BBX 18 14 -2 -2
BITMAP
000000
000000
01FE00
000000
000000
07FE00
000400
000400
000800
003000
004000
018000
1E0000
000000
ENDCHAR
STARTCHAR 256a
ENCODING 9578
SWIDTH 960 0
DWIDTH 14 0
BBX 18 14 -2 -2
BITMAP
000000
008200
008200
010400
010400
010400
020800
020800
001000
002000
004000
018000
060000
000000
ENDCHAR
STARTCHAR 256b
ENCODING 9579
SWIDTH 960 0
DWIDTH 14 0
BBX 18 14 -2 -2
BITMAP
000000
000000
000800
009000
009000
009000
012200
012200
022400
024800
045000
186000
200000
000000
ENDCHAR
STARTCHAR 256c
ENCODING 9580
SWIDTH 960 0
DWIDTH 14 0
BBX 18 14 -2 -2
BITMAP
000000
008000
008000
010000
010000
010000
020000
020400
020800
041000
042000
04C000
0F0000
000000
ENDCHAR
STARTCHAR 256d
ENCODING 9581
SWIDTH 960 0
DWIDTH 14 0
BBX 18 14 -2 -2
BITMAP
000000
000000
000000
07FE00
040200
040200
080400
080400
080400
100800
1FF800
100800
000000
000000
ENDCHAR
STARTCHAR 256e
ENCODING 9582
SWIDTH 960 0
DWIDTH 14 0
BBX 18 14 -2 -2
BITMAP
000000
000000
000000
000000
000000
000000
03FC00
020400
020800
040800
001000
006000
038000
000000
ENDCHAR
STARTCHAR 256f
ENCODING 9583
SWIDTH 960 0
DWIDTH 14 0
BBX 18 14 -2 -2
BITMAP
000000
000000
03FF00
040200
040200
040400
080400
000800
001000
002000
004000
018000
0E0000
000000
ENDCHAR
STARTCHAR 2570
ENCODING 9584
SWIDTH 960 0
DWIDTH 14 0
BBX 18 14 -2 -2
BITMAP
000000
000800
000800
001000
03FE00
011000
022000
022000
022000
1FFC00
004000
004000
008000
000000
ENDCHAR
STARTCHAR 2571
ENCODING 9585
SWIDTH 960 0
DWIDTH 14 0
BBX 18 14 -2 -2
BITMAP
000000
000000
000000
07FC00
004800
005000
00A000
008000
008000
010000
3FFC00
000000
000000
000000
ENDCHAR
STARTCHAR 2572
ENCODING 9586
SWIDTH 960 0
DWIDTH 14 0
BBX 18 14 -2 -2
BITMAP
000000
000000
01FF00
000200
000200
000400
03F400
000800
001000
006000
008000
030000
1C0000
000000
ENDCHAR
STARTCHAR 2573
ENCODING 9587
SWIDTH 960 0
DWIDTH 14 0
BBX 18 14 -2 -2
BITMAP
000000
000000
000000
030000
00C100
000200
000200
000400
000800
003000
004000
018000
1E0000
000000
ENDCHAR
STARTCHAR 2574
ENCODING 9588
SWIDTH 960 0
DWIDTH 14 0
BBX 18 14 -2 -2
BITMAP
000000
001140
001140
002280
07FE00
040200
080400
080400
000800
001000
002000
00C000
070000
000000
ENDCHAR
STARTCHAR 2575
ENCODING 9589
SWIDTH 960 0
DWIDTH 14 0
BBX 18 14 -2 -2
BITMAP
000000
000000
000000
000000
004000
004000
07F800
008800
010800
011000
021000
0C2000
10C000
000000
ENDCHAR
STARTCHAR 2576
ENCODING 9590
SWIDTH 960 0
DWIDTH 14 0
BBX 18 14 -2 -2
BITMAP
000000
000000
000000
000000
000000
010000
020000
03F800
042000
084000
104000
018000
060000
000000
ENDCHAR
STARTCHAR 2621
ENCODING 9761
SWIDTH 960 0
DWIDTH 14 0
BBX 18 14 -2 -2
BITMAP
000000
001000
001000
003000
005000
009000
011000
020800
03F800
040800
080800
1C1C00
000000
000000
ENDCHAR
STARTCHAR 2622
ENCODING 9762
SWIDTH 960 0
DWIDTH 14 0
BBX 18 14 -2 -2
BITMAP
000000
01F800
008400
010200
010200
010C00
03F000
020800
020400
040400
041800
0FE000
000000
000000
ENDCHAR
STARTCHAR 2623
ENCODING 9763
SWIDTH 960 0
DWIDTH 14 0
BBX 18 14 -2 -2
BITMAP
000000
01FE00
008200
010200
010000
010000
020000
020000
020000
040000
040000
0E0000
000000
000000
ENDCHAR
STARTCHAR 2624
ENCODING 9764
SWIDTH 960 0
DWIDTH 14 0
BBX 18 14 -2 -2
BITMAP
000000
001000
001000
003000
005000
009000
011000
020800
040800
040800
080800
1FFC00
000000
000000
ENDCHAR
STARTCHAR 2625
ENCODING 9765
SWIDTH 960 0
DWIDTH 14 0
BBX 18 14 -2 -2
BITMAP
000000
03FC00
010400
020400
020000
020800
07F000
041000
040000
080000
081000
1FF000
000000
000000
ENDCHAR
STARTCHAR 2626
ENCODING 9766
SWIDTH 960 0
DWIDTH 14 0
BBX 18 14 -2 -2
BITMAP
000000
01FF00
020600
040800
001000
002000
004000
008000
030000
040400
080800
1FF800
000000
000000
ENDCHAR
STARTCHAR 2627
ENCODING 9767
SWIDTH 960 0
DWIDTH 14 0
BBX 18 14 -2 -2
BITMAP
000000
038700
010200
020400
020400
020400
07F800
040800
040800
081000
081000
1C3800
000000
000000
ENDCHAR
STARTCHAR 2628
ENCODING 9768
SWIDTH 960 0
DWIDTH 14 0
BBX 18 14 -2 -2
BITMAP
000000
003800
01C400
020200
040100
048900
09F200
091200
080400
080800
063000
01C000
000000
000000
ENDCHAR
STARTCHAR 2629
ENCODING 9769
SWIDTH 960 0
DWIDTH 14 0
BBX 18 14 -2 -2
BITMAP
000000
007000
002000
004000
004000
004000
008000
008000
008000
010000
010000
038000
000000
000000
ENDCHAR
STARTCHAR 262a
ENCODING 9770
SWIDTH 960 0
DWIDTH 14 0
BBX 18 14 -2 -2
BITMAP
000000
038E00
010C00
021000
022000
03C000
068000
044000
042000
082000
081000
1C3800
000000
000000
ENDCHAR
STARTCHAR 262b
ENCODING 9771
SWIDTH 960 0
DWIDTH 14 0
BBX 18 14 -2 -2
BITMAP
000000
001000
001000
003000
005000
009000
011000
020800
040800
040800
080800
1C1C00
000000
000000
ENDCHAR
STARTCHAR 262c
ENCODING 9772
SWIDTH 960 0
DWIDTH 14 0
BBX 18 14 -2 -2
BITMAP
000000
060180
030300
060600
050A00
051200
092400
094400
098400
110800
100800
381C00
000000
000000
ENDCHAR
STARTCHAR 262d
ENCODING 9773
SWIDTH 960 0
DWIDTH 14 0
BBX 18 14 -2 -2
BITMAP
000000
030700
018200
030400
028400
024400
044800
044800
042800
083000
083000
1C1000
000000
000000
ENDCHAR
STARTCHAR 262e
ENCODING 9774
SWIDTH 960 0
DWIDTH 14 0
BBX 18 14 -2 -2
BITMAP
000000
01FF00
020200
040400
000000
020400
07F800
040800
000000
000000
080800
081000
3FE000
000000
ENDCHAR
STARTCHAR 262f
ENCODING 9775
SWIDTH 960 0
DWIDTH 14 0
BBX 18 14 -2 -2
BITMAP
000000
003800
01C400
020200
040100
040100
080200
080200
080400
080800
063000
01C000
000000
000000
ENDCHAR
STARTCHAR 2630
ENCODING 9776
SWIDTH 960 0
DWIDTH 14 0
BBX 18 14 -2 -2
BITMAP
000000
03FF00
010200
020400
020400
020400
040800
040800
040800
081000
081000
1C3800
000000
000000
ENDCHAR
STARTCHAR 2631
ENCODING 9777
SWIDTH 960 0
DWIDTH 14 0
BBX 18 14 -2 -2
BITMAP
000000
03F000
010800
020400
020400
021800
07E000
040000
040000
080000
080000
1C0000
000000
000000
ENDCHAR
STARTCHAR 2632
ENCODING 9778
SWIDTH 960 0
DWIDTH 14 0
BBX 18 14 -2 -2
BITMAP
000000
03FC00
010400
010400
008000
004000
004000
004000
008000
030800
041000
1FF000
000000
000000
ENDCHAR
STARTCHAR 2633
ENCODING 9779
SWIDTH 960 0
DWIDTH 14 0
BBX 18 14 -2 -2
BITMAP
000000
03FE00
042200
084200
004000
004000
008000
008000
008000
010000
010000
038000
000000
000000
ENDCHAR
STARTCHAR 2634
ENCODING 9780
SWIDTH 960 0
DWIDTH 14 0
BBX 18 14 -2 -2
BITMAP
000000
038C00
047200
084200
004000
004000
008000
008000
008000
010000
010000
038000
000000
000000
ENDCHAR
STARTCHAR 2635
ENCODING 9781
SWIDTH 960 0
DWIDTH 14 0
BBX 18 14 -2 -2
BITMAP
000000
003800
001000
00F800
032400
042200
084200
084200
064C00
01F000
008000
01C000
000000
000000
ENDCHAR
STARTCHAR 2636
ENCODING 9782
SWIDTH 960 0
DWIDTH 14 0
BBX 18 14 -2 -2
BITMAP
000000
038700
010600
010800
009000
006000
004000
00A000
031000
041000
080800
1C1C00
000000
000000
ENDCHAR
STARTCHAR 2637
ENCODING 9783
SWIDTH 960 0
DWIDTH 14 0
BBX 18 14 -2 -2
BITMAP
000000
007000
042300
044400
024800
024800
029000
02A000
01C000
010000
010000
038000
000000
000000
ENDCHAR
STARTCHAR 2638
ENCODING 9784
SWIDTH 960 0
DWIDTH 14 0
BBX 18 14 -2 -2
BITMAP
000000
003000
01C800
020400
040200
040200
040400
040800
021000
022000
124800
1E7800
000000
000000
ENDCHAR
STARTCHAR 2641
ENCODING 9793
SWIDTH 960 0
DWIDTH 14 0
BBX 18 14 -2 -2
BITMAP
000000
000000
000000
000400
006400
019800
020800
041000
041000
046000
04A000
031800
000000
000000
ENDCHAR
STARTCHAR 2642
ENCODING 9794
SWIDTH 960 0
DWIDTH 14 0
BBX 18 14 -2 -2
BITMAP
000000
000C00
001200
002200
004200
008C00
017000
010800
020800
041000
062000
09C000
080000
100000
ENDCHAR
STARTCHAR 2643
ENCODING 9795
SWIDTH 960 0
DWIDTH 14 0
BBX 18 14 -2 -2
BITMAP
000000
000000
000000
000000
00C600
015800
006000
004000
008000
008000
010000
010000
020000
000000
ENDCHAR
STARTCHAR 2644
ENCODING 9796
SWIDTH 960 0
DWIDTH 14 0
BBX 18 14 -2 -2
BITMAP
000000
003800
004400
004200
004000
00E000
011000
021000
022000
044000
048000
030000
000000
000000
ENDCHAR
STARTCHAR 2645
ENCODING 9797
SWIDTH 960 0
DWIDTH 14 0
BBX 18 14 -2 -2
BITMAP
000000
000000
000000
000000
007000
008800
008000
00E000
010000
020000
042000
03C000
000000
000000
ENDCHAR
STARTCHAR 2646
ENCODING 9798
SWIDTH 960 0
DWIDTH 14 0
BBX 18 14 -2 -2
BITMAP
000000
004000
009C00
006000
004000
008000
010000
020000
020000
010000
008000
004000
064000
038000
ENDCHAR
STARTCHAR 2647
ENCODING 9799
SWIDTH 960 0
DWIDTH 14 0
BBX 18 14 -2 -2
BITMAP
000000
000000
000000
000000
019000
02A800
008800
010800
021000
021000
042000
044000
008000
008000
ENDCHAR
STARTCHAR 2648
ENCODING 9800
SWIDTH 960 0
DWIDTH 14 0
BBX 18 14 -2 -2
BITMAP
000000
000C00
003200
004200
008200
008400
01F800
020800
021000
042000
044000
038000
000000
000000
ENDCHAR
STARTCHAR 2649
ENCODING 9801
SWIDTH 960 0
DWIDTH 14 0
BBX 18 14 -2 -2
BITMAP
000000
000000
000000
000000
002000
004000
008000
010000
010000
020000
024000
018000
000000
000000
ENDCHAR
STARTCHAR 264a
ENCODING 9802
SWIDTH 960 0
DWIDTH 14 0
BBX 18 14 -2 -2
BITMAP
000000
000000
000000
000000
008600
00B800
014000
038000
048000
048000
089000
086000
000000
000000
ENDCHAR
STARTCHAR 264b
ENCODING 9803
SWIDTH 960 0
DWIDTH 14 0
BBX 18 14 -2 -2
BITMAP
000000
003000
000800
000800
001800
002800
005000
009000
011000
022000
042000
041800
000000
000000
ENDCHAR
STARTCHAR 264c
ENCODING 9804
SWIDTH 960 0
DWIDTH 14 0
BBX 18 14 -2 -2
BITMAP
000000
000000
000000
000000
008400
008800
010800
011000
021000
042000
066400
099800
080000
100000
ENDCHAR
STARTCHAR 264d
ENCODING 9805
SWIDTH 960 0
DWIDTH 14 0
BBX 18 14 -2 -2
BITMAP
000000
000000
000000
000000
010400
010800
010800
011000
016000
028000
030000
040000
000000
000000
ENDCHAR
STARTCHAR 264e
ENCODING 9806
SWIDTH 960 0
DWIDTH 14 0
BBX 18 14 -2 -2
BITMAP
003000
004600
005800
004000
008000
008000
00E000
011000
020000
020000
010000
008000
004000
078000
ENDCHAR
STARTCHAR 264f
ENCODING 9807
SWIDTH 960 0
DWIDTH 14 0
BBX 18 14 -2 -2
BITMAP
000000
000000
000000
000000
001800
00E400
010400
020400
020800
021000
026000
018000
000000
000000
ENDCHAR
STARTCHAR 2650
ENCODING 9808
SWIDTH 960 0
DWIDTH 14 0
BBX 18 14 -2 -2
BITMAP
000000
000000
000000
018100
027E00
049000
009000
012000
022000
044000
044000
183000
000000
000000
ENDCHAR
STARTCHAR 2651
ENCODING 9809
SWIDTH 960 0
DWIDTH 14 0
BBX 18 14 -2 -2
BITMAP
000000
000000
000000
000000
001800
006400
008400
010400
010800
061000
062000
09C000
080000
100000
ENDCHAR
STARTCHAR 2652
ENCODING 9810
SWIDTH 960 0
DWIDTH 14 0
BBX 18 14 -2 -2
BITMAP
000000
000000
000000
000000
003E00
01D000
021000
041000
042000
084000
088000
070000
000000
000000
ENDCHAR
STARTCHAR 2653
ENCODING 9811
SWIDTH 960 0
DWIDTH 14 0
BBX 18 14 -2 -2
BITMAP
000000
000000
000000
000000
00C600
035800
044000
008000
010000
010000
024000
018000
000000
000000
ENDCHAR
STARTCHAR 2654
ENCODING 9812
SWIDTH 960 0
DWIDTH 14 0
BBX 18 14 -2 -2
BITMAP
000000
000000
000000
000000
008800
010800
010800
020800
021000
042000
044000
038000
000000
000000
ENDCHAR
STARTCHAR 2655
ENCODING 9813
SWIDTH 960 0
DWIDTH 14 0
BBX 18 14 -2 -2
BITMAP
000000
000800
000800
001000
007000
01A800
024800
044800
049000
052000
054000
078000
040000
040000
ENDCHAR
STARTCHAR 2656
ENCODING 9814
SWIDTH 960 0
DWIDTH 14 0
BBX 18 14 -2 -2
BITMAP
000000
004100
00A200
002400
002800
003000
004000
00C000
014000
028000
048000
088000
10A000
204000
ENDCHAR
STARTCHAR 2657
ENCODING 9815
SWIDTH 960 0
DWIDTH 14 0
BBX 18 14 -2 -2
BITMAP
000000
000800
000800
001000
041400
0A2400
024400
024400
048800
093000
09C000
070000
040000
040000
ENDCHAR
STARTCHAR 2658
ENCODING 9816
SWIDTH 960 0
DWIDTH 14 0
BBX 18 14 -2 -2
BITMAP
000000
000000
000000
000000
010400
020400
044400
088400
088800
111000
132000
0CC000
000000
000000
ENDCHAR
STARTCHAR 2721
ENCODING 10017
SWIDTH 960 0
DWIDTH 14 0
BBX 18 14 -2 -2
BITMAP
000000
001000
001000
003000
005000
009000
011000
020800
03F800
040800
080800
1C1C00
000000
000000
ENDCHAR
STARTCHAR 2722
ENCODING 10018
SWIDTH 960 0
DWIDTH 14 0
BBX 18 14 -2 -2
BITMAP
000000
01FE00
008200
010200
010000
010000
03F000
020800
020400
040400
041800
0FE000
000000
000000
ENDCHAR
STARTCHAR 2723
ENCODING 10019
SWIDTH 960 0
DWIDTH 14 0
BBX 18 14 -2 -2
BITMAP
000000
01F800
008400
010200
010200
010C00
03F000
020800
020400
040400
041800
0FE000
000000
000000
ENDCHAR
STARTCHAR 2724
ENCODING 10020
SWIDTH 960 0
DWIDTH 14 0
BBX 18 14 -2 -2
BITMAP
000000
01FE00
008200
010200
010000
010000
020000
020000
020000
040000
040000
0E0000
000000
000000
ENDCHAR
STARTCHAR 2725
ENCODING 10021
SWIDTH 960 0
DWIDTH 14 0
BBX 18 14 -2 -2
BITMAP
000000
00FF00
004200
008400
008400
008400
010800
010800
020800
021000
041000
1FFC00
200800
200800
ENDCHAR
STARTCHAR 2726
ENCODING 10022
SWIDTH 960 0
DWIDTH 14 0
BBX 18 14 -2 -2
BITMAP
000000
03FC00
010400
020400
020000
020800
07F000
041000
040000
080000
081000
1FF000
000000
000000
ENDCHAR
STARTCHAR 2727
ENCODING 10023
SWIDTH 960 0
DWIDTH 14 0
BBX 18 14 -2 -2
BITMAP
009000
009000
03F800
020400
020000
021000
07E000
042000
040000
080000
081000
1FF000
000000
000000
ENDCHAR
STARTCHAR 2728
ENCODING 10024
SWIDTH 960 0
DWIDTH 14 0
BBX 18 14 -2 -2
BITMAP
000000
033980
031280
012400
012400
012800
01E800
015000
024800
048800
088800
19CC00
000000
000000
ENDCHAR
STARTCHAR 2729
ENCODING 10025
SWIDTH 960 0
DWIDTH 14 0
BBX 18 14 -2 -2
BITMAP
000000
003800
01C400
020200
000200
000C00
00F000
001800
000800
080800
063000
01C000
000000
000000
ENDCHAR
STARTCHAR 272a
ENCODING 10026
SWIDTH 960 0
DWIDTH 14 0
BBX 18 14 -2 -2
BITMAP
000000
038300
010600
020C00
021400
022400
044800
048800
070800
0C1000
0C1000
083800
000000
000000
ENDCHAR
STARTCHAR 272b
ENCODING 10027
SWIDTH 960 0
DWIDTH 14 0
BBX 18 14 -2 -2
BITMAP
004800
003000
038300
020C00
021400
022400
044800
048800
070800
0C1000
0C1000
083800
000000
000000
ENDCHAR
STARTCHAR 272c
ENCODING 10028
SWIDTH 960 0
DWIDTH 14 0
BBX 18 14 -2 -2
BITMAP
000000
038600
011900
022000
024000
03C000
068000
044000
042000
082000
081000
1C3800
000000
000000
ENDCHAR
STARTCHAR 272d
ENCODING 10029
SWIDTH 960 0
DWIDTH 14 0
BBX 18 14 -2 -2
BITMAP
000000
003F80
002100
004200
004200
004200
008400
008400
010400
110800
120800
0C1C00
000000
000000
ENDCHAR
STARTCHAR 272e
ENCODING 10030
SWIDTH 960 0
DWIDTH 14 0
BBX 18 14 -2 -2
BITMAP
000000
030300
010200
030C00
031400
052400
052400
08C400
088400
110800
100800
381C00
000000
000000
ENDCHAR
STARTCHAR 272f
ENCODING 10031
SWIDTH 960 0
DWIDTH 14 0
BBX 18 14 -2 -2
BITMAP
000000
038700
010200
020400
020400
020400
07F800
040800
040800
081000
081000
1C3800
000000
000000
ENDCHAR
STARTCHAR 2730
ENCODING 10032
SWIDTH 960 0
DWIDTH 14 0
BBX 18 14 -2 -2
BITMAP
000000
003800
01C400
020200
040100
040100
080200
080200
080400
080800
063000
01C000
000000
000000
ENDCHAR
STARTCHAR 2731
ENCODING 10033
SWIDTH 960 0
DWIDTH 14 0
BBX 18 14 -2 -2
BITMAP
000000
03FF00
010200
020400
020400
020400
040800
040800
040800
081000
081000
1C3800
000000
000000
ENDCHAR
STARTCHAR 2732
ENCODING 10034
SWIDTH 960 0
DWIDTH 14 0
BBX 18 14 -2 -2
BITMAP
000000
03F000
010800
020400
020400
021800
07E000
040000
040000
080000
080000
1C0000
000000
000000
ENDCHAR
STARTCHAR 2733
ENCODING 10035
SWIDTH 960 0
DWIDTH 14 0
BBX 18 14 -2 -2
BITMAP
000000
003D00
01C300
020200
040000
040000
080000
080000
080000
080800
061000
01E000
000000
000000
ENDCHAR
STARTCHAR 2734
ENCODING 10036
SWIDTH 960 0
DWIDTH 14 0
BBX 18 14 -2 -2
BITMAP
000000
03FE00
042200
084200
004000
004000
008000
008000
008000
010000
010000
038000
000000
000000
ENDCHAR
STARTCHAR 2735
ENCODING 10037
SWIDTH 960 0
DWIDTH 14 0
BBX 18 14 -2 -2
BITMAP
000000
038380
010200
010200
010400
008800
008800
009000
006000
004000
008000
010000
020000
0C0000
ENDCHAR
STARTCHAR 2736
ENCODING 10038
SWIDTH 960 0
DWIDTH 14 0
BBX 18 14 -2 -2
BITMAP
000000
003800
001000
00F800
032400
042200
084200
084200
064C00
01F000
008000
01C000
000000
000000
ENDCHAR
STARTCHAR 2737
ENCODING 10039
SWIDTH 960 0
DWIDTH 14 0
BBX 18 14 -2 -2
BITMAP
000000
038700
010600
010800
009000
006000
004000
00A000
031000
041000
080800
1C1C00
000000
000000
ENDCHAR
STARTCHAR 2738
ENCODING 10040
SWIDTH 960 0
DWIDTH 14 0
BBX 18 14 -2 -2
BITMAP
000000
038700
010200
020400
020400
020400
040800
040800
040800
081000
081000
1FFC00
000800
000800
ENDCHAR
STARTCHAR 2739
ENCODING 10041
SWIDTH 960 0
DWIDTH 14 0
BBX 18 14 -2 -2
BITMAP
000000
038700
010200
020400
020400
020400
021800
022800
01C800
001000
001000
003800
000000
000000
ENDCHAR
STARTCHAR 273a
ENCODING 10042
SWIDTH 960 0
DWIDTH 14 0
BBX 18 14 -2 -2
BITMAP
000000
03BB80
011100
022200
022200
022200
044400
044400
044400
088800
088800
1FFC00
000000
000000
ENDCHAR
STARTCHAR 273b
ENCODING 10043
SWIDTH 960 0
DWIDTH 14 0
BBX 18 14 -2 -2
BITMAP
000000
03BB80
011100
022200
022200
022200
044400
044400
044400
088800
088800
1FF800
000800
000800
ENDCHAR
STARTCHAR 273c
ENCODING 10044
SWIDTH 960 0
DWIDTH 14 0
BBX 18 14 -2 -2
BITMAP
000000
01F000
022000
044000
004000
007800
008400
008200
008200
010400
011800
03E000
000000
000000
ENDCHAR
STARTCHAR 273d
ENCODING 10045
SWIDTH 960 0
DWIDTH 14 0
BBX 18 14 -2 -2
BITMAP
000000
038700
010200
020400
020400
038400
044800
042800
042800
085000
099000
1E3800
000000
000000
ENDCHAR
STARTCHAR 273e
ENCODING 10046
SWIDTH 960 0
DWIDTH 14 0
BBX 18 14 -2 -2
BITMAP
000000
00E000
004000
008000
008000
00F000
010800
010400
010400
020800
023000
07C000
000000
000000
ENDCHAR
STARTCHAR 273f
ENCODING 10047
SWIDTH 960 0
DWIDTH 14 0
BBX 18 14 -2 -2
BITMAP
000000
003800
01C400
020200
000200
018100
024E00
003200
000400
080800
063000
01C000
000000
000000
ENDCHAR
STARTCHAR 2740
ENCODING 10048
SWIDTH 960 0
DWIDTH 14 0
BBX 18 14 -2 -2
BITMAP
000000
038C00
011200
022200
024100
024100
078200
048200
048400
088400
088800
1C7000
000000
000000
ENDCHAR
STARTCHAR 2741
ENCODING 10049
SWIDTH 960 0
DWIDTH 14 0
BBX 18 14 -2 -2
BITMAP
000000
003F00
00C200
010400
020400
010400
00F800
010800
020800
041000
081000
1C3800
000000
000000
ENDCHAR
STARTCHAR 2751
ENCODING 10065
SWIDTH 960 0
DWIDTH 14 0
BBX 18 14 -2 -2
BITMAP
000000
000000
000000
000000
00E000
011000
021000
00F000
031000
042000
086000
079000
000000
000000
ENDCHAR
STARTCHAR 2752
ENCODING 10066
SWIDTH 960 0
DWIDTH 14 0
BBX 18 14 -2 -2
BITMAP
000100
000E00
003000
004000
00B000
01C800
020400
020400
020400
020800
013000
00C000
000000
000000
ENDCHAR
STARTCHAR 2753
ENCODING 10067
SWIDTH 960 0
DWIDTH 14 0
BBX 18 14 -2 -2
BITMAP
000000
000000
000000
000000
01F000
008800
010800
01F000
010800
020800
020800
07F000
000000
000000
ENDCHAR
STARTCHAR 2754
ENCODING 10068
SWIDTH 960 0
DWIDTH 14 0
BBX 18 14 -2 -2
BITMAP
000000
000000
000000
000000
03F800
010800
020800
020000
020000
040000
040000
0E0000
000000
000000
ENDCHAR
STARTCHAR 2755
ENCODING 10069
SWIDTH 960 0
DWIDTH 14 0
BBX 18 14 -2 -2
BITMAP
000000
000000
000000
000000
00FE00
008400
010800
010800
010800
021000
041000
1FF000
202000
202000
ENDCHAR
STARTCHAR 2756
ENCODING 10070
SWIDTH 960 0
DWIDTH 14 0
BBX 18 14 -2 -2
BITMAP
000000
000000
000000
000000
00F000
010800
020800
07F800
040000
041000
022000
01C000
000000
000000
ENDCHAR
STARTCHAR 2757
ENCODING 10071
SWIDTH 960 0
DWIDTH 14 0
BBX 18 14 -2 -2
BITMAP
000000
004800
004800
000000
00F000
010800
020800
07F800
040000
041000
022000
01C000
000000
000000
ENDCHAR
STARTCHAR 2758
ENCODING 10072
SWIDTH 960 0
DWIDTH 14 0
BBX 18 14 -2 -2
BITMAP
000000
000000
000000
000000
067300
012C00
015000
00E000
015000
029000
049000
19CC00
000000
000000
ENDCHAR
STARTCHAR 2759
ENCODING 10073
SWIDTH 960 0
DWIDTH 14 0
BBX 18 14 -2 -2
BITMAP
000000
000000
000000
000000
00F000
030C00
040800
00F000
001000
081000
042000
03C000
000000
000000
ENDCHAR
STARTCHAR 275a
ENCODING 10074
SWIDTH 960 0
DWIDTH 14 0
BBX 18 14 -2 -2
BITMAP
000000
000000
000000
000000
070E00
021C00
042800
044800
058800
0A1000
0C1000
1C3800
000000
000000
ENDCHAR
STARTCHAR 275b
ENCODING 10075
SWIDTH 960 0
DWIDTH 14 0
BBX 18 14 -2 -2
BITMAP
000000
000000
005800
002000
070E00
021C00
042800
044800
058800
0A1000
0C1000
1C3800
000000
000000
ENDCHAR
STARTCHAR 275c
ENCODING 10076
SWIDTH 960 0
DWIDTH 14 0
BBX 18 14 -2 -2
BITMAP
000000
000000
000000
000000
038C00
011400
022000
03C000
022000
042000
041000
0E3800
000000
000000
ENDCHAR
STARTCHAR 275d
ENCODING 10077
SWIDTH 960 0
DWIDTH 14 0
BBX 18 14 -2 -2
BITMAP
000000
000000
000000
000000
00FE00
004400
008800
008800
010800
111000
121000
0C3800
000000
000000
ENDCHAR
STARTCHAR 275e
ENCODING 10078
SWIDTH 960 0
DWIDTH 14 0
BBX 18 14 -2 -2
BITMAP
000000
000000
000000
000000
070700
030600
050C00
051400
052400
094800
088800
1C1C00
000000
000000
ENDCHAR
STARTCHAR 275f
ENCODING 10079
SWIDTH 960 0
DWIDTH 14 0
BBX 18 14 -2 -2
BITMAP
000000
000000
000000
000000
038E00
010400
020800
03F800
020800
041000
041000
0E3800
000000
000000
ENDCHAR
STARTCHAR 2760
ENCODING 10080
SWIDTH 960 0
DWIDTH 14 0
BBX 18 14 -2 -2
BITMAP
000000
000000
000000
000000
00F000
010800
020800
040800
040800
041000
042000
03C000
000000
000000
ENDCHAR
STARTCHAR 2761
ENCODING 10081
SWIDTH 960 0
DWIDTH 14 0
BBX 18 14 -2 -2
BITMAP
000000
000000
000000
000000
03FE00
010400
020800
020800
020800
041000
041000
0E3800
000000
000000
ENDCHAR
STARTCHAR 2762
ENCODING 10082
SWIDTH 960 0
DWIDTH 14 0
BBX 18 14 -2 -2
BITMAP
000000
000000
000000
000000
017000
018800
020800
020800
020800
041000
062000
05C000
080000
1C0000
ENDCHAR
STARTCHAR 2763
ENCODING 10083
SWIDTH 960 0
DWIDTH 14 0
BBX 18 14 -2 -2
BITMAP
000000
000000
000000
000000
00F000
010800
020800
040000
040000
041000
042000
03C000
000000
000000
ENDCHAR
STARTCHAR 2764
ENCODING 10084
SWIDTH 960 0
DWIDTH 14 0
BBX 18 14 -2 -2
BITMAP
000000
000000
000000
000000
01FC00
022400
044400
004000
004000
008000
008000
01C000
000000
000000
ENDCHAR
STARTCHAR 2765
ENCODING 10085
SWIDTH 960 0
DWIDTH 14 0
BBX 18 14 -2 -2
BITMAP
000000
000000
000000
000000
038E00
010800
010800
011000
012000
012000
00C000
010000
020000
0C0000
ENDCHAR
STARTCHAR 2766
ENCODING 10086
SWIDTH 960 0
DWIDTH 14 0
BBX 18 14 -2 -2
BITMAP
000000
003800
001000
002000
01AC00
027200
044200
084200
084200
088400
09C800
06B000
010000
038000
ENDCHAR
STARTCHAR 2767
ENCODING 10087
SWIDTH 960 0
DWIDTH 14 0
BBX 18 14 -2 -2
BITMAP
000000
000000
000000
000000
030C00
011000
012000
00C000
01C000
024000
042000
0C3000
000000
000000
ENDCHAR
STARTCHAR 2768
ENCODING 10088
SWIDTH 960 0
DWIDTH 14 0
BBX 18 14 -2 -2
BITMAP
000000
000000
000000
000000
038E00
010400
020800
020800
020800
041000
041000
0FF000
001000
001000
ENDCHAR
STARTCHAR 2769
ENCODING 10089
SWIDTH 960 0
DWIDTH 14 0
BBX 18 14 -2 -2
BITMAP
000000
000000
000000
000000
038E00
010400
020800
021800
01E800
001000
001000
003800
000000
000000
ENDCHAR
STARTCHAR 276a
ENCODING 10090
SWIDTH 960 0
DWIDTH 14 0
BBX 18 14 -2 -2
BITMAP
000000
000000
000000
000000
077700
022200
044400
044400
044400
088800
088800
0FFC00
000000
000000
ENDCHAR
STARTCHAR 276b
ENCODING 10091
SWIDTH 960 0
DWIDTH 14 0
BBX 18 14 -2 -2
BITMAP
000000
000000
000000
000000
077700
022200
044400
044400
044400
088800
088800
0FF800
000800
000800
ENDCHAR
STARTCHAR 276c
ENCODING 10092
SWIDTH 960 0
DWIDTH 14 0
BBX 18 14 -2 -2
BITMAP
000000
000000
000000
000000
03E000
044000
088000
00F000
008C00
010800
011800
03E000
000000
000000
ENDCHAR
STARTCHAR 276d
ENCODING 10093
SWIDTH 960 0
DWIDTH 14 0
BBX 18 14 -2 -2
BITMAP
000000
000000
000000
000000
038E00
010400
020800
038800
026800
045000
04D000
0F3800
000000
000000
ENDCHAR
STARTCHAR 276e
ENCODING 10094
SWIDTH 960 0
DWIDTH 14 0
BBX 18 14 -2 -2
BITMAP
000000
000000
000000
000000
01C000
008000
010000
01E000
011800
021000
023000
07C000
000000
000000
ENDCHAR
STARTCHAR 276f
ENCODING 10095
SWIDTH 960 0
DWIDTH 14 0
BBX 18 14 -2 -2
BITMAP
000000
000000
000000
000000
00F000
030C00
040800
00DC00
012800
081000
042000
03C000
000000
000000
ENDCHAR
STARTCHAR 2770
ENCODING 10096
SWIDTH 960 0
DWIDTH 14 0
BBX 18 14 -2 -2
BITMAP
000000
000000
000000
000000
071800
022400
044400
078400
048400
088800
089000
1C6000
000000
000000
ENDCHAR
STARTCHAR 2771
ENCODING 10097
SWIDTH 960 0
DWIDTH 14 0
BBX 18 14 -2 -2
BITMAP
000000
000000
000000
000000
00FC00
010800
021000
021000
03F000
022000
042000
0E7000
000000
000000
ENDCHAR
STARTCHAR 2821
ENCODING 10273
SWIDTH 960 0
DWIDTH 14 0
BBX 18 14 -2 -2
BITMAP
000000
000000
000000
000000
000000
000000
000000
3FFF00
000000
000000
000000
000000
000000
000000
ENDCHAR
STARTCHAR 2822
ENCODING 10274
SWIDTH 960 0
DWIDTH 14 0
BBX 18 14 -2 -2
BITMAP
001000
001000
001000
002000
002000
002000
004000
004000
004000
008000
008000
008000
010000
010000
ENDCHAR
STARTCHAR 2823
ENCODING 10275
SWIDTH 960 0
DWIDTH 14 0
BBX 18 14 -2 -2
BITMAP
000000
000000
000000
000000
000000
000000
000000
007F00
004000
008000
008000
008000
010000
010000
ENDCHAR
STARTCHAR 2824
ENCODING 10276
SWIDTH 960 0
DWIDTH 14 0
BBX 18 14 -2 -2
BITMAP
000000
000000
000000
000000
000000
000000
000000
3FC000
004000
008000
008000
008000
010000
010000
ENDCHAR
STARTCHAR 2825
ENCODING 10277
SWIDTH 960 0
DWIDTH 14 0
BBX 18 14 -2 -2
BITMAP
001000
001000
001000
002000
002000
002000
004000
3FC000
000000
000000
000000
000000
000000
000000
ENDCHAR
STARTCHAR 2826
ENCODING 10278
SWIDTH 960 0
DWIDTH 14 0
BBX 18 14 -2 -2
BITMAP
001000
001000
001000
002000
002000
002000
004000
007F00
000000
000000
000000
000000
000000
000000
ENDCHAR
STARTCHAR 2827
ENCODING 10279
SWIDTH 960 0
DWIDTH 14 0
BBX 18 14 -2 -2
BITMAP
001000
001000
001000
002000
002000
002000
004000
007F00
004000
008000
008000
008000
010000
010000
ENDCHAR
STARTCHAR 2828
ENCODING 10280
SWIDTH 960 0
DWIDTH 14 0
BBX 18 14 -2 -2
BITMAP
000000
000000
000000
000000
000000
000000
000000
3FFF00
004000
008000
008000
008000
010000
010000
ENDCHAR
STARTCHAR 2829
ENCODING 10281
SWIDTH 960 0
DWIDTH 14 0
BBX 18 14 -2 -2
BITMAP
001000
001000
001000
002000
002000
002000
004000
3FC000
004000
008000
008000
008000
010000
010000
ENDCHAR
STARTCHAR 282a
ENCODING 10282
SWIDTH 960 0
DWIDTH 14 0
BBX 18 14 -2 -2
BITMAP
001000
001000
001000
002000
002000
002000
004000
3FFF00
000000
000000
000000
000000
000000
000000
ENDCHAR
STARTCHAR 282b
ENCODING 10283
SWIDTH 960 0
DWIDTH 14 0
BBX 18 14 -2 -2
BITMAP
001000
001000
001000
002000
002000
002000
004000
3FFF00
004000
008000
008000
008000
010000
010000
ENDCHAR
STARTCHAR 282c
ENCODING 10284
SWIDTH 960 0
DWIDTH 14 0
BBX 18 14 -2 -2
BITMAP
000000
000000
000000
000000
000000
000000
3FFF00
3FFF00
000000
000000
000000
000000
000000
000000
ENDCHAR
STARTCHAR 282d
ENCODING 10285
SWIDTH 960 0
DWIDTH 14 0
BBX 18 14 -2 -2
BITMAP
003000
003000
003000
006000
006000
006000
00C000
00C000
00C000
018000
018000
018000
030000
030000
ENDCHAR
STARTCHAR 282e
ENCODING 10286
SWIDTH 960 0
DWIDTH 14 0
BBX 18 14 -2 -2
BITMAP
000000
000000
000000
000000
000000
000000
00FF00
00FF00
00C000
018000
018000
018000
030000
030000
ENDCHAR
STARTCHAR 282f
ENCODING 10287
SWIDTH 960 0
DWIDTH 14 0
BBX 18 14 -2 -2
BITMAP
000000
000000
000000
000000
000000
000000
3FC000
3FC000
00C000
018000
018000
018000
030000
030000
ENDCHAR
STARTCHAR 2830
ENCODING 10288
SWIDTH 960 0
DWIDTH 14 0
BBX 18 14 -2 -2
BITMAP
003000
003000
003000
006000
006000
006000
3FC000
3FC000
000000
000000
000000
000000
000000
000000
ENDCHAR
STARTCHAR 2831
ENCODING 10289
SWIDTH 960 0
DWIDTH 14 0
BBX 18 14 -2 -2
BITMAP
003000
003000
003000
006000
006000
006000
00FF00
00FF00
000000
000000
000000
000000
000000
000000
ENDCHAR
STARTCHAR 2832
ENCODING 10290
SWIDTH 960 0
DWIDTH 14 0
BBX 18 14 -2 -2
BITMAP
003000
003000
003000
006000
006000
006000
00FF00
00FF00
00C000
018000
018000
018000
030000
030000
ENDCHAR
STARTCHAR 2833
ENCODING 10291
SWIDTH 960 0
DWIDTH 14 0
BBX 18 14 -2 -2
BITMAP
000000
000000
000000
000000
000000
000000
3FFF00
3FFF00
00C000
018000
018000
018000
030000
030000
ENDCHAR
STARTCHAR 2834
ENCODING 10292
SWIDTH 960 0
DWIDTH 14 0
BBX 18 14 -2 -2
BITMAP
003000
003000
003000
006000
006000
006000
3FC000
3FC000
00C000
018000
018000
018000
030000
030000
ENDCHAR
STARTCHAR 2835
ENCODING 10293
SWIDTH 960 0
DWIDTH 14 0
BBX 18 14 -2 -2
BITMAP
003000
003000
003000
006000
006000
006000
3FFF00
3FFF00
000000
000000
000000
000000
000000
000000
ENDCHAR
STARTCHAR 2836
ENCODING 10294
SWIDTH 960 0
DWIDTH 14 0
BBX 18 14 -2 -2
BITMAP
003000
003000
003000
006000
006000
006000
3FFF00
3FFF00
00C000
018000
018000
018000
030000
030000
ENDCHAR
STARTCHAR 2837
ENCODING 10295
SWIDTH 960 0
DWIDTH 14 0
BBX 18 14 -2 -2
BITMAP
003000
003000
003000
006000
006000
006000
00C000
00FF00
00C000
018000
018000
018000
030000
030000
ENDCHAR
STARTCHAR 2838
ENCODING 10296
SWIDTH 960 0
DWIDTH 14 0
BBX 18 14 -2 -2
BITMAP
000000
000000
000000
000000
000000
000000
3FFF00
3FFF00
004000
008000
008000
008000
010000
010000
ENDCHAR
STARTCHAR 2839
ENCODING 10297
SWIDTH 960 0
DWIDTH 14 0
BBX 18 14 -2 -2
BITMAP
003000
003000
003000
006000
006000
006000
00C000
3FC000
00C000
018000
018000
018000
030000
030000
ENDCHAR
STARTCHAR 283a
ENCODING 10298
SWIDTH 960 0
DWIDTH 14 0
BBX 18 14 -2 -2
BITMAP
001000
001000
001000
002000
002000
002000
3FFF00
3FFF00
000000
000000
000000
000000
000000
000000
ENDCHAR
STARTCHAR 283b
ENCODING 10299
SWIDTH 960 0
DWIDTH 14 0
BBX 18 14 -2 -2
BITMAP
001000
001000
001000
002000
002000
002000
3FFF00
3FFF00
004000
008000
008000
008000
010000
010000
ENDCHAR
STARTCHAR 283c
ENCODING 10300
SWIDTH 960 0
DWIDTH 14 0
BBX 18 14 -2 -2
BITMAP
001000
001000
001000
002000
002000
002000
007F00
007F00
004000
008000
008000
008000
010000
010000
ENDCHAR
STARTCHAR 283d
ENCODING 10301
SWIDTH 960 0
DWIDTH 14 0
BBX 18 14 -2 -2
BITMAP
000000
000000
000000
000000
000000
000000
000000
3FFF00
00C000
018000
018000
018000
030000
030000
ENDCHAR
STARTCHAR 283e
ENCODING 10302
SWIDTH 960 0
DWIDTH 14 0
BBX 18 14 -2 -2
BITMAP
001000
001000
001000
002000
002000
002000
3FC000
3FC000
004000
008000
008000
008000
010000
010000
ENDCHAR
STARTCHAR 283f
ENCODING 10303
SWIDTH 960 0
DWIDTH 14 0
BBX 18 14 -2 -2
BITMAP
003000
003000
003000
006000
006000
006000
00C000
3FFF00
000000
000000
000000
000000
000000
000000
ENDCHAR
STARTCHAR 2840
ENCODING 10304
SWIDTH 960 0
DWIDTH 14 0
BBX 18 14 -2 -2
BITMAP
003000
003000
003000
006000
006000
006000
00C000
3FFF00
00C000
018000
018000
018000
030000
030000
ENDCHAR
STARTCHAR 3021
ENCODING 12321
SWIDTH 960 0
DWIDTH 14 0
BBX 18 14 -2 -2
BITMAP
000000
07FF80
004800
009000
07FE00
049200
092400
092400
0FFC00
024000
024000
024000
7FF800
000000
ENDCHAR
STARTCHAR 3022
ENCODING 12322
SWIDTH 960 0
DWIDTH 14 0
BBX 18 14 -2 -2
BITMAP
000000
007FC0
078A00
091400
097F00
095500
12AA00
12AA00
12FE00
245000
3C5000
005000
0FFC00
000000
ENDCHAR
STARTCHAR 3023
ENCODING 12323
SWIDTH 960 0
DWIDTH 14 0
BBX 18 14 -2 -2
BITMAP
008200
008200
008200
011F00
0FC400
024400
04FF00
048800
0F0800
127C00
031000
051000
18FC00
200000
ENDCHAR
STARTCHAR 3024
ENCODING 12324
SWIDTH 960 0
DWIDTH 14 0
BBX 18 14 -2 -2
BITMAP
000000
03FFC0
02C080
050100
063D00
052500
094A00
094A00
097A00
120400
1C0400
100400
200800
201800
ENDCHAR
STARTCHAR 3025
ENCODING 12325
SWIDTH 960 0
DWIDTH 14 0
BBX 18 14 -2 -2
BITMAP
001000
001000
07FFC0
000000
01FC00
010400
020800
03FA00
01C400
064800
3A5000
022000
071000
380C00
ENDCHAR
STARTCHAR 3026
ENCODING 12326
SWIDTH 960 0
DWIDTH 14 0
BBX 18 14 -2 -2
BITMAP
000300
03FD00
012200
012400
0FFF80
093100
151500
04F200
088200
03F000
1D2000
01C000
06E000
781C00
ENDCHAR
STARTCHAR 3027
ENCODING 12327
SWIDTH 960 0
DWIDTH 14 0
BBX 18 14 -2 -2
BITMAP
010800
010A00
011100
0F2700
02F900
022000
047E00
069000
1F1000
0BFE00
082000
08D000
131000
3C0C00
ENDCHAR
STARTCHAR 3028
ENCODING 12328
SWIDTH 960 0
DWIDTH 14 0
BBX 18 14 -2 -2
BITMAP
008200
008200
008200
010600
0FCA00
027100
04DF00
048000
0D3E00
154400
024400
0D4400
10F800
600000
ENDCHAR
STARTCHAR 3029
ENCODING 12329
SWIDTH 960 0
DWIDTH 14 0
BBX 18 14 -2 -2
BITMAP
000800
021F80
026B00
020C00
003E00
03C980
1CFE00
041000
04FE00
082000
0BFE00
1C2000
224000
41FC00
ENDCHAR
STARTCHAR 302a
ENCODING 12330
SWIDTH 960 0
DWIDTH 14 0
BBX 18 14 -2 -2
BITMAP
004400
07FFC0
004400
00E400
022500
01DA00
011200
07FC00
184700
07F800
008000
034000
0C2000
301800
ENDCHAR
STARTCHAR 302b
ENCODING 12331
SWIDTH 960 0
DWIDTH 14 0
BBX 18 14 -2 -2
BITMAP
004400
004400
07FFC0
008800
0FFF80
009000
0FFE00
092200
0A2200
141C00
180400
100400
3FF800
000000
ENDCHAR
STARTCHAR 302c
ENCODING 12332
SWIDTH 960 0
DWIDTH 14 0
BBX 18 14 -2 -2
BITMAP
004400
019F00
074200
023E00
022A00
0FBE00
045400
06FE00
0F9200
1BFC00
292400
09FC00
104400
103C00
ENDCHAR
STARTCHAR 302d
ENCODING 12333
SWIDTH 960 0
DWIDTH 14 0
BBX 18 14 -2 -2
BITMAP
000000
03FF80
002800
03FE00
025200
03FE00
00A000
1FFF00
004000
0A4800
0A4400
121400
622400
01E000
ENDCHAR
STARTCHAR 302e
ENCODING 12334
SWIDTH 960 0
DWIDTH 14 0
BBX 18 14 -2 -2
BITMAP
010000
013F80
012080
0FFF00
024000
027F00
049800
06A400
1DFA00
0A2000
0BFC00
0C2000
13FC00
300000
ENDCHAR
STARTCHAR 302f
ENCODING 12335
SWIDTH 960 0
DWIDTH 14 0
BBX 18 14 -2 -2
BITMAP
010000
00BF80
00A080
087F00
044000
047F80
009400
00A600
08F900
092000
12FC00
222000
2FFC00
400000
ENDCHAR
STARTCHAR 3030
ENCODING 12336
SWIDTH 960 0
DWIDTH 14 0
BBX 18 14 -2 -2
BITMAP
008000
008F80
008880
011100
0FD100
015F00
02A200
02A200
04A200
057C00
094000
110200
210400
40FC00
ENDCHAR
STARTCHAR 3031
ENCODING 12337
SWIDTH 960 0
DWIDTH 14 0
BBX 18 14 -2 -2
BITMAP
004400
07FFC0
005400
01FC00
004400
0FFF80
020800
03F800
001000
07F800
042000
3FFE00
004000
004000
ENDCHAR
STARTCHAR 3032
ENCODING 12338
SWIDTH 960 0
DWIDTH 14 0
BBX 18 14 -2 -2
BITMAP
004400
004400
07FFC0
008800
07FF00
000000
07FC00
040400
040400
0FF800
080000
100000
200000
400000
ENDCHAR
STARTCHAR 3033
ENCODING 12339
SWIDTH 960 0
DWIDTH 14 0
BBX 18 14 -2 -2
BITMAP
008200
008300
03EC80
04B680
0FC400
057F80
0F9400
0AA600
0FD100
020800
193200
190C00
283000
41C000
ENDCHAR
STARTCHAR 3034
ENCODING 12340
SWIDTH 960 0
DWIDTH 14 0
BBX 18 14 -2 -2
BITMAP
008200
008200
00BFC0
0FD100
010900
038A00
06FF00
068800
0A0800
14FE00
241000
041000
082000
082000
ENDCHAR
STARTCHAR 3035
ENCODING 12341
SWIDTH 960 0
DWIDTH 14 0
BBX 18 14 -2 -2
BITMAP
000000
01FFC0
010800
021000
021000
021000
05FE00
042000
082000
084000
104000
204000
4FFC00
000000
ENDCHAR
STARTCHAR 3036
ENCODING 12342
SWIDTH 960 0
DWIDTH 14 0
BBX 18 14 -2 -2
BITMAP
008200
008200
07E500
011900
07EA80
044600
0FA400
089400
0F9400
040E00
3FF800
040800
081000
081000
ENDCHAR
STARTCHAR 3037
ENCODING 12343
SWIDTH 960 0
DWIDTH 14 0
BBX 18 14 -2 -2
BITMAP
010000
013F00
011100
0FA200
022400
023F00
046200
066200
1D2400
092800
091000
0A6800
158800
3E0400
ENDCHAR
STARTCHAR 3038
ENCODING 12344
SWIDTH 960 0
DWIDTH 14 0
BBX 18 14 -2 -2
BITMAP
001000
001000
07FFC0
090080
090080
01DF00
02A200
04A200
1B2400
215800
024000
0C4200
104400
603C00
ENDCHAR
STARTCHAR 3039
ENCODING 12345
SWIDTH 960 0
DWIDTH 14 0
BBX 18 14 -2 -2
BITMAP
008000
008F80
008880
011100
0FD100
025F00
04A200
04A200
0F3E00
124400
034400
044400
1BFC00
600000
ENDCHAR
STARTCHAR 303a
ENCODING 12346
SWIDTH 960 0
DWIDTH 14 0
BBX 18 14 -2 -2
BITMAP
008200
008200
008200
07C400
057F80
055000
0AA000
0FA000
0A2000
064000
054000
0FC000
714000
003800
ENDCHAR
STARTCHAR 303b
ENCODING 12347
SWIDTH 960 0
DWIDTH 14 0
BBX 18 14 -2 -2
BITMAP
008200
008200
034200
054600
090900
0FF300
08D900
0F8000
08BE00
1F4400
144400
164400
3AF800
620000
ENDCHAR
STARTCHAR 303c
ENCODING 12348
SWIDTH 960 0
DWIDTH 14 0
BBX 18 14 -2 -2
BITMAP
011000
011000
025000
0CBF00
034100
067D00
0A4A00
1F7A00
0A4A00
0C9400
1AF400
3A0400
500800
103000
ENDCHAR
STARTCHAR 303d
ENCODING 12349
SWIDTH 960 0
DWIDTH 14 0
BBX 18 14 -2 -2
BITMAP
010400
010400
025F80
0A8800
037F80
063800
0A4900
1FA700
083C00
2CC800
2B5000
2A6000
519000
160C00
ENDCHAR
STARTCHAR 303e
ENCODING 12350
SWIDTH 960 0
DWIDTH 14 0
BBX 18 14 -2 -2
BITMAP
008200
008200
03E200
048780
0FC400
054400
0F8800
0ABE00
0FA200
024400
194400
194400
28F800
400000
ENDCHAR
STARTCHAR 303f
ENCODING 12351
SWIDTH 960 0
DWIDTH 14 0
BBX 18 14 -2 -2
BITMAP
000900
000880
000880
0FFF80
001000
03D100
049200
049200
079400
081800
019200
0E2A00
71CC00
060400
ENDCHAR
STARTCHAR 3040
ENCODING 12352
SWIDTH 960 0
DWIDTH 14 0
BBX 18 14 -2 -2
BITMAP
000000
07FFC0
002800
03FE00
025200
025200
07FC00
024800
015000
3FFE00
01C000
0EB000
710C00
010000
ENDCHAR
STARTCHAR 3041
ENCODING 12353
SWIDTH 960 0
DWIDTH 14 0
BBX 18 14 -2 -2
BITMAP
010400
010400
010C00
0F9400
012200
027F00
048100
0F0000
157C00
098800
088800
088800
11F000
100000
ENDCHAR
STARTCHAR 3042
ENCODING 12354
SWIDTH 960 0
DWIDTH 14 0
BBX 18 14 -2 -2
BITMAP
001000
001000
07FFC0
084080
084080
004000
1FFF00
011000
011000
03A000
046000
019000
061000
380800
ENDCHAR
STARTCHAR 3043
ENCODING 12355
SWIDTH 960 0
DWIDTH 14 0
BBX 18 14 -2 -2
BITMAP
000800
000800
01FFC0
022000
03FF80
02E400
052400
07FF00
092400
0BF800
124800
23F800
408400
007C00
ENDCHAR
STARTCHAR 3044
ENCODING 12356
SWIDTH 960 0
DWIDTH 14 0
BBX 18 14 -2 -2
BITMAP
010400
010400
017FC0
0F8080
028880
020800
05FF00
062400
1C2400
084800
08B000
083800
10C800
370400
ENDCHAR
STARTCHAR 3045
ENCODING 12357
SWIDTH 960 0
DWIDTH 14 0
BBX 18 14 -2 -2
BITMAP
000400
000400
07BF80
092200
091400
09FF80
1E0000
127C00
124400
24F800
248800
3C8800
01F000
000000
ENDCHAR
STARTCHAR 3046
ENCODING 12358
SWIDTH 960 0
DWIDTH 14 0
BBX 18 14 -2 -2
BITMAP
001000
001000
07FFC0
084080
0BFE80
009800
03E000
00D800
074400
3FFE00
01C000
0EB000
710C00
010000
ENDCHAR
STARTCHAR 3047
ENCODING 12359
SWIDTH 960 0
DWIDTH 14 0
BBX 18 14 -2 -2
BITMAP
000000
03EF80
022880
07DF00
07DF00
042100
0BFA00
08A200
0FFE00
122400
13E400
122400
27C800
201800
ENDCHAR
STARTCHAR 3048
ENCODING 12360
SWIDTH 960 0
DWIDTH 14 0
BBX 18 14 -2 -2
BITMAP
014200
014200
07FFC0
02A080
03A480
010400
0FFF00
0A9200
0F9400
043400
3F4800
043400
084400
098400
ENDCHAR
STARTCHAR 3049
ENCODING 12361
SWIDTH 960 0
DWIDTH 14 0
BBX 18 14 -2 -2
BITMAP
001000
001000
07FFC0
007000
00A800
032600
1C4100
004000
07FC00
080800
080800
080800
1FF000
000000
ENDCHAR
STARTCHAR 304a
ENCODING 12362
SWIDTH 960 0
DWIDTH 14 0
BBX 18 14 -2 -2
BITMAP
010100
010100
012100
022200
021200
021200
040400
040400
040400
080800
0B1400
1C6400
618400
060400
ENDCHAR
STARTCHAR 304b
ENCODING 12363
SWIDTH 960 0
DWIDTH 14 0
BBX 18 14 -2 -2
BITMAP
008000
00BF80
010480
010900
02FF80
0E0900
141200
04FE00
042000
082000
084000
088000
110000
120000
ENDCHAR
STARTCHAR 304c
ENCODING 12364
SWIDTH 960 0
DWIDTH 14 0
BBX 18 14 -2 -2
BITMAP
008800
008800
010800
021000
03FF80
0E0200
148400
044400
044800
088800
089000
086000
1FBC00
100000
ENDCHAR
STARTCHAR 304d
ENCODING 12365
SWIDTH 960 0
DWIDTH 14 0
BBX 18 14 -2 -2
BITMAP
008400
008400
008400
01FF80
021000
0E3100
145200
04D400
055800
089000
088800
08E800
118800
160400
ENDCHAR
STARTCHAR 304e
ENCODING 12366
SWIDTH 960 0
DWIDTH 14 0
BBX 18 14 -2 -2
BITMAP
008400
00BF00
008900
01FF80
020000
0E7E00
148400
04FC00
040800
09FC00
091000
0FFE00
102000
102000
ENDCHAR
STARTCHAR 304f
ENCODING 12367
SWIDTH 960 0
DWIDTH 14 0
BBX 18 14 -2 -2
BITMAP
000000
03FF80
020080
044900
044900
05FD00
089200
089200
0FFE00
112400
122400
1C2400
37F800
000000
ENDCHAR
STARTCHAR 3050
ENCODING 12368
SWIDTH 960 0
DWIDTH 14 0
BBX 18 14 -2 -2
BITMAP
001000
001000
07FFC0
002000
07FE00
002200
0FFC00
084000
0FFF00
118200
014200
062C00
183000
600C00
ENDCHAR
STARTCHAR 3051
ENCODING 12369
SWIDTH 960 0
DWIDTH 14 0
BBX 18 14 -2 -2
BITMAP
000300
01FC00
001000
0FFF80
007000
03AC00
1C4300
008000
1FFF00
022000
07A000
08E000
031000
3C0800
ENDCHAR
STARTCHAR 3052
ENCODING 12370
SWIDTH 960 0
DWIDTH 14 0
BBX 18 14 -2 -2
BITMAP
000500
000480
01FFC0
020800
03F900
024A00
07F200
053400
055C00
0F5800
089200
13AA00
2C8C00
400400
ENDCHAR
STARTCHAR 3053
ENCODING 12371
SWIDTH 960 0
DWIDTH 14 0
BBX 18 14 -2 -2
BITMAP
000080
03F080
021080
07D100
040F80
07C100
081200
0FCA00
090A00
170400
168400
3A8400
440800
0C1800
ENDCHAR
STARTCHAR 3054
ENCODING 12372
SWIDTH 960 0
DWIDTH 14 0
BBX 18 14 -2 -2
BITMAP
010900
010900
011200
033F80
06E400
06A400
0C7E00
144800
044800
08FC00
089000
089000
11FC00
100000
ENDCHAR
STARTCHAR 3055
ENCODING 12373
SWIDTH 960 0
DWIDTH 14 0
BBX 18 14 -2 -2
BITMAP
001000
03FF80
004400
0FFF80
000000
01FC00
020800
03F800
020800
07F000
128400
224400
422400
01E000
ENDCHAR
STARTCHAR 3056
ENCODING 12374
SWIDTH 960 0
DWIDTH 14 0
BBX 18 14 -2 -2
BITMAP
000100
03F100
021100
07FF80
05D200
041200
0FD400
158400
198400
269800
024400
125400
222400
41E000
ENDCHAR
STARTCHAR 3057
ENCODING 12375
SWIDTH 960 0
DWIDTH 14 0
BBX 18 14 -2 -2
BITMAP
000000
00FE00
008200
01FC00
010400
01FC00
008000
01FE00
0E4A00
312400
064400
198800
061000
00E000
ENDCHAR
STARTCHAR 3058
ENCODING 12376
SWIDTH 960 0
DWIDTH 14 0
BBX 18 14 -2 -2
BITMAP
008200
008200
00BFC0
0FCC00
010A00
03B100
06DF00
068200
0AFA00
149400
24F400
040400
080800
081800
ENDCHAR
STARTCHAR 3059
ENCODING 12377
SWIDTH 960 0
DWIDTH 14 0
BBX 18 14 -2 -2
BITMAP
011000
009000
009000
07FC00
004400
005800
00EC00
010400
03FF00
040200
0AA200
3B6200
4AA400
081800
ENDCHAR
STARTCHAR 305a
ENCODING 12378
SWIDTH 960 0
DWIDTH 14 0
BBX 18 14 -2 -2
BITMAP
000000
01FF00
011100
03FE00
022200
03FE00
000000
1FFF00
024400
044800
045000
07A000
0C1000
700C00
ENDCHAR
STARTCHAR 305b
ENCODING 12379
SWIDTH 960 0
DWIDTH 14 0
BBX 18 14 -2 -2
BITMAP
000000
01FF00
011100
03FE00
022200
03FE00
011000
0FFE00
011000
022000
3FFE00
032000
0C1000
300800
ENDCHAR
STARTCHAR 305c
ENCODING 12380
SWIDTH 960 0
DWIDTH 14 0
BBX 18 14 -2 -2
BITMAP
002400
00C780
039900
012A00
010400
0FD800
022800
070F00
0F3100
155200
248C00
041000
086000
0B8000
ENDCHAR
STARTCHAR 305d
ENCODING 12381
SWIDTH 960 0
DWIDTH 14 0
BBX 18 14 -2 -2
BITMAP
008480
008480
012900
0D3F80
029200
031200
053E00
1FA400
052400
167C00
154800
254800
48FC00
080000
ENDCHAR
STARTCHAR 305e
ENCODING 12382
SWIDTH 960 0
DWIDTH 14 0
BBX 18 14 -2 -2
BITMAP
008200
009F80
012480
0D7F80
028000
039F00
04A200
1FBE00
040400
167C00
154800
25FE00
481000
081000
ENDCHAR
STARTCHAR 305f
ENCODING 12383
SWIDTH 960 0
DWIDTH 14 0
BBX 18 14 -2 -2
BITMAP
000000
03FF80
021080
07FF00
042100
07FF00
000000
07FC00
040400
0FF800
080800
0FF800
101000
103000
ENDCHAR
STARTCHAR 3060
ENCODING 12384
SWIDTH 960 0
DWIDTH 14 0
BBX 18 14 -2 -2
BITMAP
004400
07FFC0
004600
03F800
002000
0FFF80
015000
064C00
188300
1FFC00
022000
07C000
032000
3C1000
ENDCHAR
STARTCHAR 3061
ENCODING 12385
SWIDTH 960 0
DWIDTH 14 0
BBX 18 14 -2 -2
BITMAP
001000
001000
001000
0FFF80
002000
006100
00A200
072400
193800
022000
021000
03C800
060800
380400
ENDCHAR
STARTCHAR 3062
ENCODING 12386
SWIDTH 960 0
DWIDTH 14 0
BBX 18 14 -2 -2
BITMAP
000000
03DFC0
001240
0FFF80
002480
07BF80
000000
0F3E00
002200
1E7C00
124400
127C00
3C8800
009800
ENDCHAR
STARTCHAR 3063
ENCODING 12387
SWIDTH 960 0
DWIDTH 14 0
BBX 18 14 -2 -2
BITMAP
000400
023F00
020900
02FF80
003E00
002200
1C7C00
040800
047E00
089000
0BFE00
1C1000
222000
41FC00
ENDCHAR
STARTCHAR 3064
ENCODING 12388
SWIDTH 960 0
DWIDTH 14 0
BBX 18 14 -2 -2
BITMAP
000400
023F00
022500
027E00
01FF80
004200
1CFC00
048400
04FC00
090800
09F800
1D8800
260800
41FC00
ENDCHAR
STARTCHAR 3065
ENCODING 12389
SWIDTH 960 0
DWIDTH 14 0
BBX 18 14 -2 -2
BITMAP
000000
03FF80
022000
044000
04FE00
051000
0A2000
0FFE00
085000
109000
110800
160800
200000
3FFC00
ENDCHAR
STARTCHAR 3066
ENCODING 12390
SWIDTH 960 0
DWIDTH 14 0
BBX 18 14 -2 -2
BITMAP
004400
004400
004400
008800
07FF00
008800
011000
011000
1FFF00
022000
042000
082000
104000
204000
ENDCHAR
STARTCHAR 3067
ENCODING 12391
SWIDTH 960 0
DWIDTH 14 0
BBX 18 14 -2 -2
BITMAP
001000
001000
07FFC0
002000
004800
039800
012400
00C800
011000
066000
089000
070800
180800
600800
ENDCHAR
STARTCHAR 3068
ENCODING 12392
SWIDTH 960 0
DWIDTH 14 0
BBX 18 14 -2 -2
BITMAP
000400
010500
010480
02FF80
020800
0FF900
04B200
04AA00
04EC00
0B1400
0C4A00
339A00
0C4C00
008400
ENDCHAR
STARTCHAR 3069
ENCODING 12393
SWIDTH 960 0
DWIDTH 14 0
BBX 18 14 -2 -2
BITMAP
001000
001000
07FFC0
004400
008E00
07F100
03F800
020800
03F800
041000
07F000
041000
082000
086000
ENDCHAR
STARTCHAR 306a
ENCODING 12394
SWIDTH 960 0
DWIDTH 14 0
BBX 18 14 -2 -2
BITMAP
004000
004780
07FC80
010900
010A00
03EC00
045400
0FD200
145200
0FA200
08B200
08AC00
114000
134000
ENDCHAR
STARTCHAR 306b
ENCODING 12395
SWIDTH 960 0
DWIDTH 14 0
BBX 18 14 -2 -2
BITMAP
001500
07D500
012680
02DB00
022A00
06FD00
0B5D00
1A1400
0AFF00
151400
1D9400
025A00
042C00
08C400
ENDCHAR
STARTCHAR 306c
ENCODING 12396
SWIDTH 960 0
DWIDTH 14 0
BBX 18 14 -2 -2
BITMAP
000000
000000
000000
000000
000000
000000
1FFF00
000000
000000
000000
000000
000000
000000
000000
ENDCHAR
STARTCHAR 306d
ENCODING 12397
SWIDTH 960 0
DWIDTH 14 0
BBX 18 14 -2 -2
BITMAP
001000
001000
07FFC0
002000
03FE00
000000
1FFF00
110100
113900
03C000
020000
020400
020800
01F800
ENDCHAR
STARTCHAR 306e
ENCODING 12398
SWIDTH 960 0
DWIDTH 14 0
BBX 18 14 -2 -2
BITMAP
024100
012100
012200
00FF80
084400
088400
090400
03FE00
055500
0AA800
12A800
12A800
3FFC00
400000
ENDCHAR
STARTCHAR 306f
ENCODING 12399
SWIDTH 960 0
DWIDTH 14 0
BBX 18 14 -2 -2
BITMAP
000800
020F00
021600
026800
00FF00
004900
1C9200
04FE00
043000
086000
08A200
1D1E00
250000
40FC00
ENDCHAR
STARTCHAR 3070
ENCODING 12400
SWIDTH 960 0
DWIDTH 14 0
BBX 18 14 -2 -2
BITMAP
002180
00FE40
03A480
012500
012600
0F8000
065E00
075200
0BD200
15BC00
24A400
04A400
097800
090000
ENDCHAR
STARTCHAR 3071
ENCODING 12401
SWIDTH 960 0
DWIDTH 14 0
BBX 18 14 -2 -2
BITMAP
004400
004400
07FFC0
008800
00A800
042000
047F00
045200
009400
032000
0C5000
318800
060800
180400
ENDCHAR
STARTCHAR 3072
ENCODING 12402
SWIDTH 960 0
DWIDTH 14 0
BBX 18 14 -2 -2
BITMAP
004400
004400
07FFC0
008800
000000
03FE00
004000
004000
1FFF00
008000
008000
008000
010000
030000
ENDCHAR
STARTCHAR 3073
ENCODING 12403
SWIDTH 960 0
DWIDTH 14 0
BBX 18 14 -2 -2
BITMAP
008000
009F80
03E480
048900
0FFF00
056400
0FFE00
0A9200
0FDA00
026C00
196C00
19B400
284800
41B000
ENDCHAR
STARTCHAR 3074
ENCODING 12404
SWIDTH 960 0
DWIDTH 14 0
BBX 18 14 -2 -2
BITMAP
002000
002400
004300
018D00
0FF080
009000
012000
012000
022000
044000
084000
104200
204400
403C00
ENDCHAR
STARTCHAR 3075
ENCODING 12405
SWIDTH 960 0
DWIDTH 14 0
BBX 18 14 -2 -2
BITMAP
001000
006000
038F80
041100
041100
07D100
082200
082200
082200
1F4400
107800
004000
008000
008000
ENDCHAR
STARTCHAR 3076
ENCODING 12406
SWIDTH 960 0
DWIDTH 14 0
BBX 18 14 -2 -2
BITMAP
000000
003F80
07A480
094900
094900
097F00
129200
129200
12AA00
254C00
3D8C00
010400
03F800
000000
ENDCHAR
STARTCHAR 3077
ENCODING 12407
SWIDTH 960 0
DWIDTH 14 0
BBX 18 14 -2 -2
BITMAP
000000
00FE00
008200
01FC00
000000
03FE00
040400
07FC00
040400
0FF800
080800
0FF800
066000
381800
ENDCHAR
STARTCHAR 3078
ENCODING 12408
SWIDTH 960 0
DWIDTH 14 0
BBX 18 14 -2 -2
BITMAP
000000
07FF80
042080
084100
084100
0FFF00
108200
108200
114200
264400
283400
200400
400800
7FF800
ENDCHAR
STARTCHAR 3079
ENCODING 12409
SWIDTH 960 0
DWIDTH 14 0
BBX 18 14 -2 -2
BITMAP
010000
011F80
011480
022900
0FA900
04BF00
095200
095200
1E7A00
24CC00
06CC00
0A8400
31F800
400000
ENDCHAR
STARTCHAR 307a
ENCODING 12410
SWIDTH 960 0
DWIDTH 14 0
BBX 18 14 -2 -2
BITMAP
000100
07F100
001100
002200
07E200
040200
080400
0FC400
004400
008800
008800
010800
021000
1C1000
ENDCHAR
STARTCHAR 307b
ENCODING 12411
SWIDTH 960 0
DWIDTH 14 0
BBX 18 14 -2 -2
BITMAP
008400
008400
01C400
034800
053F80
0FF900
08CA00
0F8800
088800
1F1000
142800
164800
3B0800
620400
ENDCHAR
STARTCHAR 307c
ENCODING 12412
SWIDTH 960 0
DWIDTH 14 0
BBX 18 14 -2 -2
BITMAP
0100C0
008740
00F880
089100
044A00
044F00
00F000
041000
081000
09FC00
102000
202000
2FFC00
400000
ENDCHAR
STARTCHAR 307d
ENCODING 12413
SWIDTH 960 0
DWIDTH 14 0
BBX 18 14 -2 -2
BITMAP
011100
011500
01E900
025200
022A00
03FE00
040C00
05F400
051400
0BE800
0A2800
13EA00
244C00
44C400
ENDCHAR
STARTCHAR 307e
ENCODING 12414
SWIDTH 960 0
DWIDTH 14 0
BBX 18 14 -2 -2
BITMAP
004400
07FFC0
004C00
079400
04FE00
078180
0C7C00
0A0800
0A7E00
120000
13FE00
1CD000
213000
23C800
ENDCHAR
STARTCHAR 3121
ENCODING 12577
SWIDTH 960 0
DWIDTH 14 0
BBX 18 14 -2 -2
BITMAP
000400
03C400
02FFC0
054080
064080
05FF00
090000
09FF00
094800
125000
1C9000
111200
221400
240C00
ENDCHAR
STARTCHAR 3122
ENCODING 12578
SWIDTH 960 0
DWIDTH 14 0
BBX 18 14 -2 -2
BITMAP
000400
03C400
028A00
053200
065D00
050080
097C00
090800
097C00
120000
1FFE00
10D000
213000
27C800
ENDCHAR
STARTCHAR 3123
ENCODING 12579
SWIDTH 960 0
DWIDTH 14 0
BBX 18 14 -2 -2
BITMAP
000180
03FE40
02E480
052480
063F00
050100
097E00
090200
097E00
122000
1D5400
125400
245400
203000
ENDCHAR
STARTCHAR 3124
ENCODING 12580
SWIDTH 960 0
DWIDTH 14 0
BBX 18 14 -2 -2
BITMAP
008000
008F80
07F880
045F00
028000
0FFF00
002200
0F3E00
092200
1E7C00
124400
127C00
3AC800
010400
ENDCHAR
STARTCHAR 3125
ENCODING 12581
SWIDTH 960 0
DWIDTH 14 0
BBX 18 14 -2 -2
BITMAP
000100
000100
078100
090200
09FF80
090200
124400
122400
122400
240800
3C0800
000800
001000
003000
ENDCHAR
STARTCHAR 3126
ENCODING 12582
SWIDTH 960 0
DWIDTH 14 0
BBX 18 14 -2 -2
BITMAP
002000
002000
002000
0FFF80
008000
010000
020000
03FC00
060400
0C0800
140800
240800
0FF000
000000
ENDCHAR
STARTCHAR 3127
ENCODING 12583
SWIDTH 960 0
DWIDTH 14 0
BBX 18 14 -2 -2
BITMAP
001000
001000
07FFC0
080080
080080
03FE00
004000
004000
1FFF00
008000
008000
008000
010000
030000
ENDCHAR
STARTCHAR 3128
ENCODING 12584
SWIDTH 960 0
DWIDTH 14 0
BBX 18 14 -2 -2
BITMAP
001000
002000
00FE00
010400
010400
01FC00
020000
03FF00
020000
07FC00
14A400
145400
240800
403000
ENDCHAR
STARTCHAR 3129
ENCODING 12585
SWIDTH 960 0
DWIDTH 14 0
BBX 18 14 -2 -2
BITMAP
000000
07FF80
002080
004100
045100
044900
049200
008200
038600
0D3400
31C400
010400
020800
061800
ENDCHAR
STARTCHAR 312a
ENCODING 12586
SWIDTH 960 0
DWIDTH 14 0
BBX 18 14 -2 -2
BITMAP
000000
023F80
020400
020800
000800
00FF80
1C1000
041000
041000
082000
082000
1C6000
220000
41FC00
ENDCHAR
STARTCHAR 312b
ENCODING 12587
SWIDTH 960 0
DWIDTH 14 0
BBX 18 14 -2 -2
BITMAP
000000
07FFC0
001000
002000
07FF00
052900
094A00
094A00
084200
14A400
129400
129400
210800
211800
ENDCHAR
STARTCHAR 312c
ENCODING 12588
SWIDTH 960 0
DWIDTH 14 0
BBX 18 14 -2 -2
BITMAP
002000
00C000
030F80
045100
045100
045100
08A200
08A200
08A200
1F4400
327800
044000
088000
108000
ENDCHAR
STARTCHAR 312d
ENCODING 12589
SWIDTH 960 0
DWIDTH 14 0
BBX 18 14 -2 -2
BITMAP
024200
014400
018F80
0FD100
015F00
07D100
0A3E00
0FBF00
0EA000
0D7E00
172A00
25D600
096400
0A1800
ENDCHAR
STARTCHAR 312e
ENCODING 12590
SWIDTH 960 0
DWIDTH 14 0
BBX 18 14 -2 -2
BITMAP
001000
07FFC0
044880
088F00
033E00
012200
0FFC00
024400
1FFC00
048800
0AF800
12D200
211400
460C00
ENDCHAR
STARTCHAR 312f
ENCODING 12591
SWIDTH 960 0
DWIDTH 14 0
BBX 18 14 -2 -2
BITMAP
000000
01FE00
002200
004400
004400
004400
0FFE00
010800
010800
021000
021000
021000
7FFC00
000000
ENDCHAR
STARTCHAR 3130
ENCODING 12592
SWIDTH 960 0
DWIDTH 14 0
BBX 18 14 -2 -2
BITMAP
000900
07E900
010A00
021F80
022400
07E400
097E00
194800
094800
12FC00
129000
1E9000
01FC00
000000
ENDCHAR
STARTCHAR 3131
ENCODING 12593
SWIDTH 960 0
DWIDTH 14 0
BBX 18 14 -2 -2
BITMAP
001000
006000
038F80
040100
040100
040100
080200
0FBE00
080200
100400
100400
100400
3FF800
000000
ENDCHAR
STARTCHAR 3132
ENCODING 12594
SWIDTH 960 0
DWIDTH 14 0
BBX 18 14 -2 -2
BITMAP
010000
00BF00
00A100
085E00
045200
045200
00FE00
050200
097A00
0A9400
129400
22F400
240800
441800
ENDCHAR
STARTCHAR 3133
ENCODING 12595
SWIDTH 960 0
DWIDTH 14 0
BBX 18 14 -2 -2
BITMAP
000800
000F80
070800
0AFF80
0A9F00
0AF100
151E00
152800
16AA00
3AD400
04D800
0C5000
13FC00
000000
ENDCHAR
STARTCHAR 3134
ENCODING 12596
SWIDTH 960 0
DWIDTH 14 0
BBX 18 14 -2 -2
BITMAP
000000
001F80
03D080
04A100
04BF00
04A100
094200
097E00
094200
128400
1EFC00
00C800
030800
0C0400
ENDCHAR
STARTCHAR 3135
ENCODING 12597
SWIDTH 960 0
DWIDTH 14 0
BBX 18 14 -2 -2
BITMAP
012900
07DFC0
07AB80
0ABA80
03FE00
025200
07FC00
0F8400
08FF00
1F4800
1F2800
122800
3E1000
603000
ENDCHAR
STARTCHAR 3136
ENCODING 12598
SWIDTH 960 0
DWIDTH 14 0
BBX 18 14 -2 -2
BITMAP
004400
07FFC0
004400
07E100
042100
07FF80
080200
0B9200
081200
1F9400
170400
3F0400
550800
0C1800
ENDCHAR
STARTCHAR 3137
ENCODING 12599
SWIDTH 960 0
DWIDTH 14 0
BBX 18 14 -2 -2
BITMAP
008000
008F80
03E880
049F00
0FD100
057F00
0FD500
0AFF00
0F8000
027C00
192800
193000
28D000
430C00
ENDCHAR
STARTCHAR 3138
ENCODING 12600
SWIDTH 960 0
DWIDTH 14 0
BBX 18 14 -2 -2
BITMAP
010400
010480
011F80
020A00
0F8A00
04FF80
090800
093000
1E2E00
24F000
074000
0A4200
304400
403C00
ENDCHAR
STARTCHAR 3139
ENCODING 12601
SWIDTH 960 0
DWIDTH 14 0
BBX 18 14 -2 -2
BITMAP
000000
03FFC0
020000
05EF00
052A00
05EA00
0A5400
0BFF00
0A1400
151800
14A800
27AA00
4C8C00
310400
ENDCHAR
STARTCHAR 313a
ENCODING 12602
SWIDTH 960 0
DWIDTH 14 0
BBX 18 14 -2 -2
BITMAP
010500
008480
00FFC0
080800
047F00
044900
009200
02FE00
049200
052400
09FC00
112400
124800
225800
ENDCHAR
STARTCHAR 313b
ENCODING 12603
SWIDTH 960 0
DWIDTH 14 0
BBX 18 14 -2 -2
BITMAP
000100
000E00
00F200
012400
012400
012400
024800
024800
044800
04C800
08A800
19F800
262800
400400
ENDCHAR
STARTCHAR 313c
ENCODING 12604
SWIDTH 960 0
DWIDTH 14 0
BBX 18 14 -2 -2
BITMAP
000000
03EF80
022880
07DF00
045100
07DF00
080200
0BFA00
084200
13E400
108400
17F400
200800
201800
ENDCHAR
STARTCHAR 313d
ENCODING 12605
SWIDTH 960 0
DWIDTH 14 0
BBX 18 14 -2 -2
BITMAP
001100
000A00
07FFC0
091400
097F00
097500
12CE00
12FE00
12FE00
240800
3FFE00
008800
009000
003000
ENDCHAR
STARTCHAR 313e
ENCODING 12606
SWIDTH 960 0
DWIDTH 14 0
BBX 18 14 -2 -2
BITMAP
000000
01FF00
000000
000000
000000
0FFF80
004000
004000
009000
009000
010800
067800
3B8800
000800
ENDCHAR
STARTCHAR 313f
ENCODING 12607
SWIDTH 960 0
DWIDTH 14 0
BBX 18 14 -2 -2
BITMAP
000000
027FC0
024440
03FE80
000800
007F00
1C9200
04FE00
049200
09FC00
082000
1BFE00
2C4000
43FC00
ENDCHAR
STARTCHAR 3140
ENCODING 12608
SWIDTH 960 0
DWIDTH 14 0
BBX 18 14 -2 -2
BITMAP
000000
01FF00
001000
0FFF80
082080
0F2F00
074E00
000000
07FC00
000000
3FFE00
031000
04F000
3F0800
ENDCHAR
STARTCHAR 3141
ENCODING 12609
SWIDTH 960 0
DWIDTH 14 0
BBX 18 14 -2 -2
BITMAP
004400
004400
07FFC0
008800
010300
027C00
021000
041000
1DFF00
282000
082000
082000
13F800
100000
ENDCHAR
STARTCHAR 3142
ENCODING 12610
SWIDTH 960 0
DWIDTH 14 0
BBX 18 14 -2 -2
BITMAP
008000
00DFC0
036480
054900
090F00
0FC900
089200
0F9E00
089200
1F2600
123C00
17C400
3A0800
600800
ENDCHAR
STARTCHAR 3143
ENCODING 12611
SWIDTH 960 0
DWIDTH 14 0
BBX 18 14 -2 -2
BITMAP
00E000
008F80
07F080
0BA900
0B4900
0DAA00
148C00
07CC00
1C8800
2F1800
092800
0F4800
128800
1F0400
ENDCHAR
STARTCHAR 3144
ENCODING 12612
SWIDTH 960 0
DWIDTH 14 0
BBX 18 14 -2 -2
BITMAP
012100
009200
07FFC0
080080
09FC80
010400
020800
03F800
008000
0FF800
080800
080800
101000
1FF000
ENDCHAR
STARTCHAR 3145
ENCODING 12613
SWIDTH 960 0
DWIDTH 14 0
BBX 18 14 -2 -2
BITMAP
000000
03EF80
022880
07DF00
045100
07DF00
08A200
0FBE00
055400
3FFE00
021000
07E000
01A000
3E1800
ENDCHAR
STARTCHAR 3146
ENCODING 12614
SWIDTH 960 0
DWIDTH 14 0
BBX 18 14 -2 -2
BITMAP
000100
01F100
011200
03E400
022900
03E200
010200
1FE400
044A00
0F8200
0A8400
128C00
249000
0C2000
ENDCHAR
STARTCHAR 3147
ENCODING 12615
SWIDTH 960 0
DWIDTH 14 0
BBX 18 14 -2 -2
BITMAP
000400
000400
078400
097F00
094900
094900
1E9200
13FF00
121000
243000
3C5000
018800
020800
0C0400
ENDCHAR
STARTCHAR 3148
ENCODING 12616
SWIDTH 960 0
DWIDTH 14 0
BBX 18 14 -2 -2
BITMAP
001000
01FF00
011100
022200
03FE00
022200
044400
07FE00
004C00
005000
006000
03A200
3C1400
000C00
ENDCHAR
STARTCHAR 3149
ENCODING 12617
SWIDTH 960 0
DWIDTH 14 0
BBX 18 14 -2 -2
BITMAP
012100
009100
009600
0FFB80
080080
082080
004000
1FFF00
01E000
02A000
0C9800
308600
010000
010000
ENDCHAR
STARTCHAR 314a
ENCODING 12618
SWIDTH 960 0
DWIDTH 14 0
BBX 18 14 -2 -2
BITMAP
003000
000800
000000
01E000
002100
003200
1FD400
015800
025000
049000
088800
308600
010000
030000
ENDCHAR
STARTCHAR 314b
ENCODING 12619
SWIDTH 960 0
DWIDTH 14 0
BBX 18 14 -2 -2
BITMAP
010C00
008200
008000
087800
040900
040A00
01FC00
043800
085800
08A800
112400
222200
204000
40C000
ENDCHAR
STARTCHAR 314c
ENCODING 12620
SWIDTH 960 0
DWIDTH 14 0
BBX 18 14 -2 -2
BITMAP
010400
008400
00BF80
084900
044900
047F00
009200
02FE00
041400
041800
081000
106A00
178C00
200400
ENDCHAR
STARTCHAR 314d
ENCODING 12621
SWIDTH 960 0
DWIDTH 14 0
BBX 18 14 -2 -2
BITMAP
001100
001100
07FFC0
022200
020800
027F00
1F9200
049200
05FF00
082000
0E3000
30C800
030800
0C0400
ENDCHAR
STARTCHAR 314e
ENCODING 12622
SWIDTH 960 0
DWIDTH 14 0
BBX 18 14 -2 -2
BITMAP
000000
01FC00
004400
008800
01FF00
03B100
04C200
08A200
131C00
07F800
094800
094800
7FFC00
000000
ENDCHAR
STARTCHAR 314f
ENCODING 12623
SWIDTH 960 0
DWIDTH 14 0
BBX 18 14 -2 -2
BITMAP
020000
025FC0
038600
044800
039F00
00D100
0F3E00
022200
1FBE00
0C4400
0E7C00
156800
688800
0B0400
ENDCHAR
STARTCHAR 3150
ENCODING 12624
SWIDTH 960 0
DWIDTH 14 0
BBX 18 14 -2 -2
BITMAP
020000
025FC0
038600
044800
03DF00
001100
0FBE00
002200
1FFE00
064400
157C00
256800
488800
1B0400
ENDCHAR
STARTCHAR 3151
ENCODING 12625
SWIDTH 960 0
DWIDTH 14 0
BBX 18 14 -2 -2
BITMAP
004400
004400
07FFC0
008800
002000
03FE00
044400
044400
044400
3FFE00
014000
062000
181000
600C00
ENDCHAR
STARTCHAR 3152
ENCODING 12626
SWIDTH 960 0
DWIDTH 14 0
BBX 18 14 -2 -2
BITMAP
011000
017B80
022800
0DF800
010F80
03F200
052400
0DE400
144400
0BC800
0A8800
0FE800
111000
113000
ENDCHAR
STARTCHAR 3153
ENCODING 12627
SWIDTH 960 0
DWIDTH 14 0
BBX 18 14 -2 -2
BITMAP
000400
03C200
000200
0FDC00
000500
078600
007A00
0F1C00
002C00
1E5400
129400
131200
3C2000
006000
ENDCHAR
STARTCHAR 3154
ENCODING 12628
SWIDTH 960 0
DWIDTH 14 0
BBX 18 14 -2 -2
BITMAP
008880
008480
014700
024D00
045100
0B9100
022200
1FBE00
022400
152800
0E4800
0C8A00
0F0C00
720400
ENDCHAR
STARTCHAR 3155
ENCODING 12629
SWIDTH 960 0
DWIDTH 14 0
BBX 18 14 -2 -2
BITMAP
010400
008400
00FFC0
082800
042F00
044900
009A00
05A600
0AE400
092800
111000
216800
228800
430400
ENDCHAR
STARTCHAR 3156
ENCODING 12630
SWIDTH 960 0
DWIDTH 14 0
BBX 18 14 -2 -2
BITMAP
000800
000800
00FFC0
090000
053C00
052480
024500
068700
1DFC00
248800
085000
106000
219000
4E0C00
ENDCHAR
STARTCHAR 3157
ENCODING 12631
SWIDTH 960 0
DWIDTH 14 0
BBX 18 14 -2 -2
BITMAP
008200
004200
004C00
0FF780
010400
020400
040400
07FC00
0CAA00
355200
055000
055000
7FFC00
000000
ENDCHAR
STARTCHAR 3158
ENCODING 12632
SWIDTH 960 0
DWIDTH 14 0
BBX 18 14 -2 -2
BITMAP
000000
03FF80
028880
07D100
051100
07DF00
0A2800
0FA800
00A800
154800
154800
278800
450800
1A0400
ENDCHAR
STARTCHAR 3159
ENCODING 12633
SWIDTH 960 0
DWIDTH 14 0
BBX 18 14 -2 -2
BITMAP
011100
010900
010E00
037B00
06C100
06C100
0CFE00
142800
044800
085000
089000
0B1200
141400
180C00
ENDCHAR
STARTCHAR 315a
ENCODING 12634
SWIDTH 960 0
DWIDTH 14 0
BBX 18 14 -2 -2
BITMAP
000000
03DF00
001100
0FFE00
002200
07BE00
002000
0F7E00
01CA00
1EE400
129400
127400
3C0800
003000
ENDCHAR
STARTCHAR 315b
ENCODING 12635
SWIDTH 960 0
DWIDTH 14 0
BBX 18 14 -2 -2
BITMAP
008200
008280
03C240
013F80
012400
0FE600
024A00
0A4C00
0BD400
14E600
1D9200
242200
220000
41FC00
ENDCHAR
STARTCHAR 315c
ENCODING 12636
SWIDTH 960 0
DWIDTH 14 0
BBX 18 14 -2 -2
BITMAP
000000
07CF80
044880
0F9F00
089100
0F9F00
121200
112200
13E200
242400
27E400
264400
486800
503800
ENDCHAR
STARTCHAR 315d
ENCODING 12637
SWIDTH 960 0
DWIDTH 14 0
BBX 18 14 -2 -2
BITMAP
008000
00BFC0
008400
0FFF00
012100
03BF00
06C200
06FE00
0A4200
14FC00
25C800
047000
09B000
0E0C00
ENDCHAR
STARTCHAR 315e
ENCODING 12638
SWIDTH 960 0
DWIDTH 14 0
BBX 18 14 -2 -2
BITMAP
000000
03FFC0
020000
05E500
052480
05E400
083F00
0BC800
0A4800
179000
14B800
17C800
298800
4B0400
ENDCHAR
STARTCHAR 315f
ENCODING 12639
SWIDTH 960 0
DWIDTH 14 0
BBX 18 14 -2 -2
BITMAP
000000
03FF80
021080
042100
042100
042100
084200
0FFE00
080200
100400
100400
100400
200800
201800
ENDCHAR
STARTCHAR 3160
ENCODING 12640
SWIDTH 960 0
DWIDTH 14 0
BBX 18 14 -2 -2
BITMAP
000000
03FF80
021080
05FD00
042100
07FF00
09F200
091200
09F200
11D400
16A400
109400
3FF800
000000
ENDCHAR
STARTCHAR 3161
ENCODING 12641
SWIDTH 960 0
DWIDTH 14 0
BBX 18 14 -2 -2
BITMAP
000000
013FC0
012000
025F00
0FD100
025F00
04A200
04BE00
078800
0DFE00
316800
013800
02C800
03FC00
ENDCHAR
STARTCHAR 3162
ENCODING 12642
SWIDTH 960 0
DWIDTH 14 0
BBX 18 14 -2 -2
BITMAP
001000
001000
07FFC0
005000
01AC00
0E2380
07FC00
044400
07FC00
088800
0FF800
008200
008400
007C00
ENDCHAR
STARTCHAR 3163
ENCODING 12643
SWIDTH 960 0
DWIDTH 14 0
BBX 18 14 -2 -2
BITMAP
001000
07FFC0
040040
09FC80
010400
01FC00
020800
03F800
004000
3FFE00
022000
06C000
034000
3C3000
ENDCHAR
STARTCHAR 3164
ENCODING 12644
SWIDTH 960 0
DWIDTH 14 0
BBX 18 14 -2 -2
BITMAP
000000
0781C0
00BE00
010400
020400
07A400
014E00
094800
094800
099000
0CFE00
1C0000
220000
41FC00
ENDCHAR
STARTCHAR 3165
ENCODING 12645
SWIDTH 960 0
DWIDTH 14 0
BBX 18 14 -2 -2
BITMAP
008000
008000
01FF80
023100
055100
09D600
011100
060F00
104000
0A4800
0A4400
121400
622400
01E000
ENDCHAR
STARTCHAR 3166
ENCODING 12646
SWIDTH 960 0
DWIDTH 14 0
BBX 18 14 -2 -2
BITMAP
010400
010400
017FC0
0F9400
022A00
024900
07FF00
049200
1CFE00
292400
09FC00
082000
102400
301C00
ENDCHAR
STARTCHAR 3167
ENCODING 12647
SWIDTH 960 0
DWIDTH 14 0
BBX 18 14 -2 -2
BITMAP
010080
010200
013D00
0FC900
022200
027F00
042000
07FF00
1C4000
08FC00
094800
0E3000
18F000
330C00
ENDCHAR
STARTCHAR 3168
ENCODING 12648
SWIDTH 960 0
DWIDTH 14 0
BBX 18 14 -2 -2
BITMAP
010E00
008200
009200
082200
042200
044200
008200
05FD00
088400
090800
110800
210800
23F000
400000
ENDCHAR
STARTCHAR 3169
ENCODING 12649
SWIDTH 960 0
DWIDTH 14 0
BBX 18 14 -2 -2
BITMAP
010400
008400
00FFC0
088080
05FF00
040800
00FE00
049200
08FE00
092400
11FC00
20C800
230800
4C0400
ENDCHAR
STARTCHAR 316a
ENCODING 12650
SWIDTH 960 0
DWIDTH 14 0
BBX 18 14 -2 -2
BITMAP
001100
009100
011200
022000
005800
018400
0E0200
004400
044800
089000
114000
062000
181000
600C00
ENDCHAR
STARTCHAR 316b
ENCODING 12651
SWIDTH 960 0
DWIDTH 14 0
BBX 18 14 -2 -2
BITMAP
008400
008400
00AF80
015100
056200
058400
0A4E00
125200
045200
06BC00
09A400
11A400
217800
410000
ENDCHAR
STARTCHAR 316c
ENCODING 12652
SWIDTH 960 0
DWIDTH 14 0
BBX 18 14 -2 -2
BITMAP
010000
017FC0
010A00
02FF00
06D500
075500
0CFE00
141000
0A1000
0BFC00
122000
202000
47FC00
000000
ENDCHAR
STARTCHAR 316d
ENCODING 12653
SWIDTH 960 0
DWIDTH 14 0
BBX 18 14 -2 -2
BITMAP
004400
004400
07FFC0
008800
01FC80
0F0700
02EC00
06A800
1AA900
05CE00
0A4800
122400
224400
400400
ENDCHAR
STARTCHAR 316e
ENCODING 12654
SWIDTH 960 0
DWIDTH 14 0
BBX 18 14 -2 -2
BITMAP
008400
04BF80
030400
02FF80
060000
0A3E00
024400
067C00
1A3400
279400
048800
088800
29C800
160400
ENDCHAR
STARTCHAR 316f
ENCODING 12655
SWIDTH 960 0
DWIDTH 14 0
BBX 18 14 -2 -2
BITMAP
010000
011F00
038100
0CBE00
030200
07FF80
091000
1F3900
04BA00
1C5800
1BB800
3AD400
512400
10C000
ENDCHAR
STARTCHAR 3170
ENCODING 12656
SWIDTH 960 0
DWIDTH 14 0
BBX 18 14 -2 -2
BITMAP
014200
07F200
055F80
0FF200
0AA400
0FFF00
002A00
1FEA00
0FBE00
114000
1F4000
124200
1E4400
603C00
ENDCHAR
STARTCHAR 3171
ENCODING 12657
SWIDTH 960 0
DWIDTH 14 0
BBX 18 14 -2 -2
BITMAP
004400
004400
07FFC0
008800
010000
011F00
03A200
04A200
192400
295800
064000
084200
104400
203C00
ENDCHAR
STARTCHAR 3172
ENCODING 12658
SWIDTH 960 0
DWIDTH 14 0
BBX 18 14 -2 -2
BITMAP
004400
07FFC0
004400
07FF00
042100
04F900
0FFE00
091200
09F200
11D400
172400
111400
3FF800
000000
ENDCHAR
STARTCHAR 3173
ENCODING 12659
SWIDTH 960 0
DWIDTH 14 0
BBX 18 14 -2 -2
BITMAP
000400
023F80
020400
02FF80
000000
007F00
1C8200
04FE00
042200
08E400
0F5800
1C4400
228000
41FC00
ENDCHAR
STARTCHAR 3174
ENCODING 12660
SWIDTH 960 0
DWIDTH 14 0
BBX 18 14 -2 -2
BITMAP
008700
008100
014900
025100
045100
0BE100
022100
1FBE00
022200
154400
0E4400
0C4400
0EF800
700000
ENDCHAR
STARTCHAR 3175
ENCODING 12661
SWIDTH 960 0
DWIDTH 14 0
BBX 18 14 -2 -2
BITMAP
008000
01FF80
076900
019600
031080
0C4F80
03F000
021000
03FE00
040000
07FC00
0CA400
352800
403000
ENDCHAR
STARTCHAR 3176
ENCODING 12662
SWIDTH 960 0
DWIDTH 14 0
BBX 18 14 -2 -2
BITMAP
001000
011000
013FC0
024000
0FFE00
02C200
047C00
040000
07FE00
0D5400
315400
015400
0FFC00
000000
ENDCHAR
STARTCHAR 3177
ENCODING 12663
SWIDTH 960 0
DWIDTH 14 0
BBX 18 14 -2 -2
BITMAP
008200
008200
008200
0FE600
010A00
013100
03D100
028800
048800
050000
092000
311000
421000
0C1000
ENDCHAR
STARTCHAR 3178
ENCODING 12664
SWIDTH 960 0
DWIDTH 14 0
BBX 18 14 -2 -2
BITMAP
010000
00BF80
008400
080800
04FF80
041000
002000
027E00
040200
040400
080400
100400
100800
207000
ENDCHAR
STARTCHAR 3179
ENCODING 12665
SWIDTH 960 0
DWIDTH 14 0
BBX 18 14 -2 -2
BITMAP
008000
02BF80
02A480
07C900
057F00
094900
029200
0FFE00
021000
05FC00
062400
1C4400
610800
063000
ENDCHAR
STARTCHAR 317a
ENCODING 12666
SWIDTH 960 0
DWIDTH 14 0
BBX 18 14 -2 -2
BITMAP
000000
03C780
024480
048900
048900
048900
091200
09F200
080200
100400
100400
100400
3FF800
000000
ENDCHAR
STARTCHAR 317b
ENCODING 12667
SWIDTH 960 0
DWIDTH 14 0
BBX 18 14 -2 -2
BITMAP
001000
001000
001000
03FE00
022200
022200
044400
044400
1FFF00
018000
014000
062000
181000
600C00
ENDCHAR
STARTCHAR 317c
ENCODING 12668
SWIDTH 960 0
DWIDTH 14 0
BBX 18 14 -2 -2
BITMAP
001000
002000
01FF00
032A00
02AA00
02B200
07FC00
04E400
075400
0C9800
3FFE00
034000
0C2000
301800
ENDCHAR
STARTCHAR 317d
ENCODING 12669
SWIDTH 960 0
DWIDTH 14 0
BBX 18 14 -2 -2
BITMAP
008800
008400
010400
06FF80
088800
010800
021000
06FE00
1A1000
242000
042000
042000
0FFC00
080000
ENDCHAR
STARTCHAR 317e
ENCODING 12670
SWIDTH 960 0
DWIDTH 14 0
BBX 18 14 -2 -2
BITMAP
000800
000800
01FFC0
021000
020800
022800
044800
054200
064200
0A8200
148200
248800
409000
007000
ENDCHAR
STARTCHAR 3221
ENCODING 12833
SWIDTH 960 0
DWIDTH 14 0
BBX 18 14 -2 -2
BITMAP
010000
013F80
012480
0FC900
027F00
024900
049200
07FE00
1C1000
082000
082000
082000
104000
304000
ENDCHAR
STARTCHAR 3222
ENCODING 12834
SWIDTH 960 0
DWIDTH 14 0
BBX 18 14 -2 -2
BITMAP
000000
07FFC0
044400
088800
088800
0F8800
11FE00
111000
111000
222000
3E2000
002000
07FC00
000000
ENDCHAR
STARTCHAR 3223
ENCODING 12835
SWIDTH 960 0
DWIDTH 14 0
BBX 18 14 -2 -2
BITMAP
010A00
010A00
017F80
0F9400
02FF80
020800
0EFE00
0D9200
0DFE00
192400
29FC00
08D000
111000
160800
ENDCHAR
STARTCHAR 3224
ENCODING 12836
SWIDTH 960 0
DWIDTH 14 0
BBX 18 14 -2 -2
BITMAP
000400
03F400
022400
044F80
065500
05E600
090C00
098800
0A8800
149000
18A800
10C800
3F0800
020400
ENDCHAR
STARTCHAR 3225
ENCODING 12837
SWIDTH 960 0
DWIDTH 14 0
BBX 18 14 -2 -2
BITMAP
000000
03F700
022500
044A00
064A80
05D280
096300
093E00
0B1200
151400
181800
103800
3EC800
030400
ENDCHAR
STARTCHAR 3226
ENCODING 12838
SWIDTH 960 0
DWIDTH 14 0
BBX 18 14 -2 -2
BITMAP
000000
03FF80
001000
002000
002000
002000
07FC00
004000
004000
008000
008000
008000
7FFC00
000000
ENDCHAR
STARTCHAR 3227
ENCODING 12839
SWIDTH 960 0
DWIDTH 14 0
BBX 18 14 -2 -2
BITMAP
005E00
004200
019100
0E3880
004C00
07F200
000000
1FFE00
08A200
092400
030C00
1D3400
638800
061800
ENDCHAR
STARTCHAR 3228
ENCODING 12840
SWIDTH 960 0
DWIDTH 14 0
BBX 18 14 -2 -2
BITMAP
010400
010800
013F80
0FEB00
015D00
037F00
05BA00
06D600
1F9200
2BFE00
082000
08D000
131000
1C0C00
ENDCHAR
STARTCHAR 3229
ENCODING 12841
SWIDTH 960 0
DWIDTH 14 0
BBX 18 14 -2 -2
BITMAP
012100
009200
07FFC0
084080
09FC80
010400
03F800
020800
03FF00
040000
07FC00
14A400
24E800
403000
ENDCHAR
STARTCHAR 322a
ENCODING 12842
SWIDTH 960 0
DWIDTH 14 0
BBX 18 14 -2 -2
BITMAP
000200
03F400
021F80
045100
045F00
069100
0ABE00
093F00
0B2000
157E00
182A00
10D600
3F6400
221800
ENDCHAR
STARTCHAR 322b
ENCODING 12843
SWIDTH 960 0
DWIDTH 14 0
BBX 18 14 -2 -2
BITMAP
004400
004400
03FF80
008800
0FFF80
002000
07FC00
044400
07FC00
088800
0FF800
062000
181000
600800
ENDCHAR
STARTCHAR 322c
ENCODING 12844
SWIDTH 960 0
DWIDTH 14 0
BBX 18 14 -2 -2
BITMAP
000000
03FF80
028480
048900
049100
07FF00
084200
0A4A00
0A4A00
149400
17F400
100400
200800
201800
ENDCHAR
STARTCHAR 322d
ENCODING 12845
SWIDTH 960 0
DWIDTH 14 0
BBX 18 14 -2 -2
BITMAP
010400
008400
008400
087F00
044900
044900
009200
029200
04FE00
052000
082000
102000
104000
204000
ENDCHAR
STARTCHAR 322e
ENCODING 12846
SWIDTH 960 0
DWIDTH 14 0
BBX 18 14 -2 -2
BITMAP
004400
004400
07FFC0
008800
008400
070500
012A00
062C00
194800
069000
0A2800
32C800
050800
1A0400
ENDCHAR
STARTCHAR 322f
ENCODING 12847
SWIDTH 960 0
DWIDTH 14 0
BBX 18 14 -2 -2
BITMAP
008400
00BF80
008A00
01FF80
020000
0E3E00
144400
047C00
044400
08F800
0AA400
0C9400
189400
107000
ENDCHAR
STARTCHAR 3230
ENCODING 12848
SWIDTH 960 0
DWIDTH 14 0
BBX 18 14 -2 -2
BITMAP
000000
01FF80
010080
03FF00
020000
03FF00
045000
048C00
0BF200
084000
13F800
304000
4FFC00
000000
ENDCHAR
STARTCHAR 3231
ENCODING 12849
SWIDTH 960 0
DWIDTH 14 0
BBX 18 14 -2 -2
BITMAP
010400
013F80
011100
02FF80
070000
073E00
0D4400
147C00
044400
08F800
0AA400
0C9400
189400
107000
ENDCHAR
STARTCHAR 3232
ENCODING 12850
SWIDTH 960 0
DWIDTH 14 0
BBX 18 14 -2 -2
BITMAP
000200
03FFC0
024900
04FF80
078000
04BF00
094200
0F7E00
094200
12FC00
125400
13D400
265400
4C3000
ENDCHAR
STARTCHAR 3233
ENCODING 12851
SWIDTH 960 0
DWIDTH 14 0
BBX 18 14 -2 -2
BITMAP
010000
013F80
010B00
0F8C00
027F00
024900
0E9200
0DFE00
0D9200
192400
29FC00
092400
124800
125800
ENDCHAR
STARTCHAR 3234
ENCODING 12852
SWIDTH 960 0
DWIDTH 14 0
BBX 18 14 -2 -2
BITMAP
008400
008400
028400
050800
07C800
053F00
0A1000
121000
039000
3C2000
042000
042000
0BFC00
080000
ENDCHAR
STARTCHAR 3235
ENCODING 12853
SWIDTH 960 0
DWIDTH 14 0
BBX 18 14 -2 -2
BITMAP
000000
03FE00
000C00
001000
002000
00C000
010000
020000
040000
080400
100400
100400
0FF800
000000
ENDCHAR
STARTCHAR 3236
ENCODING 12854
SWIDTH 960 0
DWIDTH 14 0
BBX 18 14 -2 -2
BITMAP
008800
008800
00FF80
012800
025400
0E9300
17FD00
052400
05FC00
0A4800
0BF800
084200
104400
103C00
ENDCHAR
STARTCHAR 3237
ENCODING 12855
SWIDTH 960 0
DWIDTH 14 0
BBX 18 14 -2 -2
BITMAP
010000
010780
03F480
048900
088900
0FF900
011200
09D200
091200
122400
13B800
1E2000
604000
004000
ENDCHAR
STARTCHAR 3238
ENCODING 12856
SWIDTH 960 0
DWIDTH 14 0
BBX 18 14 -2 -2
BITMAP
000000
01FF00
011100
03FE00
022200
02D200
070C00
07FC00
004000
0A4800
0A4400
121400
622400
01E000
ENDCHAR
STARTCHAR 3239
ENCODING 12857
SWIDTH 960 0
DWIDTH 14 0
BBX 18 14 -2 -2
BITMAP
010000
00BF00
00A100
087E00
044200
047E00
000000
040000
09FE00
0A9400
129400
229400
2FFC00
400000
ENDCHAR
STARTCHAR 323a
ENCODING 12858
SWIDTH 960 0
DWIDTH 14 0
BBX 18 14 -2 -2
BITMAP
004180
01BE80
072500
022200
023F00
0F8100
047E00
060200
0E7E00
1A2000
295400
0A4400
145400
103000
ENDCHAR
STARTCHAR 323b
ENCODING 12859
SWIDTH 960 0
DWIDTH 14 0
BBX 18 14 -2 -2
BITMAP
001000
001000
03FF80
010400
008800
0FFF80
000000
03F800
020800
07F000
041000
041000
0FE000
000000
ENDCHAR
STARTCHAR 323c
ENCODING 12860
SWIDTH 960 0
DWIDTH 14 0
BBX 18 14 -2 -2
BITMAP
000000
07FFC0
001000
002000
003000
002800
004800
004400
004400
008000
008000
008000
010000
010000
ENDCHAR
STARTCHAR 323d
ENCODING 12861
SWIDTH 960 0
DWIDTH 14 0
BBX 18 14 -2 -2
BITMAP
004800
004800
008880
009100
011200
071400
0A3000
122000
022000
044000
044000
044200
084400
083C00
ENDCHAR
STARTCHAR 323e
ENCODING 12862
SWIDTH 960 0
DWIDTH 14 0
BBX 18 14 -2 -2
BITMAP
008000
00BFC0
012000
014000
027F00
0E5200
149200
049400
051800
090800
0A1000
0C6800
198800
160400
ENDCHAR
STARTCHAR 323f
ENCODING 12863
SWIDTH 960 0
DWIDTH 14 0
BBX 18 14 -2 -2
BITMAP
008000
00FFC0
010080
010100
027900
0E4900
149200
049200
049200
09E400
080400
080400
100800
101800
ENDCHAR
STARTCHAR 3240
ENCODING 12864
SWIDTH 960 0
DWIDTH 14 0
BBX 18 14 -2 -2
BITMAP
00A000
00A000
00A380
01F500
025500
0E5500
14AA00
04AA00
052A00
095400
0A5400
0C5400
19B800
100000
ENDCHAR
STARTCHAR 3241
ENCODING 12865
SWIDTH 960 0
DWIDTH 14 0
BBX 18 14 -2 -2
BITMAP
008000
00FFC0
010A00
011400
021400
0E7F00
14AA00
04AA00
04AA00
095400
095400
095400
13F800
100000
ENDCHAR
STARTCHAR 3242
ENCODING 12866
SWIDTH 960 0
DWIDTH 14 0
BBX 18 14 -2 -2
BITMAP
008400
008400
010400
017F00
020800
0E0800
15FF00
041000
041000
09FC00
082000
082000
17FC00
100000
ENDCHAR
STARTCHAR 3243
ENCODING 12867
SWIDTH 960 0
DWIDTH 14 0
BBX 18 14 -2 -2
BITMAP
008000
008000
008000
010F80
0FE880
012880
025100
025100
045100
04A200
08A200
10BE00
210000
460000
ENDCHAR
STARTCHAR 3244
ENCODING 12868
SWIDTH 960 0
DWIDTH 14 0
BBX 18 14 -2 -2
BITMAP
000000
07FFC0
000100
000200
03E200
022200
044400
044400
044400
0F8800
000800
000800
001000
003000
ENDCHAR
STARTCHAR 3245
ENCODING 12869
SWIDTH 960 0
DWIDTH 14 0
BBX 18 14 -2 -2
BITMAP
001000
03FF80
001000
03FE00
000000
01FC00
020800
03F800
011000
3FFE00
020000
1FBC00
094800
337800
ENDCHAR
STARTCHAR 3246
ENCODING 12870
SWIDTH 960 0
DWIDTH 14 0
BBX 18 14 -2 -2
BITMAP
000000
07FFC0
001000
01FC00
010400
01FC00
020800
03F800
020800
07F000
1E2000
01C000
06E000
781C00
ENDCHAR
STARTCHAR 3247
ENCODING 12871
SWIDTH 960 0
DWIDTH 14 0
BBX 18 14 -2 -2
BITMAP
010400
010400
013FC0
024080
0FFE80
048800
093900
09DA00
1E6C00
25B800
065400
0B9200
702000
00C000
ENDCHAR
STARTCHAR 3248
ENCODING 12872
SWIDTH 960 0
DWIDTH 14 0
BBX 18 14 -2 -2
BITMAP
001000
001000
07FFC0
080080
0BFE80
00C000
035200
0CF200
067400
195000
024800
0C4400
708400
030000
ENDCHAR
STARTCHAR 3249
ENCODING 12873
SWIDTH 960 0
DWIDTH 14 0
BBX 18 14 -2 -2
BITMAP
001000
07FFC0
040040
0BFE80
008000
01FC00
020800
03F800
020800
3FFE00
07F000
3B2E00
044000
198000
ENDCHAR
STARTCHAR 324a
ENCODING 12874
SWIDTH 960 0
DWIDTH 14 0
BBX 18 14 -2 -2
BITMAP
002100
00C900
038900
010A00
012200
0FE200
022400
070700
0F3C00
15C800
240800
040800
081000
081000
ENDCHAR
STARTCHAR 324b
ENCODING 12875
SWIDTH 960 0
DWIDTH 14 0
BBX 18 14 -2 -2
BITMAP
000000
007B80
074880
0A9100
0AF700
0A8000
1D0000
15DE00
151400
2A1400
2B9800
3A1800
042800
04C400
ENDCHAR
STARTCHAR 324c
ENCODING 12876
SWIDTH 960 0
DWIDTH 14 0
BBX 18 14 -2 -2
BITMAP
000000
01FF00
011100
022200
03FE00
022200
07FC00
004000
1FFF00
01C000
02A000
0C9800
710400
010000
ENDCHAR
STARTCHAR 324d
ENCODING 12877
SWIDTH 960 0
DWIDTH 14 0
BBX 18 14 -2 -2
BITMAP
010000
010F80
07E880
025100
025100
04D100
1B7E00
004000
1FFF00
01C000
02A000
0C9800
710400
010000
ENDCHAR
STARTCHAR 324e
ENCODING 12878
SWIDTH 960 0
DWIDTH 14 0
BBX 18 14 -2 -2
BITMAP
000400
07F400
002400
074800
055F80
076B00
00AC00
1FC800
008800
1D1000
152800
1DC800
030800
060400
ENDCHAR
STARTCHAR 324f
ENCODING 12879
SWIDTH 960 0
DWIDTH 14 0
BBX 18 14 -2 -2
BITMAP
010000
00FFC0
008080
080100
047900
044900
009200
009200
049200
05E400
080400
100400
100800
201800
ENDCHAR
STARTCHAR 3250
ENCODING 12880
SWIDTH 960 0
DWIDTH 14 0
BBX 18 14 -2 -2
BITMAP
001000
001000
001080
022100
022200
042400
046000
08A000
012000
012000
021000
0C0800
100800
600400
ENDCHAR
STARTCHAR 3251
ENCODING 12881
SWIDTH 960 0
DWIDTH 14 0
BBX 18 14 -2 -2
BITMAP
000000
003FC0
07C080
020100
023D00
022500
1F4A00
044A00
044A00
08F400
0E0400
300400
000800
001800
ENDCHAR
STARTCHAR 3252
ENCODING 12882
SWIDTH 960 0
DWIDTH 14 0
BBX 18 14 -2 -2
BITMAP
010000
011F00
011100
0FAE00
012A00
022A00
047E00
068200
1FBA00
2B5400
095400
097400
120800
121800
ENDCHAR
STARTCHAR 3253
ENCODING 12883
SWIDTH 960 0
DWIDTH 14 0
BBX 18 14 -2 -2
BITMAP
000300
001C00
01F000
002000
002000
0FFF80
004000
00E000
035000
0C8800
308600
008000
010000
010000
ENDCHAR
STARTCHAR 3254
ENCODING 12884
SWIDTH 960 0
DWIDTH 14 0
BBX 18 14 -2 -2
BITMAP
004400
018400
073FC0
024080
02FF00
0F8800
043900
0EDA00
0F6C00
1BB800
285400
099200
102000
10C000
ENDCHAR
STARTCHAR 3255
ENCODING 12885
SWIDTH 960 0
DWIDTH 14 0
BBX 18 14 -2 -2
BITMAP
010400
01FFC0
029A00
0CA200
07FF00
042100
0BFA00
084200
09F200
122400
13E400
100400
3FF800
000000
ENDCHAR
STARTCHAR 3256
ENCODING 12886
SWIDTH 960 0
DWIDTH 14 0
BBX 18 14 -2 -2
BITMAP
004400
004400
07FFC0
008800
008800
011000
012200
022400
0E3800
144000
244000
044200
084400
083C00
ENDCHAR
STARTCHAR 3257
ENCODING 12887
SWIDTH 960 0
DWIDTH 14 0
BBX 18 14 -2 -2
BITMAP
004400
004400
07FFC0
008800
000000
0FFF80
000400
07C400
044400
088800
0F8800
000800
001000
003000
ENDCHAR
STARTCHAR 3258
ENCODING 12888
SWIDTH 960 0
DWIDTH 14 0
BBX 18 14 -2 -2
BITMAP
004400
004400
07FFC0
008800
028800
020000
1FBE00
04A200
04A200
094400
094400
114400
22F800
4C0000
ENDCHAR
STARTCHAR 3259
ENCODING 12889
SWIDTH 960 0
DWIDTH 14 0
BBX 18 14 -2 -2
BITMAP
004400
004400
07FFC0
008800
010000
027F80
020400
04F400
1C9400
292800
09E800
080800
101000
103000
ENDCHAR
STARTCHAR 325a
ENCODING 12890
SWIDTH 960 0
DWIDTH 14 0
BBX 18 14 -2 -2
BITMAP
004400
004400
07FFC0
008800
03FE00
012400
1FFF00
024800
07FE00
008000
3FFE00
008000
010000
010000
ENDCHAR
STARTCHAR 325b
ENCODING 12891
SWIDTH 960 0
DWIDTH 14 0
BBX 18 14 -2 -2
BITMAP
004400
07FFC0
004400
03FE00
022200
03FE00
044400
07FC00
004000
3FFE00
01C000
0EB000
710C00
010000
ENDCHAR
STARTCHAR 325c
ENCODING 12892
SWIDTH 960 0
DWIDTH 14 0
BBX 18 14 -2 -2
BITMAP
010000
011D80
011480
0FA900
0ABB00
0AA000
154000
1F7E00
044C00
0C9400
0AE800
1E9800
652800
014400
ENDCHAR
STARTCHAR 325d
ENCODING 12893
SWIDTH 960 0
DWIDTH 14 0
BBX 18 14 -2 -2
BITMAP
000000
03DF80
001480
0FE900
003F00
07A900
007E00
0F1000
01FF00
1E7000
12A800
132400
3C4400
004000
ENDCHAR
STARTCHAR 325e
ENCODING 12894
SWIDTH 960 0
DWIDTH 14 0
BBX 18 14 -2 -2
BITMAP
001100
001100
07FFC0
092200
097F00
092A00
13FF00
125400
12FE00
3C2000
07FE00
002000
004000
004000
ENDCHAR
STARTCHAR 325f
ENCODING 12895
SWIDTH 960 0
DWIDTH 14 0
BBX 18 14 -2 -2
BITMAP
004800
0048C0
038F00
0D1080
010F80
01FC00
020800
03F800
020800
07F000
041000
07F000
065000
380800
ENDCHAR
STARTCHAR 3260
ENCODING 12896
SWIDTH 960 0
DWIDTH 14 0
BBX 18 14 -2 -2
BITMAP
002000
022000
022380
03F500
005500
005500
1CAA00
04AA00
052A00
0A5400
0C5C00
1D9400
260000
41FC00
ENDCHAR
STARTCHAR 3261
ENCODING 12897
SWIDTH 960 0
DWIDTH 14 0
BBX 18 14 -2 -2
BITMAP
000000
023F00
022100
025E00
005200
00FE00
1D0200
057A00
054A00
0A9400
0AF400
1E0C00
260000
41FC00
ENDCHAR
STARTCHAR 3262
ENCODING 12898
SWIDTH 960 0
DWIDTH 14 0
BBX 18 14 -2 -2
BITMAP
000000
01FF00
001000
0FFF80
082080
0BAE80
002000
0F9E00
088200
1EFC00
1E7C00
102800
3C6800
218400
ENDCHAR
STARTCHAR 3263
ENCODING 12899
SWIDTH 960 0
DWIDTH 14 0
BBX 18 14 -2 -2
BITMAP
008200
008200
008200
07FF80
055100
055200
0A9200
0F9400
021800
060800
051000
0FE800
708800
010400
ENDCHAR
STARTCHAR 3264
ENCODING 12900
SWIDTH 960 0
DWIDTH 14 0
BBX 18 14 -2 -2
BITMAP
008600
009A80
00F280
012480
022400
0FFF80
144800
046A00
044C00
098400
0E8800
08BA00
134C00
110400
ENDCHAR
STARTCHAR 3265
ENCODING 12901
SWIDTH 960 0
DWIDTH 14 0
BBX 18 14 -2 -2
BITMAP
000600
010A80
013A80
021480
0A9400
0AFF80
152900
152A00
153E00
2AC800
3F5800
006A00
008C00
018400
ENDCHAR
STARTCHAR 3266
ENCODING 12902
SWIDTH 960 0
DWIDTH 14 0
BBX 18 14 -2 -2
BITMAP
002800
004900
038900
011100
011000
0FFF80
022200
022200
03A400
3C2800
041200
046A00
0B8C00
180400
ENDCHAR
STARTCHAR 3267
ENCODING 12903
SWIDTH 960 0
DWIDTH 14 0
BBX 18 14 -2 -2
BITMAP
000000
00FF00
008400
010800
010800
010800
1FFF00
003000
005000
01A000
022000
0C2000
704000
00C000
ENDCHAR
STARTCHAR 3268
ENCODING 12904
SWIDTH 960 0
DWIDTH 14 0
BBX 18 14 -2 -2
BITMAP
000000
07FFC0
001000
002000
05FD00
052500
0A4A00
0BFA00
0A4A00
149400
17F400
100400
3FF800
000000
ENDCHAR
STARTCHAR 3269
ENCODING 12905
SWIDTH 960 0
DWIDTH 14 0
BBX 18 14 -2 -2
BITMAP
000200
03FA00
024200
048400
07E400
042400
084800
085800
0FE800
122800
124800
128800
3F0800
020400
ENDCHAR
STARTCHAR 326a
ENCODING 12906
SWIDTH 960 0
DWIDTH 14 0
BBX 18 14 -2 -2
BITMAP
004400
004400
07FFC0
008800
03FE00
010800
021000
1FFF00
007000
00A000
032000
1C2000
604000
00C000
ENDCHAR
STARTCHAR 326b
ENCODING 12907
SWIDTH 960 0
DWIDTH 14 0
BBX 18 14 -2 -2
BITMAP
010600
010B00
017B00
0F9500
0A9400
0AFF80
152800
1F2A00
143C00
0DD400
0A4800
1F7A00
60CC00
018400
ENDCHAR
STARTCHAR 326c
ENCODING 12908
SWIDTH 960 0
DWIDTH 14 0
BBX 18 14 -2 -2
BITMAP
008000
008F80
07E880
025100
02DF00
07FC00
1A0800
03F800
020800
07F000
041000
07F000
065000
380800
ENDCHAR
STARTCHAR 326d
ENCODING 12909
SWIDTH 960 0
DWIDTH 14 0
BBX 18 14 -2 -2
BITMAP
000480
03E480
024900
049F80
04B200
0FD200
033F00
032400
052400
0A7E00
124800
224800
04FC00
0C0000
ENDCHAR
STARTCHAR 326e
ENCODING 12910
SWIDTH 960 0
DWIDTH 14 0
BBX 18 14 -2 -2
BITMAP
008200
008680
01FA80
035480
051400
0FFF80
092800
0F2A00
093C00
1FC400
144A00
127E00
3ECC00
618400
ENDCHAR
STARTCHAR 326f
ENCODING 12911
SWIDTH 960 0
DWIDTH 14 0
BBX 18 14 -2 -2
BITMAP
008000
07EF80
012880
025100
04DF00
080000
07FC00
044000
07F800
088000
0FFC00
152400
272800
403000
ENDCHAR
STARTCHAR 3270
ENCODING 12912
SWIDTH 960 0
DWIDTH 14 0
BBX 18 14 -2 -2
BITMAP
001000
001000
002800
00C800
020600
0D0980
011000
011000
021000
022000
042000
082000
104000
204000
ENDCHAR
STARTCHAR 3271
ENCODING 12913
SWIDTH 960 0
DWIDTH 14 0
BBX 18 14 -2 -2
BITMAP
001000
001000
002800
00C800
030600
0CF980
000000
000000
0FFE00
012000
011000
06E800
3B0800
000800
ENDCHAR
STARTCHAR 3272
ENCODING 12914
SWIDTH 960 0
DWIDTH 14 0
BBX 18 14 -2 -2
BITMAP
010000
01FF80
02C480
0D1100
07E600
056400
0ABE00
0FC800
0A8800
1FFE00
111000
111000
222000
462000
ENDCHAR
STARTCHAR 3273
ENCODING 12915
SWIDTH 960 0
DWIDTH 14 0
BBX 18 14 -2 -2
BITMAP
000000
03FF80
020080
040100
04F900
048900
091200
091200
091200
13E400
100400
100400
3FF800
000000
ENDCHAR
STARTCHAR 3274
ENCODING 12916
SWIDTH 960 0
DWIDTH 14 0
BBX 18 14 -2 -2
BITMAP
000400
010800
013F80
024900
0FFF00
024900
049200
04FE00
043400
0E6800
30B400
033C00
044400
083C00
ENDCHAR
STARTCHAR 3275
ENCODING 12917
SWIDTH 960 0
DWIDTH 14 0
BBX 18 14 -2 -2
BITMAP
000400
017FC0
010400
027F00
0FD500
025500
04FE00
041000
07FF00
0C6400
31A800
06B000
01D000
060C00
ENDCHAR
STARTCHAR 3276
ENCODING 12918
SWIDTH 960 0
DWIDTH 14 0
BBX 18 14 -2 -2
BITMAP
000000
003F80
07A080
015D00
025500
025500
0EAA00
02AA00
12BA00
150400
09FC00
1C0000
220000
41FC00
ENDCHAR
STARTCHAR 3277
ENCODING 12919
SWIDTH 960 0
DWIDTH 14 0
BBX 18 14 -2 -2
BITMAP
010400
010400
010400
027F00
070900
070900
0D1200
14FF00
041800
083000
084800
098800
120800
140400
ENDCHAR
STARTCHAR 3278
ENCODING 12920
SWIDTH 960 0
DWIDTH 14 0
BBX 18 14 -2 -2
BITMAP
010000
017F80
011300
021400
071800
07E600
0D0900
141000
04FE00
082000
082000
082000
17FC00
100000
ENDCHAR
STARTCHAR 3279
ENCODING 12921
SWIDTH 960 0
DWIDTH 14 0
BBX 18 14 -2 -2
BITMAP
011000
011000
013FC0
034000
06BE00
06AA00
0C5400
15FF00
049400
092800
0BFE00
0A0800
101000
106000
ENDCHAR
STARTCHAR 327a
ENCODING 12922
SWIDTH 960 0
DWIDTH 14 0
BBX 18 14 -2 -2
BITMAP
010000
013FC0
012000
024400
074500
07D600
0DAC00
14A800
04C800
091000
092800
0E4800
1B0800
1C0400
ENDCHAR
STARTCHAR 327b
ENCODING 12923
SWIDTH 960 0
DWIDTH 14 0
BBX 18 14 -2 -2
BITMAP
010400
017FC0
010400
037F00
06D500
06D500
0CFE00
141000
05FF00
086400
09A800
0EB000
11D000
160C00
ENDCHAR
STARTCHAR 327c
ENCODING 12924
SWIDTH 960 0
DWIDTH 14 0
BBX 18 14 -2 -2
BITMAP
000900
000880
000880
0FFF80
001000
025200
049200
049400
1FF800
090800
091200
116A00
218C00
410400
ENDCHAR
STARTCHAR 327d
ENCODING 12925
SWIDTH 960 0
DWIDTH 14 0
BBX 18 14 -2 -2
BITMAP
010000
013F80
012080
0FC100
027F00
020000
040000
07FE00
1C2200
084400
084400
088400
130800
343000
ENDCHAR
STARTCHAR 327e
ENCODING 12926
SWIDTH 960 0
DWIDTH 14 0
BBX 18 14 -2 -2
BITMAP
000800
07C800
004800
009F80
00A200
0FE200
10A400
101400
101800
221000
223000
1EC800
030800
0C0400
ENDCHAR
STARTCHAR 3321
ENCODING 13089
SWIDTH 960 0
DWIDTH 14 0
BBX 18 14 -2 -2
BITMAP
008900
010500
03E500
056200
07D200
055200
0F4700
037C00
034400
068800
0B4800
13EA00
240400
43FC00
ENDCHAR
STARTCHAR 3322
ENCODING 13090
SWIDTH 960 0
DWIDTH 14 0
BBX 18 14 -2 -2
BITMAP
001000
001000
07BFC0
094000
09BE00
092A00
1E5400
13FF00
129400
252800
3DFE00
010800
001000
006000
ENDCHAR
STARTCHAR 3323
ENCODING 13091
SWIDTH 960 0
DWIDTH 14 0
BBX 18 14 -2 -2
BITMAP
010200
010280
010240
0FFF80
020400
025500
0EAA00
0DAA00
0DFC00
194800
294A00
0A7E00
1C4C00
108400
ENDCHAR
STARTCHAR 3324
ENCODING 13092
SWIDTH 960 0
DWIDTH 14 0
BBX 18 14 -2 -2
BITMAP
011000
009000
00BFC0
084000
04BE00
042A00
005400
07FF00
089400
092800
13FE00
220800
201000
406000
ENDCHAR
STARTCHAR 3325
ENCODING 13093
SWIDTH 960 0
DWIDTH 14 0
BBX 18 14 -2 -2
BITMAP
000000
01FFC0
010000
021000
021100
025200
04A400
052800
082000
086000
10A000
231000
4C1000
300C00
ENDCHAR
STARTCHAR 3326
ENCODING 13094
SWIDTH 960 0
DWIDTH 14 0
BBX 18 14 -2 -2
BITMAP
000000
01FF00
011100
03FE00
022200
03FE00
004000
00A000
072800
3A2600
022000
042000
084000
304000
ENDCHAR
STARTCHAR 3327
ENCODING 13095
SWIDTH 960 0
DWIDTH 14 0
BBX 18 14 -2 -2
BITMAP
020800
020980
03EE00
041080
041080
072F80
38C000
07F800
040800
081000
0FF000
081000
102000
1FE000
ENDCHAR
STARTCHAR 3328
ENCODING 13096
SWIDTH 960 0
DWIDTH 14 0
BBX 18 14 -2 -2
BITMAP
008200
008200
01C600
0E4A00
029100
03AE80
048000
1F8000
047F00
162000
152800
25DC00
496400
080400
ENDCHAR
STARTCHAR 3329
ENCODING 13097
SWIDTH 960 0
DWIDTH 14 0
BBX 18 14 -2 -2
BITMAP
004400
004400
07FFC0
008800
00A800
005000
009000
071C00
1A1300
022000
042000
082000
104000
204000
ENDCHAR
STARTCHAR 332a
ENCODING 13098
SWIDTH 960 0
DWIDTH 14 0
BBX 18 14 -2 -2
BITMAP
010000
01DF80
028480
0FCB00
057400
07FF00
0AC800
0FFF00
18C800
27F000
049000
07F000
011000
3FE800
ENDCHAR
STARTCHAR 332b
ENCODING 13099
SWIDTH 960 0
DWIDTH 14 0
BBX 18 14 -2 -2
BITMAP
000000
07CF80
044880
0F9F00
089100
0F9F00
100200
17FA00
112200
3FFC00
224400
2C4400
508800
401800
ENDCHAR
STARTCHAR 332c
ENCODING 13100
SWIDTH 960 0
DWIDTH 14 0
BBX 18 14 -2 -2
BITMAP
001200
03D240
029F80
052400
062480
057F80
099000
097E00
094200
12FC00
1C8400
108400
21F800
200000
ENDCHAR
STARTCHAR 332d
ENCODING 13101
SWIDTH 960 0
DWIDTH 14 0
BBX 18 14 -2 -2
BITMAP
000000
01FF00
010100
020200
03FE00
020200
040400
07FC00
040400
080800
0FF800
062000
181000
600800
ENDCHAR
STARTCHAR 332e
ENCODING 13102
SWIDTH 960 0
DWIDTH 14 0
BBX 18 14 -2 -2
BITMAP
008000
02AF00
02A900
07D200
001200
0FD200
002400
0FA400
08A400
1F4800
124800
128A00
1F0C00
620400
ENDCHAR
STARTCHAR 332f
ENCODING 13103
SWIDTH 960 0
DWIDTH 14 0
BBX 18 14 -2 -2
BITMAP
008400
008400
07F400
020800
02BF00
090900
051200
029200
0D2200
112400
064400
198400
210800
423000
ENDCHAR
STARTCHAR 3330
ENCODING 13104
SWIDTH 960 0
DWIDTH 14 0
BBX 18 14 -2 -2
BITMAP
000400
008400
00F400
012800
012800
024800
065800
099600
109100
012000
022000
0C2000
104000
204000
ENDCHAR
STARTCHAR 3331
ENCODING 13105
SWIDTH 960 0
DWIDTH 14 0
BBX 18 14 -2 -2
BITMAP
000400
000400
07FFC0
090800
094900
093600
122800
121200
126400
258800
3C3000
00C800
030800
0C0400
ENDCHAR
STARTCHAR 3332
ENCODING 13106
SWIDTH 960 0
DWIDTH 14 0
BBX 18 14 -2 -2
BITMAP
001000
07FFC0
041040
0BFE80
002000
03FE00
004000
1FFF00
000000
07F000
041000
041000
0FE000
000000
ENDCHAR
STARTCHAR 3333
ENCODING 13107
SWIDTH 960 0
DWIDTH 14 0
BBX 18 14 -2 -2
BITMAP
001000
011100
01FF00
000000
03FF80
021000
05FC00
042000
0BFE00
084000
13F800
304000
4FFC00
000000
ENDCHAR
STARTCHAR 3334
ENCODING 13108
SWIDTH 960 0
DWIDTH 14 0
BBX 18 14 -2 -2
BITMAP
010000
017F80
015500
02AA00
07EA00
07AA00
0D7F00
15C400
054C00
0A5800
0AE800
0B4A00
1C8C00
110400
ENDCHAR
STARTCHAR 3335
ENCODING 13109
SWIDTH 960 0
DWIDTH 14 0
BBX 18 14 -2 -2
BITMAP
010000
017FC0
015100
0FAA00
02EA00
02AA00
0F7F00
0DCC00
0D8C00
1A9800
2AE800
0BEA00
1C8C00
110400
ENDCHAR
STARTCHAR 3336
ENCODING 13110
SWIDTH 960 0
DWIDTH 14 0
BBX 18 14 -2 -2
BITMAP
010000
00BFC0
00A200
084400
045F00
044400
00FF00
008800
088800
097C00
121000
261000
29FC00
400000
ENDCHAR
STARTCHAR 3337
ENCODING 13111
SWIDTH 960 0
DWIDTH 14 0
BBX 18 14 -2 -2
BITMAP
000000
07DF80
011080
023F00
022100
07BF00
090000
197E00
090400
13FE00
128800
1E8800
009000
003000
ENDCHAR
STARTCHAR 3338
ENCODING 13112
SWIDTH 960 0
DWIDTH 14 0
BBX 18 14 -2 -2
BITMAP
004400
07FFC0
005400
03FE00
002000
0FFF80
009000
0FFC00
000600
0FF800
094800
094800
7FFC00
000000
ENDCHAR
STARTCHAR 3339
ENCODING 13113
SWIDTH 960 0
DWIDTH 14 0
BBX 18 14 -2 -2
BITMAP
011000
0113C0
027C00
0CA000
012000
02FF80
044200
0C4200
15F200
088400
088400
09E400
160800
101800
ENDCHAR
STARTCHAR 333a
ENCODING 13114
SWIDTH 960 0
DWIDTH 14 0
BBX 18 14 -2 -2
BITMAP
000400
03C400
007FC0
0F8800
000A00
07B400
001400
0F1A00
002400
1E4400
129800
126400
3D8400
020400
ENDCHAR
STARTCHAR 333b
ENCODING 13115
SWIDTH 960 0
DWIDTH 14 0
BBX 18 14 -2 -2
BITMAP
008200
008A80
014A80
025F00
044000
0BBF80
020000
1FBE00
022200
157C00
0E4400
0C3800
0FEC00
700000
ENDCHAR
STARTCHAR 333c
ENCODING 13116
SWIDTH 960 0
DWIDTH 14 0
BBX 18 14 -2 -2
BITMAP
000200
03E200
023FC0
05C800
054A00
0FF400
109400
1F9A00
10A400
1F4400
111800
1F6400
228400
270400
ENDCHAR
STARTCHAR 333d
ENCODING 13117
SWIDTH 960 0
DWIDTH 14 0
BBX 18 14 -2 -2
BITMAP
010000
00BF80
00A480
084900
047F00
044900
009200
02FE00
041000
05FC00
082000
102000
17FC00
200000
ENDCHAR
STARTCHAR 333e
ENCODING 13118
SWIDTH 960 0
DWIDTH 14 0
BBX 18 14 -2 -2
BITMAP
008700
07F540
0089C0
0FFE00
054A00
07CE00
09F100
104000
1FFF00
02A000
0FF800
33E600
044000
07C000
ENDCHAR
STARTCHAR 333f
ENCODING 13119
SWIDTH 960 0
DWIDTH 14 0
BBX 18 14 -2 -2
BITMAP
008200
008200
008200
07DF00
054400
054400
0AFF00
0F8800
020800
067C00
051000
0F1000
73FC00
000000
ENDCHAR
STARTCHAR 3340
ENCODING 13120
SWIDTH 960 0
DWIDTH 14 0
BBX 18 14 -2 -2
BITMAP
000000
017FC0
010000
023E00
0FA200
022200
047C00
044400
074400
0C8800
30F800
000000
0FFC00
000000
ENDCHAR
STARTCHAR 3341
ENCODING 13121
SWIDTH 960 0
DWIDTH 14 0
BBX 18 14 -2 -2
BITMAP
008200
008200
008200
0FFF80
010400
030400
077F00
06C900
0AC900
149200
249200
049600
082000
082000
ENDCHAR
STARTCHAR 3342
ENCODING 13122
SWIDTH 960 0
DWIDTH 14 0
BBX 18 14 -2 -2
BITMAP
008000
008FC0
008800
07D000
055F80
055400
0AA800
0FAF00
0B3100
065200
05A200
0FC200
728400
011800
ENDCHAR
STARTCHAR 3343
ENCODING 13123
SWIDTH 960 0
DWIDTH 14 0
BBX 18 14 -2 -2
BITMAP
008800
008800
014800
025F00
046100
0BC900
021200
1FB200
023A00
15EC00
0E0400
0C0400
0E0800
703000
ENDCHAR
STARTCHAR 3344
ENCODING 13124
SWIDTH 960 0
DWIDTH 14 0
BBX 18 14 -2 -2
BITMAP
008080
03F480
009480
0FF900
012900
07E900
021200
1FF200
0A5200
1FA400
14A400
1F8400
070800
781800
ENDCHAR
STARTCHAR 3345
ENCODING 13125
SWIDTH 960 0
DWIDTH 14 0
BBX 18 14 -2 -2
BITMAP
002100
002100
07FFC0
0A4200
0A4200
0BFF80
154A00
155A00
177B00
2ED600
3AB600
0CA400
094800
139800
ENDCHAR
STARTCHAR 3346
ENCODING 13126
SWIDTH 960 0
DWIDTH 14 0
BBX 18 14 -2 -2
BITMAP
002000
002000
007F00
018400
024800
043000
00D000
030C00
1FFB00
041000
041000
041000
0FE000
000000
ENDCHAR
STARTCHAR 3347
ENCODING 13127
SWIDTH 960 0
DWIDTH 14 0
BBX 18 14 -2 -2
BITMAP
000800
01FFC0
011000
03FF80
020500
02F600
052C00
05EA00
080A00
0BD200
10D200
279C00
412000
032000
ENDCHAR
STARTCHAR 3348
ENCODING 13128
SWIDTH 960 0
DWIDTH 14 0
BBX 18 14 -2 -2
BITMAP
010200
010200
011FC0
0FA000
022400
022400
044800
074800
1C8800
089800
092400
097C00
178400
380400
ENDCHAR
STARTCHAR 3349
ENCODING 13129
SWIDTH 960 0
DWIDTH 14 0
BBX 18 14 -2 -2
BITMAP
012880
011500
017FC0
0F8080
02BE80
022200
047C00
074400
1C7C00
088800
08F800
08D200
111400
360C00
ENDCHAR
STARTCHAR 334a
ENCODING 13130
SWIDTH 960 0
DWIDTH 14 0
BBX 18 14 -2 -2
BITMAP
008400
008400
008F80
0FD100
012A00
030C00
071400
06A200
0AFF00
144400
244400
044400
08F800
080000
ENDCHAR
STARTCHAR 334b
ENCODING 13131
SWIDTH 960 0
DWIDTH 14 0
BBX 18 14 -2 -2
BITMAP
008200
008200
00BFC0
0FC400
012900
039200
069400
068800
0A3200
14C400
241800
046400
098400
0E0400
ENDCHAR
STARTCHAR 334c
ENCODING 13132
SWIDTH 960 0
DWIDTH 14 0
BBX 18 14 -2 -2
BITMAP
008000
008700
07F500
010A80
07CA80
001180
0FE000
08BE00
1F2200
0A2400
0A2800
133000
24D000
430C00
ENDCHAR
STARTCHAR 334d
ENCODING 13133
SWIDTH 960 0
DWIDTH 14 0
BBX 18 14 -2 -2
BITMAP
009100
04FFC0
031300
023F80
066400
0BBF00
024800
067F00
1A0000
25FC00
044800
083000
28D000
170C00
ENDCHAR
STARTCHAR 334e
ENCODING 13134
SWIDTH 960 0
DWIDTH 14 0
BBX 18 14 -2 -2
BITMAP
000400
07E400
013FC0
024880
025200
079400
097F00
19C800
097E00
129000
12FC00
1E9000
01FC00
000000
ENDCHAR
STARTCHAR 334f
ENCODING 13135
SWIDTH 960 0
DWIDTH 14 0
BBX 18 14 -2 -2
BITMAP
004900
00BFC0
070B00
023F80
026400
0FBF00
044800
067F00
0E0000
1BFC00
284800
083000
10F000
170C00
ENDCHAR
STARTCHAR 3350
ENCODING 13136
SWIDTH 960 0
DWIDTH 14 0
BBX 18 14 -2 -2
BITMAP
012100
009200
07FFC0
080080
09FC80
010400
03F800
020800
03F800
041000
07F000
034200
0C4400
703C00
ENDCHAR
STARTCHAR 3351
ENCODING 13137
SWIDTH 960 0
DWIDTH 14 0
BBX 18 14 -2 -2
BITMAP
002000
007E00
038800
0C2000
03FE00
022200
07FC00
044400
044400
0FF800
080800
100800
201000
403000
ENDCHAR
STARTCHAR 3352
ENCODING 13138
SWIDTH 960 0
DWIDTH 14 0
BBX 18 14 -2 -2
BITMAP
008200
008200
03EF80
010400
010400
0FFF80
051400
0DB400
1DF600
2AAA00
0B2A00
124800
249000
4D3000
ENDCHAR
STARTCHAR 3353
ENCODING 13139
SWIDTH 960 0
DWIDTH 14 0
BBX 18 14 -2 -2
BITMAP
008200
008200
07F200
013F80
07CA00
055100
0FE300
0AA400
0FA800
042800
3F9000
046800
088800
090400
ENDCHAR
STARTCHAR 3354
ENCODING 13140
SWIDTH 960 0
DWIDTH 14 0
BBX 18 14 -2 -2
BITMAP
004000
07FF80
000480
03E900
022A00
03EC00
001400
0FD200
009200
03A200
3E3200
022C00
044000
0C4000
ENDCHAR
STARTCHAR 3355
ENCODING 13141
SWIDTH 960 0
DWIDTH 14 0
BBX 18 14 -2 -2
BITMAP
000000
03EF80
022880
07DF00
045100
07DF00
08F200
0B9200
08E200
116400
1FFC00
122400
27C800
245800
ENDCHAR
STARTCHAR 3356
ENCODING 13142
SWIDTH 960 0
DWIDTH 14 0
BBX 18 14 -2 -2
BITMAP
000000
03FF80
024000
04BE00
052200
063E00
0A0000
09FE00
09EA00
139C00
1D7C00
112400
224800
225800
ENDCHAR
STARTCHAR 3357
ENCODING 13143
SWIDTH 960 0
DWIDTH 14 0
BBX 18 14 -2 -2
BITMAP
004400
004400
07FFC0
008800
00F800
002000
07FC00
044400
07FC00
008000
3FFE00
008000
010000
010000
ENDCHAR
STARTCHAR 3358
ENCODING 13144
SWIDTH 960 0
DWIDTH 14 0
BBX 18 14 -2 -2
BITMAP
012100
009100
009600
0FFB80
080080
09FC80
001000
002000
004000
3FFE00
008000
008000
010000
030000
ENDCHAR
STARTCHAR 3359
ENCODING 13145
SWIDTH 960 0
DWIDTH 14 0
BBX 18 14 -2 -2
BITMAP
000200
000C00
00F000
010000
01FF00
010800
021000
1FFF00
004000
088800
088800
088800
1FF000
100000
ENDCHAR
STARTCHAR 335a
ENCODING 13146
SWIDTH 960 0
DWIDTH 14 0
BBX 18 14 -2 -2
BITMAP
001000
022080
027D00
028A00
00FC00
078A00
19F100
004000
1FFF00
01C000
02A000
0C9800
710400
010000
ENDCHAR
STARTCHAR 335b
ENCODING 13147
SWIDTH 960 0
DWIDTH 14 0
BBX 18 14 -2 -2
BITMAP
008000
009FC0
07F600
091800
09DF00
025100
0ABE00
032200
04BE00
1FC400
297C00
096800
1E8800
010400
ENDCHAR
STARTCHAR 335c
ENCODING 13148
SWIDTH 960 0
DWIDTH 14 0
BBX 18 14 -2 -2
BITMAP
000000
077FC0
055600
0AA800
0EFF00
002100
0FBE00
002200
1FFE00
084400
0F7C00
116800
028800
0F0400
ENDCHAR
STARTCHAR 335d
ENCODING 13149
SWIDTH 960 0
DWIDTH 14 0
BBX 18 14 -2 -2
BITMAP
011100
011100
01FD00
0F2200
022200
03FF00
064500
044500
1DFC00
288800
088800
09E800
1E1000
301000
ENDCHAR
STARTCHAR 335e
ENCODING 13150
SWIDTH 960 0
DWIDTH 14 0
BBX 18 14 -2 -2
BITMAP
010400
010400
01FFC0
031400
04A200
08A200
004000
0FFE00
000800
041000
022000
02C000
7F7C00
000000
ENDCHAR
STARTCHAR 335f
ENCODING 13151
SWIDTH 960 0
DWIDTH 14 0
BBX 18 14 -2 -2
BITMAP
010000
013F80
012B00
0FFD00
024A00
027E00
0EAA00
0DF100
0D1000
18FC00
282000
082000
17FC00
100000
ENDCHAR
STARTCHAR 3360
ENCODING 13152
SWIDTH 960 0
DWIDTH 14 0
BBX 18 14 -2 -2
BITMAP
010000
017FC0
010000
0FBE00
022A00
033E00
0D5400
0DFE00
0C0000
18F800
28A800
08F800
115000
17FC00
ENDCHAR
STARTCHAR 3361
ENCODING 13153
SWIDTH 960 0
DWIDTH 14 0
BBX 18 14 -2 -2
BITMAP
008000
009F80
009080
0FFF00
012100
033E00
075000
06FE00
0AD000
14FE00
24A000
052200
0A2400
0C1C00
ENDCHAR
STARTCHAR 3362
ENCODING 13154
SWIDTH 960 0
DWIDTH 14 0
BBX 18 14 -2 -2
BITMAP
008300
009D00
03E900
049280
0FD680
057F00
0FAE00
0AB400
0FFC00
02D400
195400
196400
28C400
408400
ENDCHAR
STARTCHAR 3363
ENCODING 13155
SWIDTH 960 0
DWIDTH 14 0
BBX 18 14 -2 -2
BITMAP
010800
00B380
00A080
087700
044100
047F00
004000
04FF00
078900
0D4A00
13AA00
24A200
480400
401800
ENDCHAR
STARTCHAR 3364
ENCODING 13156
SWIDTH 960 0
DWIDTH 14 0
BBX 18 14 -2 -2
BITMAP
008080
07F480
049480
0FE900
010900
07C900
021200
1FD200
001200
1F2400
112400
110400
220800
3E1800
ENDCHAR
STARTCHAR 3365
ENCODING 13157
SWIDTH 960 0
DWIDTH 14 0
BBX 18 14 -2 -2
BITMAP
000000
003F00
07A100
097E00
094200
097E00
122000
127E00
13BA00
25C400
3D0400
011400
00E800
003000
ENDCHAR
STARTCHAR 3366
ENCODING 13158
SWIDTH 960 0
DWIDTH 14 0
BBX 18 14 -2 -2
BITMAP
010400
010400
010C00
031400
06A200
06FF00
0D0100
140000
047C00
088800
088800
088800
11F000
100000
ENDCHAR
STARTCHAR 3367
ENCODING 13159
SWIDTH 960 0
DWIDTH 14 0
BBX 18 14 -2 -2
BITMAP
010080
010300
017C00
0F8800
020800
02FF80
041000
071000
1DFE00
090400
090400
090400
13F800
300000
ENDCHAR
STARTCHAR 3368
ENCODING 13160
SWIDTH 960 0
DWIDTH 14 0
BBX 18 14 -2 -2
BITMAP
010080
008300
00BC00
080800
040800
04FF80
001000
041000
08FE00
090400
110400
210400
23F800
400000
ENDCHAR
STARTCHAR 3369
ENCODING 13161
SWIDTH 960 0
DWIDTH 14 0
BBX 18 14 -2 -2
BITMAP
010000
00BF00
00A100
087E00
044200
047E00
004000
04FE00
0B9200
0DC400
110400
211400
20E800
403000
ENDCHAR
STARTCHAR 336a
ENCODING 13162
SWIDTH 960 0
DWIDTH 14 0
BBX 18 14 -2 -2
BITMAP
010000
00BF00
00A100
085E00
045200
04FF80
010100
05FE00
0B0400
09F800
110800
21F800
221000
423000
ENDCHAR
STARTCHAR 336b
ENCODING 13163
SWIDTH 960 0
DWIDTH 14 0
BBX 18 14 -2 -2
BITMAP
004400
07FFC0
004400
00FC00
010400
01FC00
020800
03F800
03FE00
0C6400
378400
042400
03C800
007000
ENDCHAR
STARTCHAR 336c
ENCODING 13164
SWIDTH 960 0
DWIDTH 14 0
BBX 18 14 -2 -2
BITMAP
010000
011F00
011100
0FBE00
012200
03FE00
052000
067E00
1ECA00
2AE400
088400
089400
106800
103000
ENDCHAR
STARTCHAR 336d
ENCODING 13165
SWIDTH 960 0
DWIDTH 14 0
BBX 18 14 -2 -2
BITMAP
008200
008200
07FFC0
012480
07FF00
054400
0FBE00
0A8800
0FFF00
040000
3FFC00
044400
088800
08F800
ENDCHAR
STARTCHAR 336e
ENCODING 13166
SWIDTH 960 0
DWIDTH 14 0
BBX 18 14 -2 -2
BITMAP
000000
00FE00
008200
010400
010400
01FC00
020800
020800
03F800
041000
041000
041000
7FFC00
000000
ENDCHAR
STARTCHAR 336f
ENCODING 13167
SWIDTH 960 0
DWIDTH 14 0
BBX 18 14 -2 -2
BITMAP
008000
009FC0
03F480
04BE80
0FE500
057F00
0FD500
0AF900
0F8800
027C00
1D1000
171000
28FC00
400000
ENDCHAR
STARTCHAR 3370
ENCODING 13168
SWIDTH 960 0
DWIDTH 14 0
BBX 18 14 -2 -2
BITMAP
000400
000400
078400
090800
090800
09FF80
121000
121000
121000
242000
3C2000
002000
004000
004000
ENDCHAR
STARTCHAR 3371
ENCODING 13169
SWIDTH 960 0
DWIDTH 14 0
BBX 18 14 -2 -2
BITMAP
008900
008900
00BFC0
0FD200
010800
039880
06A900
06EA00
0AEC00
155000
245000
045200
089400
088C00
ENDCHAR
STARTCHAR 3372
ENCODING 13170
SWIDTH 960 0
DWIDTH 14 0
BBX 18 14 -2 -2
BITMAP
011100
011100
017FC0
0FA200
027F00
032A00
0DFF00
0D5400
0CFE00
182000
2BFE00
082000
104000
104000
ENDCHAR
STARTCHAR 3373
ENCODING 13171
SWIDTH 960 0
DWIDTH 14 0
BBX 18 14 -2 -2
BITMAP
014400
014400
07FF80
029100
03BD00
010500
0F8A00
0ABA00
0FAC00
044000
3FC000
044200
084400
083C00
ENDCHAR
STARTCHAR 3374
ENCODING 13172
SWIDTH 960 0
DWIDTH 14 0
BBX 18 14 -2 -2
BITMAP
008200
008A00
008A00
0FFF00
012400
034400
07FF00
069800
0ABC00
145800
249400
051200
082000
082000
ENDCHAR
STARTCHAR 3375
ENCODING 13173
SWIDTH 960 0
DWIDTH 14 0
BBX 18 14 -2 -2
BITMAP
000800
009000
03FF80
048900
04F900
048900
0DF600
080200
012000
024000
024000
044200
184400
603C00
ENDCHAR
STARTCHAR 3376
ENCODING 13174
SWIDTH 960 0
DWIDTH 14 0
BBX 18 14 -2 -2
BITMAP
001000
03FF80
03D480
0EF780
07FF00
022400
03F800
024800
07F800
088800
0FF800
088A00
1FF400
00FC00
ENDCHAR
STARTCHAR 3377
ENCODING 13175
SWIDTH 960 0
DWIDTH 14 0
BBX 18 14 -2 -2
BITMAP
004400
004400
07FFC0
008A00
020900
03FF80
121000
08FE00
0C9200
05FC00
092400
11FC00
124800
225800
ENDCHAR
STARTCHAR 3378
ENCODING 13176
SWIDTH 960 0
DWIDTH 14 0
BBX 18 14 -2 -2
BITMAP
002400
00C300
032C80
003000
005800
018600
1FF900
004000
07FC00
049000
029000
02E000
7FBC00
000000
ENDCHAR
STARTCHAR 3379
ENCODING 13177
SWIDTH 960 0
DWIDTH 14 0
BBX 18 14 -2 -2
BITMAP
011100
010A00
01FFC0
029400
04FF00
0F1500
04FF00
1F2A00
05FE00
2A5400
1CD800
1B5400
1CA400
60A000
ENDCHAR
STARTCHAR 337a
ENCODING 13178
SWIDTH 960 0
DWIDTH 14 0
BBX 18 14 -2 -2
BITMAP
000400
001400
079780
092800
09FF80
096B00
12B600
12BA00
12FE00
257400
3DAC00
012400
03F800
000000
ENDCHAR
STARTCHAR 337b
ENCODING 13179
SWIDTH 960 0
DWIDTH 14 0
BBX 18 14 -2 -2
BITMAP
000200
07C400
055F00
0AA200
0FBE00
0AA200
157C00
157F00
1F4000
08FE00
08AA00
09D600
128400
141800
ENDCHAR
STARTCHAR 337c
ENCODING 13180
SWIDTH 960 0
DWIDTH 14 0
BBX 18 14 -2 -2
BITMAP
008000
00BFC0
008600
0FC800
013F00
032100
074200
06C200
0AFE00
148400
248400
048400
09F800
080000
ENDCHAR
STARTCHAR 337d
ENCODING 13181
SWIDTH 960 0
DWIDTH 14 0
BBX 18 14 -2 -2
BITMAP
004400
004400
07FFC0
008800
03FE00
00B800
00C000
1FFF00
004E00
01B000
028000
0C8000
710000
030000
ENDCHAR
STARTCHAR 337e
ENCODING 13182
SWIDTH 960 0
DWIDTH 14 0
BBX 18 14 -2 -2
BITMAP
004400
07FFC0
005400
0FFF80
080080
0BFE80
000000
03F800
020800
07F000
041000
07F000
000000
7FFC00
ENDCHAR
STARTCHAR 3421
ENCODING 13345
SWIDTH 960 0
DWIDTH 14 0
BBX 18 14 -2 -2
BITMAP
001000
071380
019480
02A500
0EB700
082400
13F800
1C4E00
14F200
099400
0AA400
0C8400
110800
613000
ENDCHAR
STARTCHAR 3422
ENCODING 13346
SWIDTH 960 0
DWIDTH 14 0
BBX 18 14 -2 -2
BITMAP
002080
002480
002480
044900
024900
018900
011200
019200
029200
04A400
08A400
100400
200800
401800
ENDCHAR
STARTCHAR 3423
ENCODING 13347
SWIDTH 960 0
DWIDTH 14 0
BBX 18 14 -2 -2
BITMAP
004400
004400
07FFC0
008800
008800
008100
089200
049200
031200
022400
062400
1A2400
220800
401800
ENDCHAR
STARTCHAR 3424
ENCODING 13348
SWIDTH 960 0
DWIDTH 14 0
BBX 18 14 -2 -2
BITMAP
000000
07FFC0
004000
008000
00F800
008800
011000
019000
029000
04A000
042000
05E200
0E2400
701C00
ENDCHAR
STARTCHAR 3425
ENCODING 13349
SWIDTH 960 0
DWIDTH 14 0
BBX 18 14 -2 -2
BITMAP
008800
008800
07FFC0
011000
07E000
045F00
0F8400
088800
0F9000
042000
3FC000
044200
084400
083C00
ENDCHAR
STARTCHAR 3426
ENCODING 13350
SWIDTH 960 0
DWIDTH 14 0
BBX 18 14 -2 -2
BITMAP
008000
00BF80
012080
014100
024100
0E7F00
140000
04A400
04A400
094800
094800
0A4A00
148C00
180400
ENDCHAR
STARTCHAR 3427
ENCODING 13351
SWIDTH 960 0
DWIDTH 14 0
BBX 18 14 -2 -2
BITMAP
000000
07FFC0
040040
0FC280
000200
003F80
1FC400
052400
052400
0A0800
0A0800
121A00
220400
41FC00
ENDCHAR
STARTCHAR 3428
ENCODING 13352
SWIDTH 960 0
DWIDTH 14 0
BBX 18 14 -2 -2
BITMAP
001000
07FFC0
044440
0BFE80
008800
03FE00
011000
1FFF00
031000
0C9800
304600
030000
008000
004000
ENDCHAR
STARTCHAR 3429
ENCODING 13353
SWIDTH 960 0
DWIDTH 14 0
BBX 18 14 -2 -2
BITMAP
000080
07F480
008480
010900
010900
010900
1FD200
021200
021200
042400
042400
040400
080800
081800
ENDCHAR
STARTCHAR 342a
ENCODING 13354
SWIDTH 960 0
DWIDTH 14 0
BBX 18 14 -2 -2
BITMAP
012400
012400
07F400
025F00
03C900
024900
079200
049200
1FF200
162400
16A400
19C400
3F8800
013000
ENDCHAR
STARTCHAR 342b
ENCODING 13355
SWIDTH 960 0
DWIDTH 14 0
BBX 18 14 -2 -2
BITMAP
010400
010400
03E400
051F00
0BE900
028900
0FD200
191200
0FD200
122400
1FA400
124400
3F8800
013000
ENDCHAR
STARTCHAR 342c
ENCODING 13356
SWIDTH 960 0
DWIDTH 14 0
BBX 18 14 -2 -2
BITMAP
011100
009100
009600
07FB00
005000
0FFF80
011000
07FC00
181300
07E000
040800
040800
03F000
000000
ENDCHAR
STARTCHAR 342d
ENCODING 13357
SWIDTH 960 0
DWIDTH 14 0
BBX 18 14 -2 -2
BITMAP
000800
000F00
079600
096800
09FF00
095900
12AA00
12AE00
12D200
252400
3FFE00
00D000
030800
0C0400
ENDCHAR
STARTCHAR 342e
ENCODING 13358
SWIDTH 960 0
DWIDTH 14 0
BBX 18 14 -2 -2
BITMAP
001100
017FC0
011100
023E00
0FA200
023E00
044400
05FF00
04C800
0D4C00
318400
010000
03FC00
000000
ENDCHAR
STARTCHAR 342f
ENCODING 13359
SWIDTH 960 0
DWIDTH 14 0
BBX 18 14 -2 -2
BITMAP
001000
001000
03FF80
008800
01D000
00F800
070C00
020800
1FFF00
092400
1A6800
061800
1A6800
618400
ENDCHAR
STARTCHAR 3430
ENCODING 13360
SWIDTH 960 0
DWIDTH 14 0
BBX 18 14 -2 -2
BITMAP
001000
001000
07FFC0
080080
09FC80
000000
000000
1FFF00
012000
024000
024000
044200
184400
603C00
ENDCHAR
STARTCHAR 3431
ENCODING 13361
SWIDTH 960 0
DWIDTH 14 0
BBX 18 14 -2 -2
BITMAP
001000
001000
07FFC0
080080
09FC80
010400
020800
03F800
020000
040000
07F800
040800
081000
0FF000
ENDCHAR
STARTCHAR 3432
ENCODING 13362
SWIDTH 960 0
DWIDTH 14 0
BBX 18 14 -2 -2
BITMAP
001000
07FFC0
044440
0BFE80
008800
01F800
020800
03E800
02F800
041000
07F000
034200
0C4400
703C00
ENDCHAR
STARTCHAR 3433
ENCODING 13363
SWIDTH 960 0
DWIDTH 14 0
BBX 18 14 -2 -2
BITMAP
000000
03FF80
001000
002000
002000
002000
1FFF00
004000
004000
008000
008000
008000
010000
010000
ENDCHAR
STARTCHAR 3434
ENCODING 13364
SWIDTH 960 0
DWIDTH 14 0
BBX 18 14 -2 -2
BITMAP
008200
008200
07E500
011900
07E080
045F00
0F8800
088800
0FFF00
041000
3F9000
041000
082000
082000
ENDCHAR
STARTCHAR 3435
ENCODING 13365
SWIDTH 960 0
DWIDTH 14 0
BBX 18 14 -2 -2
BITMAP
001000
00FE00
009200
01FC00
002000
03FE00
044400
07FC00
004000
0A4800
0A4400
121400
622400
01E000
ENDCHAR
STARTCHAR 3436
ENCODING 13366
SWIDTH 960 0
DWIDTH 14 0
BBX 18 14 -2 -2
BITMAP
000900
000880
01FFC0
021100
03E900
020A00
07CC00
0A5500
13E300
008200
124400
225400
422400
01E000
ENDCHAR
STARTCHAR 3437
ENCODING 13367
SWIDTH 960 0
DWIDTH 14 0
BBX 18 14 -2 -2
BITMAP
010000
011F80
011480
02FF80
074A00
06FE00
0C8200
14FE00
048200
09FC00
090400
09FC00
119800
160400
ENDCHAR
STARTCHAR 3438
ENCODING 13368
SWIDTH 960 0
DWIDTH 14 0
BBX 18 14 -2 -2
BITMAP
010280
013FC0
012200
037D00
06C500
06FE00
0CD300
157900
062100
086800
0AA400
0C8C00
189400
107000
ENDCHAR
STARTCHAR 3439
ENCODING 13369
SWIDTH 960 0
DWIDTH 14 0
BBX 18 14 -2 -2
BITMAP
010800
010F00
011200
0FFF00
025500
026500
04C600
069200
1C9200
0BFE00
082000
08D000
111000
360C00
ENDCHAR
STARTCHAR 343a
ENCODING 13370
SWIDTH 960 0
DWIDTH 14 0
BBX 18 14 -2 -2
BITMAP
000400
03F400
004400
008800
0FFF80
026200
07F200
049400
079800
098800
0F1000
316800
028800
030400
ENDCHAR
STARTCHAR 343b
ENCODING 13371
SWIDTH 960 0
DWIDTH 14 0
BBX 18 14 -2 -2
BITMAP
008880
008880
008880
0FFF80
011100
031100
072200
06BE00
0AA200
144400
244400
044400
08F800
080000
ENDCHAR
STARTCHAR 343c
ENCODING 13372
SWIDTH 960 0
DWIDTH 14 0
BBX 18 14 -2 -2
BITMAP
008000
009FC0
008000
0FDF00
011100
031100
073E00
06A200
0AA200
147C00
240000
040000
0BFC00
080000
ENDCHAR
STARTCHAR 343d
ENCODING 13373
SWIDTH 960 0
DWIDTH 14 0
BBX 18 14 -2 -2
BITMAP
008400
008400
00BFC0
0FC080
017E80
034200
074400
06FC00
0AC000
14FC00
248400
048400
09F800
080000
ENDCHAR
STARTCHAR 343e
ENCODING 13374
SWIDTH 960 0
DWIDTH 14 0
BBX 18 14 -2 -2
BITMAP
008400
008400
07F400
010800
07DF80
002B00
0FCC00
000800
1FC800
061000
152800
25C800
490800
1A0400
ENDCHAR
STARTCHAR 343f
ENCODING 13375
SWIDTH 960 0
DWIDTH 14 0
BBX 18 14 -2 -2
BITMAP
010400
010400
03F400
050800
0FFF80
04B500
07CC00
0D0800
17C800
0A1000
0FA800
0A4800
1F8800
010400
ENDCHAR
STARTCHAR 3440
ENCODING 13376
SWIDTH 960 0
DWIDTH 14 0
BBX 18 14 -2 -2
BITMAP
010000
00BF80
008400
080800
040800
040800
01FF00
021000
041000
042000
082000
102000
104000
204000
ENDCHAR
STARTCHAR 3441
ENCODING 13377
SWIDTH 960 0
DWIDTH 14 0
BBX 18 14 -2 -2
BITMAP
011200
009200
00FFC0
082400
047F00
044900
00FE00
041000
08FE00
082000
13FE00
20D000
211000
460C00
ENDCHAR
STARTCHAR 3442
ENCODING 13378
SWIDTH 960 0
DWIDTH 14 0
BBX 18 14 -2 -2
BITMAP
020000
01F780
019480
09EF00
052900
05EF00
020200
02FA00
068A00
0DF400
151400
25F400
280800
481800
ENDCHAR
STARTCHAR 3443
ENCODING 13379
SWIDTH 960 0
DWIDTH 14 0
BBX 18 14 -2 -2
BITMAP
011000
009000
00BF80
085000
04FF80
052400
007F00
048800
07FE00
0D1000
11FC00
211000
43FC00
400000
ENDCHAR
STARTCHAR 3444
ENCODING 13380
SWIDTH 960 0
DWIDTH 14 0
BBX 18 14 -2 -2
BITMAP
000000
003F80
07EA80
027F00
020000
02FF80
1F7C00
044400
047C00
0A6400
0CD800
334800
008400
008000
ENDCHAR
STARTCHAR 3445
ENCODING 13381
SWIDTH 960 0
DWIDTH 14 0
BBX 18 14 -2 -2
BITMAP
008200
008200
008200
010400
0FFF80
010400
020800
020800
03F800
041000
041000
041000
0FE000
000000
ENDCHAR
STARTCHAR 3446
ENCODING 13382
SWIDTH 960 0
DWIDTH 14 0
BBX 18 14 -2 -2
BITMAP
000400
03F400
024400
07CF80
045000
07E000
091E00
0FC000
000000
0FF800
094800
094800
7FFC00
000000
ENDCHAR
STARTCHAR 3447
ENCODING 13383
SWIDTH 960 0
DWIDTH 14 0
BBX 18 14 -2 -2
BITMAP
000300
01FC00
002000
07FF00
004000
0FFF80
010000
01FC00
030400
07F800
0A0800
33F800
441000
07F000
ENDCHAR
STARTCHAR 3448
ENCODING 13384
SWIDTH 960 0
DWIDTH 14 0
BBX 18 14 -2 -2
BITMAP
010400
010400
01FFC0
031400
04A200
084200
07FE00
004000
004000
3FFE00
008000
008000
010000
010000
ENDCHAR
STARTCHAR 3449
ENCODING 13385
SWIDTH 960 0
DWIDTH 14 0
BBX 18 14 -2 -2
BITMAP
010400
01FFC0
029A00
0CA200
0FFF80
080080
13F900
020800
03F800
040000
07F800
040800
081000
0FF000
ENDCHAR
STARTCHAR 344a
ENCODING 13386
SWIDTH 960 0
DWIDTH 14 0
BBX 18 14 -2 -2
BITMAP
010400
01FFC0
029A00
0CA200
07DF00
045100
0FBE00
08A200
0FFE00
122400
13E400
122400
27C800
201800
ENDCHAR
STARTCHAR 344b
ENCODING 13387
SWIDTH 960 0
DWIDTH 14 0
BBX 18 14 -2 -2
BITMAP
0081C0
009E40
012E80
0D4A00
02FF80
038800
04FF00
1F9000
071E00
152400
155800
24B800
49C800
0B0400
ENDCHAR
STARTCHAR 344c
ENCODING 13388
SWIDTH 960 0
DWIDTH 14 0
BBX 18 14 -2 -2
BITMAP
008000
008000
008000
01FF00
022000
0C2000
17FF00
004000
044400
088800
088800
088800
1FF000
000000
ENDCHAR
STARTCHAR 344d
ENCODING 13389
SWIDTH 960 0
DWIDTH 14 0
BBX 18 14 -2 -2
BITMAP
008400
008400
07FA00
011200
07E100
047F80
0F9200
08DA00
0FF600
046C00
3FB400
04B400
084800
08D800
ENDCHAR
STARTCHAR 344e
ENCODING 13390
SWIDTH 960 0
DWIDTH 14 0
BBX 18 14 -2 -2
BITMAP
000000
03FF80
024400
048800
048800
078800
09FF00
091000
0F1000
122000
122000
122000
244000
4C4000
ENDCHAR
STARTCHAR 344f
ENCODING 13391
SWIDTH 960 0
DWIDTH 14 0
BBX 18 14 -2 -2
BITMAP
008100
011F00
03D500
04BF80
06A600
07BC00
0B5700
1FF800
090000
16FC00
16B400
16B400
256800
4FFC00
ENDCHAR
STARTCHAR 3450
ENCODING 13392
SWIDTH 960 0
DWIDTH 14 0
BBX 18 14 -2 -2
BITMAP
004400
004400
07FFC0
008800
002000
0FFF80
100100
13F900
000000
1FFE00
014000
064200
184400
603C00
ENDCHAR
STARTCHAR 3451
ENCODING 13393
SWIDTH 960 0
DWIDTH 14 0
BBX 18 14 -2 -2
BITMAP
010000
010F80
03E880
051100
0FFF00
029100
0FFE00
1A2200
0FBE00
142800
1F2800
144A00
3F8C00
020400
ENDCHAR
STARTCHAR 3452
ENCODING 13394
SWIDTH 960 0
DWIDTH 14 0
BBX 18 14 -2 -2
BITMAP
000400
03C400
007FC0
0F8800
003F00
07A900
007E00
0F5200
007E00
1E7000
12A800
132400
3C4400
004000
ENDCHAR
STARTCHAR 3453
ENCODING 13395
SWIDTH 960 0
DWIDTH 14 0
BBX 18 14 -2 -2
BITMAP
000000
00FE00
009200
0FFF80
024800
03F800
020800
03F800
020800
07F000
041000
07F000
065000
380800
ENDCHAR
STARTCHAR 3454
ENCODING 13396
SWIDTH 960 0
DWIDTH 14 0
BBX 18 14 -2 -2
BITMAP
000000
027F80
025280
02FF00
000000
03FF80
1CFC00
048400
04FC00
086400
0BD800
1C4400
228000
41FC00
ENDCHAR
STARTCHAR 3455
ENCODING 13397
SWIDTH 960 0
DWIDTH 14 0
BBX 18 14 -2 -2
BITMAP
010100
013D00
01A900
02FB80
04CC00
0F7800
04A700
1FF000
058000
2AFC00
1CB400
18B400
1FFC00
600000
ENDCHAR
STARTCHAR 3456
ENCODING 13398
SWIDTH 960 0
DWIDTH 14 0
BBX 18 14 -2 -2
BITMAP
000000
07CF80
044880
0F9F00
089100
0F9F00
100200
13F200
121200
27E400
242400
242400
4FC800
401800
ENDCHAR
STARTCHAR 3457
ENCODING 13399
SWIDTH 960 0
DWIDTH 14 0
BBX 18 14 -2 -2
BITMAP
000000
07CF80
044880
0F9F00
089100
0F9F00
108200
108200
17FA00
238400
254400
293400
420800
401800
ENDCHAR
STARTCHAR 3458
ENCODING 13400
SWIDTH 960 0
DWIDTH 14 0
BBX 18 14 -2 -2
BITMAP
000000
07CF80
044880
0F9F00
089100
0F9F00
122200
114200
13F200
210400
2FF400
264400
484800
501800
ENDCHAR
STARTCHAR 3459
ENCODING 13401
SWIDTH 960 0
DWIDTH 14 0
BBX 18 14 -2 -2
BITMAP
000400
03C400
028F80
051200
062200
05C400
094E00
095200
095200
12BC00
1CA400
10A400
217800
210000
ENDCHAR
STARTCHAR 345a
ENCODING 13402
SWIDTH 960 0
DWIDTH 14 0
BBX 18 14 -2 -2
BITMAP
008200
008F80
07C280
013F80
07C000
045F00
0FA200
08BE00
0F8400
047C00
3F4800
04FE00
081000
081000
ENDCHAR
STARTCHAR 345b
ENCODING 13403
SWIDTH 960 0
DWIDTH 14 0
BBX 18 14 -2 -2
BITMAP
008200
008200
01DFC0
036080
051E80
0FD200
08A400
0FBC00
08A000
1F7C00
124400
174400
398800
60F800
ENDCHAR
STARTCHAR 345c
ENCODING 13404
SWIDTH 960 0
DWIDTH 14 0
BBX 18 14 -2 -2
BITMAP
008200
008200
015FC0
026080
045E80
0FD200
022400
1FBC00
022000
1F7C00
114400
114400
3EF800
008000
ENDCHAR
STARTCHAR 345d
ENCODING 13405
SWIDTH 960 0
DWIDTH 14 0
BBX 18 14 -2 -2
BITMAP
002000
002000
002000
004000
0FF800
004800
009000
069000
039000
02A000
046200
182200
202400
401C00
ENDCHAR
STARTCHAR 345e
ENCODING 13406
SWIDTH 960 0
DWIDTH 14 0
BBX 18 14 -2 -2
BITMAP
001000
001000
002800
00C800
03FE00
0C0180
03F800
001000
006000
0FB800
080800
080800
1FF000
000000
ENDCHAR
STARTCHAR 345f
ENCODING 13407
SWIDTH 960 0
DWIDTH 14 0
BBX 18 14 -2 -2
BITMAP
001000
011100
011100
03FE00
000000
03FF80
040000
05FC00
042000
044000
13FC00
204000
408000
008000
ENDCHAR
STARTCHAR 3460
ENCODING 13408
SWIDTH 960 0
DWIDTH 14 0
BBX 18 14 -2 -2
BITMAP
001000
011080
01FF80
012200
07FF80
05E400
088800
0FEF00
0A7400
17D400
148800
17F800
394800
418400
ENDCHAR
STARTCHAR 3461
ENCODING 13409
SWIDTH 960 0
DWIDTH 14 0
BBX 18 14 -2 -2
BITMAP
000000
001F80
07C000
020000
020000
02FF80
1F2800
042800
044800
085000
0E9000
331200
041400
080C00
ENDCHAR
STARTCHAR 3462
ENCODING 13410
SWIDTH 960 0
DWIDTH 14 0
BBX 18 14 -2 -2
BITMAP
000800
00FFC0
008000
093E00
052200
053E00
03EF00
072900
1DFF00
242000
092400
112400
224800
43F800
ENDCHAR
STARTCHAR 3463
ENCODING 13411
SWIDTH 960 0
DWIDTH 14 0
BBX 18 14 -2 -2
BITMAP
000000
079F00
049100
092200
0F3E00
092200
124400
1E7E00
125400
249800
3C9000
00E800
018800
060400
ENDCHAR
STARTCHAR 3464
ENCODING 13412
SWIDTH 960 0
DWIDTH 14 0
BBX 18 14 -2 -2
BITMAP
001000
011100
011100
03FE00
000000
0FFF80
010000
010000
03FC00
060800
0A0800
320800
47F000
000000
ENDCHAR
STARTCHAR 3465
ENCODING 13413
SWIDTH 960 0
DWIDTH 14 0
BBX 18 14 -2 -2
BITMAP
000000
07FF80
04C800
055000
037000
099F80
066C00
020C00
0FCC00
109800
1FA800
10CA00
3F8C00
210400
ENDCHAR
STARTCHAR 3466
ENCODING 13414
SWIDTH 960 0
DWIDTH 14 0
BBX 18 14 -2 -2
BITMAP
000000
01FFC0
012880
025F80
03B200
02DF00
052400
05FF00
090400
09F800
110800
21F800
432800
1C0400
ENDCHAR
STARTCHAR 3467
ENCODING 13415
SWIDTH 960 0
DWIDTH 14 0
BBX 18 14 -2 -2
BITMAP
000000
01FFC0
014580
024A00
029F80
029200
076400
05BE00
092400
0A7C00
124800
224800
44FC00
048000
ENDCHAR
STARTCHAR 3468
ENCODING 13416
SWIDTH 960 0
DWIDTH 14 0
BBX 18 14 -2 -2
BITMAP
000000
001FC0
03E600
000800
001F00
0FF100
053E00
052200
093E00
09C400
10FC00
206800
418800
060400
ENDCHAR
STARTCHAR 3469
ENCODING 13417
SWIDTH 960 0
DWIDTH 14 0
BBX 18 14 -2 -2
BITMAP
008000
009FC0
07F600
044800
029F00
07F100
093E00
0A2200
0DBE00
124400
1CFC00
232800
4C8800
330400
ENDCHAR
STARTCHAR 346a
ENCODING 13418
SWIDTH 960 0
DWIDTH 14 0
BBX 18 14 -2 -2
BITMAP
000000
03FFC0
026100
048400
05EF00
052900
0BDE00
0A5200
0BDE00
132400
16BC00
3AB800
444800
0D8400
ENDCHAR
STARTCHAR 346b
ENCODING 13419
SWIDTH 960 0
DWIDTH 14 0
BBX 18 14 -2 -2
BITMAP
001000
001000
002800
00C800
032600
0C2180
004000
024000
027C00
048000
048000
048000
7FFC00
000000
ENDCHAR
STARTCHAR 346c
ENCODING 13420
SWIDTH 960 0
DWIDTH 14 0
BBX 18 14 -2 -2
BITMAP
008400
008400
008400
01FF80
020800
0E0800
14FE00
044200
044400
084800
085000
086000
119000
160C00
ENDCHAR
STARTCHAR 346d
ENCODING 13421
SWIDTH 960 0
DWIDTH 14 0
BBX 18 14 -2 -2
BITMAP
002000
007E00
038C00
0C2000
03FF80
020000
04FC00
048400
048400
090800
093000
110200
210400
40FC00
ENDCHAR
STARTCHAR 346e
ENCODING 13422
SWIDTH 960 0
DWIDTH 14 0
BBX 18 14 -2 -2
BITMAP
001000
07FFC0
001000
03FE00
000000
01FC00
020800
03F800
011000
3FFE00
000000
0FF800
101000
1FF000
ENDCHAR
STARTCHAR 346f
ENCODING 13423
SWIDTH 960 0
DWIDTH 14 0
BBX 18 14 -2 -2
BITMAP
000000
01EF00
012900
025200
03DE00
002000
1FFF00
011000
060C00
3F7E00
094800
094800
1EF000
000000
ENDCHAR
STARTCHAR 3470
ENCODING 13424
SWIDTH 960 0
DWIDTH 14 0
BBX 18 14 -2 -2
BITMAP
004400
07FFC0
004400
00F800
008800
00F800
011000
1FFF00
024800
0FF800
308600
008000
3FF800
000000
ENDCHAR
STARTCHAR 3471
ENCODING 13425
SWIDTH 960 0
DWIDTH 14 0
BBX 18 14 -2 -2
BITMAP
001000
001000
03FF80
005000
008800
030400
1FFF00
000400
07C400
088800
088800
0F8800
001000
003000
ENDCHAR
STARTCHAR 3472
ENCODING 13426
SWIDTH 960 0
DWIDTH 14 0
BBX 18 14 -2 -2
BITMAP
010400
017FC0
010400
027F00
0FBF00
04A100
097E00
092400
1EFF00
240000
06FC00
0A8400
71F800
000000
ENDCHAR
STARTCHAR 3473
ENCODING 13427
SWIDTH 960 0
DWIDTH 14 0
BBX 18 14 -2 -2
BITMAP
001000
001000
07FFC0
082080
0BFE80
00C800
030800
1FFF00
000800
0F9000
089000
0F9000
002000
006000
ENDCHAR
STARTCHAR 3474
ENCODING 13428
SWIDTH 960 0
DWIDTH 14 0
BBX 18 14 -2 -2
BITMAP
000400
010400
010400
02FF80
0A8800
0A8800
15FE00
154200
154400
2A4800
3E3000
007000
019000
060C00
ENDCHAR
STARTCHAR 3475
ENCODING 13429
SWIDTH 960 0
DWIDTH 14 0
BBX 18 14 -2 -2
BITMAP
006200
001C00
00F600
072200
004000
0FFF80
012000
03FE00
0E2200
144400
244400
044800
08B000
008000
ENDCHAR
STARTCHAR 3476
ENCODING 13430
SWIDTH 960 0
DWIDTH 14 0
BBX 18 14 -2 -2
BITMAP
011200
015280
049D00
02A600
012600
07A900
1AFD00
004400
0FFF00
044800
065000
096200
319400
460C00
ENDCHAR
STARTCHAR 3477
ENCODING 13431
SWIDTH 960 0
DWIDTH 14 0
BBX 18 14 -2 -2
BITMAP
000000
01FE00
000200
000400
03FC00
020400
020200
01FE00
004000
0A4800
0A4400
121400
622400
01E000
ENDCHAR
STARTCHAR 3478
ENCODING 13432
SWIDTH 960 0
DWIDTH 14 0
BBX 18 14 -2 -2
BITMAP
010000
017FC0
014440
0FBE80
020800
027F00
049200
07FE00
1C9200
09FC00
082000
0BFE00
104000
304000
ENDCHAR
STARTCHAR 3479
ENCODING 13433
SWIDTH 960 0
DWIDTH 14 0
BBX 18 14 -2 -2
BITMAP
008000
008F00
008900
0FF200
011200
039200
06A400
06A400
0A4400
144800
248800
050A00
0A0C00
0C0400
ENDCHAR
STARTCHAR 347a
ENCODING 13434
SWIDTH 960 0
DWIDTH 14 0
BBX 18 14 -2 -2
BITMAP
010800
010800
013FC0
0FD200
027F80
021200
073C00
052400
093C00
0A4800
13FE00
226800
428800
190400
ENDCHAR
STARTCHAR 347b
ENCODING 13435
SWIDTH 960 0
DWIDTH 14 0
BBX 18 14 -2 -2
BITMAP
000000
03EFC0
022500
044A00
07CA00
044A00
08FF00
0F8C00
0A0C00
121800
132800
1DCA00
610C00
020400
ENDCHAR
STARTCHAR 347c
ENCODING 13436
SWIDTH 960 0
DWIDTH 14 0
BBX 18 14 -2 -2
BITMAP
012000
012780
012480
0FF900
024F00
03C900
049200
079E00
049200
3FE400
0A2400
124400
228800
411800
ENDCHAR
STARTCHAR 347d
ENCODING 13437
SWIDTH 960 0
DWIDTH 14 0
BBX 18 14 -2 -2
BITMAP
008900
008900
008900
0FFF80
011200
039E00
06A400
06BC00
0A2400
15FE00
244800
048400
090400
0A0400
ENDCHAR
STARTCHAR 347e
ENCODING 13438
SWIDTH 960 0
DWIDTH 14 0
BBX 18 14 -2 -2
BITMAP
001000
07FFC0
002400
03FC00
012600
0FFF80
024800
03F800
004000
3FFE00
01C000
0EB000
710C00
010000
ENDCHAR
STARTCHAR 3521
ENCODING 13601
SWIDTH 960 0
DWIDTH 14 0
BBX 18 14 -2 -2
BITMAP
011480
011480
017F80
0FDA80
022900
037A80
0DDF00
0D1400
0DFF00
191000
299400
0A7800
144400
198400
ENDCHAR
STARTCHAR 3522
ENCODING 13602
SWIDTH 960 0
DWIDTH 14 0
BBX 18 14 -2 -2
BITMAP
008000
00BF80
008080
013F00
050100
057F00
0A0000
13FF00
031200
05FC00
052400
092400
125800
204000
ENDCHAR
STARTCHAR 3523
ENCODING 13603
SWIDTH 960 0
DWIDTH 14 0
BBX 18 14 -2 -2
BITMAP
008000
008700
03F500
024A00
018A80
0FF280
064300
1B7E00
0D9200
369400
0A9800
323800
02C800
190400
ENDCHAR
STARTCHAR 3524
ENCODING 13604
SWIDTH 960 0
DWIDTH 14 0
BBX 18 14 -2 -2
BITMAP
008000
008000
01FF80
020000
05FC00
080000
07F800
004800
008800
0C8800
030A00
048A00
180C00
600400
ENDCHAR
STARTCHAR 3525
ENCODING 13605
SWIDTH 960 0
DWIDTH 14 0
BBX 18 14 -2 -2
BITMAP
011000
009000
00BF80
084000
04BE00
040000
01FC00
000400
040400
040800
080A00
100E00
100C00
200400
ENDCHAR
STARTCHAR 3526
ENCODING 13606
SWIDTH 960 0
DWIDTH 14 0
BBX 18 14 -2 -2
BITMAP
011200
015280
049D80
032600
02A500
0FFF00
00A900
1FFF00
0FA200
152400
1F2800
153000
3D5400
008C00
ENDCHAR
STARTCHAR 3527
ENCODING 13607
SWIDTH 960 0
DWIDTH 14 0
BBX 18 14 -2 -2
BITMAP
008080
008300
008C00
0FD000
009000
011F80
032400
06A400
1AC400
244800
048800
050800
0A1000
0C1000
ENDCHAR
STARTCHAR 3528
ENCODING 13608
SWIDTH 960 0
DWIDTH 14 0
BBX 18 14 -2 -2
BITMAP
000600
01F800
001000
0FFF80
007000
01A800
064C00
1BFB00
003000
00C000
3FFE00
008000
010000
070000
ENDCHAR
STARTCHAR 3529
ENCODING 13609
SWIDTH 960 0
DWIDTH 14 0
BBX 18 14 -2 -2
BITMAP
002100
00CD00
038700
013900
010800
0FFF80
022800
073E00
0FEA00
155400
245400
045C00
082000
082000
ENDCHAR
STARTCHAR 352a
ENCODING 13610
SWIDTH 960 0
DWIDTH 14 0
BBX 18 14 -2 -2
BITMAP
008000
008F80
01C080
0E4100
028100
039F00
04A000
1F6000
042000
164000
154000
254200
483C00
080000
ENDCHAR
STARTCHAR 352b
ENCODING 13611
SWIDTH 960 0
DWIDTH 14 0
BBX 18 14 -2 -2
BITMAP
012200
01AA00
02AA00
0DEC00
028F80
02B100
0F7A00
188A00
094C00
1FD400
154800
19B800
32C800
228400
ENDCHAR
STARTCHAR 352c
ENCODING 13612
SWIDTH 960 0
DWIDTH 14 0
BBX 18 14 -2 -2
BITMAP
008000
009F80
009080
07FF00
012100
013F00
1FC200
024200
027E00
045000
0A9000
139200
221400
440C00
ENDCHAR
STARTCHAR 352d
ENCODING 13613
SWIDTH 960 0
DWIDTH 14 0
BBX 18 14 -2 -2
BITMAP
000000
03EF80
000080
0FE100
000100
07DF00
002000
0FA000
002000
1F4000
114000
114200
3E3C00
000000
ENDCHAR
STARTCHAR 352e
ENCODING 13614
SWIDTH 960 0
DWIDTH 14 0
BBX 18 14 -2 -2
BITMAP
001000
00FE00
009200
01FC00
002000
0FFF80
020800
03F800
020800
07F000
041000
07F000
065000
380800
ENDCHAR
STARTCHAR 352f
ENCODING 13615
SWIDTH 960 0
DWIDTH 14 0
BBX 18 14 -2 -2
BITMAP
008000
008F80
03E080
010100
010100
0FFF00
022000
0A2000
0BE000
144200
1C4200
143E00
220000
41FC00
ENDCHAR
STARTCHAR 3530
ENCODING 13616
SWIDTH 960 0
DWIDTH 14 0
BBX 18 14 -2 -2
BITMAP
008400
008400
07F400
013E00
07CA00
054A00
0F9400
0A9400
0FA400
042800
3FC800
048A00
090C00
0A0400
ENDCHAR
STARTCHAR 3531
ENCODING 13617
SWIDTH 960 0
DWIDTH 14 0
BBX 18 14 -2 -2
BITMAP
008000
009FC0
04B240
057F80
058400
011F00
1FEA00
053E00
052A00
0AFC00
0B1000
12FE00
202000
402000
ENDCHAR
STARTCHAR 3532
ENCODING 13618
SWIDTH 960 0
DWIDTH 14 0
BBX 18 14 -2 -2
BITMAP
008000
008F00
01C900
035200
051200
0FD200
08A400
0FA400
08A400
1F4800
144800
168A00
3B0C00
620400
ENDCHAR
STARTCHAR 3533
ENCODING 13619
SWIDTH 960 0
DWIDTH 14 0
BBX 18 14 -2 -2
BITMAP
000200
03F200
02BFC0
07C400
050A00
07B100
0A5F00
0F8200
00BA00
155400
155400
217400
420800
0C1800
ENDCHAR
STARTCHAR 3534
ENCODING 13620
SWIDTH 960 0
DWIDTH 14 0
BBX 18 14 -2 -2
BITMAP
001000
002000
01FF00
022200
022200
03FE00
044400
07FC00
024800
029000
04A800
08FE00
110400
20FC00
ENDCHAR
STARTCHAR 3535
ENCODING 13621
SWIDTH 960 0
DWIDTH 14 0
BBX 18 14 -2 -2
BITMAP
002000
003C00
00C800
0FFC00
012400
01FC00
024800
07FC00
044400
0FF800
088800
0FFA00
010400
00FC00
ENDCHAR
STARTCHAR 3536
ENCODING 13622
SWIDTH 960 0
DWIDTH 14 0
BBX 18 14 -2 -2
BITMAP
00A400
009400
009400
01FE00
021200
0E1200
143E00
044200
04FE00
09AA00
0E5600
0A4200
120400
101800
ENDCHAR
STARTCHAR 3537
ENCODING 13623
SWIDTH 960 0
DWIDTH 14 0
BBX 18 14 -2 -2
BITMAP
009100
008A00
00FFC0
010800
027F00
0E0800
15FF00
04EA00
044900
0FFE00
08D400
0B9800
116400
130400
ENDCHAR
STARTCHAR 3538
ENCODING 13624
SWIDTH 960 0
DWIDTH 14 0
BBX 18 14 -2 -2
BITMAP
008200
008200
009FC0
010400
0FC400
027F00
04A200
04A200
0F2400
122800
031000
056800
398800
020400
ENDCHAR
STARTCHAR 3539
ENCODING 13625
SWIDTH 960 0
DWIDTH 14 0
BBX 18 14 -2 -2
BITMAP
001000
001000
07FFC0
080080
09F880
010800
021000
03F000
021000
07E000
042000
042000
7FFC00
000000
ENDCHAR
STARTCHAR 353a
ENCODING 13626
SWIDTH 960 0
DWIDTH 14 0
BBX 18 14 -2 -2
BITMAP
004300
007280
004280
07F400
04E780
07BC00
08CA00
0A8A00
0AEC00
1D8800
1D1A00
27AE00
4CCC00
300400
ENDCHAR
STARTCHAR 353b
ENCODING 13627
SWIDTH 960 0
DWIDTH 14 0
BBX 18 14 -2 -2
BITMAP
010400
010400
010400
0FFF80
020800
020800
04FE00
074200
1C4400
084800
083000
087000
119000
360C00
ENDCHAR
STARTCHAR 353c
ENCODING 13628
SWIDTH 960 0
DWIDTH 14 0
BBX 18 14 -2 -2
BITMAP
014000
015FC0
016380
0F9200
027200
025F80
04E600
075400
1DF700
08A800
09A800
0AF800
148800
390400
ENDCHAR
STARTCHAR 353d
ENCODING 13629
SWIDTH 960 0
DWIDTH 14 0
BBX 18 14 -2 -2
BITMAP
012400
012400
012400
0FE800
024F80
03F900
04CC00
078800
048800
3F9000
092800
11C800
210800
420400
ENDCHAR
STARTCHAR 353e
ENCODING 13630
SWIDTH 960 0
DWIDTH 14 0
BBX 18 14 -2 -2
BITMAP
009100
008A00
02BFC0
050800
07BF00
090800
12FF00
037A00
0E2900
37FE00
047400
05DA00
08AC00
09C400
ENDCHAR
STARTCHAR 353f
ENCODING 13631
SWIDTH 960 0
DWIDTH 14 0
BBX 18 14 -2 -2
BITMAP
020000
027F80
038B00
044400
03C400
027F80
078A00
0A2C00
1FA800
045C00
0A5000
13B000
223000
440C00
ENDCHAR
STARTCHAR 3540
ENCODING 13632
SWIDTH 960 0
DWIDTH 14 0
BBX 18 14 -2 -2
BITMAP
010080
010300
011E00
0FA400
00A400
012400
027F00
064800
1E4400
2A8A00
088A00
09EE00
160C00
100400
ENDCHAR
STARTCHAR 3541
ENCODING 13633
SWIDTH 960 0
DWIDTH 14 0
BBX 18 14 -2 -2
BITMAP
004400
03FF80
001000
03FE00
002000
0FFF80
01A400
0E2200
1FFF00
042400
072800
3C3200
08D400
1B0C00
ENDCHAR
STARTCHAR 3542
ENCODING 13634
SWIDTH 960 0
DWIDTH 14 0
BBX 18 14 -2 -2
BITMAP
010900
013FC0
010400
0FBF00
0A8800
0AFF80
151A00
1F6900
04FF00
0C5400
0A6C00
1FDA00
60EC00
018400
ENDCHAR
STARTCHAR 3543
ENCODING 13635
SWIDTH 960 0
DWIDTH 14 0
BBX 18 14 -2 -2
BITMAP
000400
03C400
003FC0
0FC080
007E00
07C200
004400
0F7C00
004400
1EF800
128800
128800
3FFC00
000000
ENDCHAR
STARTCHAR 3544
ENCODING 13636
SWIDTH 960 0
DWIDTH 14 0
BBX 18 14 -2 -2
BITMAP
001100
038A00
007FC0
0F8800
007F00
060800
01FF00
0E6A00
01C900
1EFE00
14D400
179A00
396C00
030400
ENDCHAR
STARTCHAR 3545
ENCODING 13637
SWIDTH 960 0
DWIDTH 14 0
BBX 18 14 -2 -2
BITMAP
011000
011000
011000
0FFF00
025100
029500
04AA00
06B200
1DFE00
08E400
08D400
094C00
168800
30B000
ENDCHAR
STARTCHAR 3546
ENCODING 13638
SWIDTH 960 0
DWIDTH 14 0
BBX 18 14 -2 -2
BITMAP
004400
004400
07FFC0
018800
010000
03FF00
049200
0A9200
12A200
0FF400
038400
0D4400
322800
023000
ENDCHAR
STARTCHAR 3547
ENCODING 13639
SWIDTH 960 0
DWIDTH 14 0
BBX 18 14 -2 -2
BITMAP
014800
014800
07FF80
029900
03AB00
016F00
0FBA00
0AFE00
0FBA00
046C00
3FAC00
052400
082800
081000
ENDCHAR
STARTCHAR 3548
ENCODING 13640
SWIDTH 960 0
DWIDTH 14 0
BBX 18 14 -2 -2
BITMAP
001000
001000
001000
0FFF80
002000
002000
0FFE00
000000
07FC00
080800
080800
080800
1FF000
000000
ENDCHAR
STARTCHAR 3549
ENCODING 13641
SWIDTH 960 0
DWIDTH 14 0
BBX 18 14 -2 -2
BITMAP
001000
001000
002000
0F3F80
094000
09C000
133C00
120800
123000
244000
3C8000
010200
010400
00FC00
ENDCHAR
STARTCHAR 354a
ENCODING 13642
SWIDTH 960 0
DWIDTH 14 0
BBX 18 14 -2 -2
BITMAP
002000
002F80
07FA80
0A4500
0BF500
0A4900
14EA00
179600
142000
2FFE00
384000
01A000
061000
180C00
ENDCHAR
STARTCHAR 354b
ENCODING 13643
SWIDTH 960 0
DWIDTH 14 0
BBX 18 14 -2 -2
BITMAP
008400
008400
008400
0FFF80
010800
038800
06FE00
068000
0AFE00
148400
248400
048400
09F800
080800
ENDCHAR
STARTCHAR 354c
ENCODING 13644
SWIDTH 960 0
DWIDTH 14 0
BBX 18 14 -2 -2
BITMAP
010000
013F00
010A00
0FFF80
021900
03CA00
0D3000
0DFE00
0D6A00
199C00
297400
095400
12D800
120800
ENDCHAR
STARTCHAR 354d
ENCODING 13645
SWIDTH 960 0
DWIDTH 14 0
BBX 18 14 -2 -2
BITMAP
000400
03C400
000400
0FFF80
000800
078800
007E00
0F0000
007E00
1E8400
128400
128400
3DF800
000000
ENDCHAR
STARTCHAR 354e
ENCODING 13646
SWIDTH 960 0
DWIDTH 14 0
BBX 18 14 -2 -2
BITMAP
000200
03F200
008200
010780
010400
020400
078800
0CBE00
14A200
094400
094400
0F4400
00F800
000000
ENDCHAR
STARTCHAR 354f
ENCODING 13647
SWIDTH 960 0
DWIDTH 14 0
BBX 18 14 -2 -2
BITMAP
008800
008800
008800
0FFF80
012400
03C400
070800
06FF00
0A8800
141000
241000
041000
082000
082000
ENDCHAR
STARTCHAR 3550
ENCODING 13648
SWIDTH 960 0
DWIDTH 14 0
BBX 18 14 -2 -2
BITMAP
000300
01FC00
001000
0FFF80
007000
03AC00
1C4300
00E000
035800
3C9E00
03E000
0EB000
310800
030000
ENDCHAR
STARTCHAR 3551
ENCODING 13649
SWIDTH 960 0
DWIDTH 14 0
BBX 18 14 -2 -2
BITMAP
008000
008780
008480
07E900
010900
010900
1FF200
021200
031200
052400
09B800
3EA000
014000
004000
ENDCHAR
STARTCHAR 3552
ENCODING 13650
SWIDTH 960 0
DWIDTH 14 0
BBX 18 14 -2 -2
BITMAP
001000
001000
07FFC0
084080
08FC80
038800
0C9000
00E000
031C00
3FF200
041000
041000
082000
0FE000
ENDCHAR
STARTCHAR 3553
ENCODING 13651
SWIDTH 960 0
DWIDTH 14 0
BBX 18 14 -2 -2
BITMAP
001000
039380
029280
05FD00
072500
052500
0BFA00
0E4A00
0A4A00
14D400
157C00
179000
182000
482000
ENDCHAR
STARTCHAR 3554
ENCODING 13652
SWIDTH 960 0
DWIDTH 14 0
BBX 18 14 -2 -2
BITMAP
001000
001F80
001000
03FF80
025D00
03E200
047C00
040000
09FE00
0A0000
13FC00
220000
47F800
000000
ENDCHAR
STARTCHAR 3555
ENCODING 13653
SWIDTH 960 0
DWIDTH 14 0
BBX 18 14 -2 -2
BITMAP
002100
021100
021200
02FF80
000800
004900
009200
1C9200
04FE00
092000
082000
1C4000
238000
41FC00
ENDCHAR
STARTCHAR 3556
ENCODING 13654
SWIDTH 960 0
DWIDTH 14 0
BBX 18 14 -2 -2
BITMAP
000200
000C00
00F000
010000
010000
01FF00
021000
021000
021000
042000
042000
042000
7FFC00
000000
ENDCHAR
STARTCHAR 3557
ENCODING 13655
SWIDTH 960 0
DWIDTH 14 0
BBX 18 14 -2 -2
BITMAP
002000
002000
004000
007C00
008400
010800
020800
041000
087000
009000
011000
060800
180800
600400
ENDCHAR
STARTCHAR 3558
ENCODING 13656
SWIDTH 960 0
DWIDTH 14 0
BBX 18 14 -2 -2
BITMAP
009000
009000
011000
012000
023C00
0FE400
144800
044800
048800
089000
091200
0A1200
141400
180C00
ENDCHAR
STARTCHAR 3559
ENCODING 13657
SWIDTH 960 0
DWIDTH 14 0
BBX 18 14 -2 -2
BITMAP
008400
008400
010400
010800
02FF80
0E0800
143800
043800
045800
08A800
092400
0A2200
104000
104000
ENDCHAR
STARTCHAR 355a
ENCODING 13658
SWIDTH 960 0
DWIDTH 14 0
BBX 18 14 -2 -2
BITMAP
000000
03FE00
004200
008400
008800
00DE00
018400
024400
044800
045000
082000
10D000
231000
4C0C00
ENDCHAR
STARTCHAR 355b
ENCODING 13659
SWIDTH 960 0
DWIDTH 14 0
BBX 18 14 -2 -2
BITMAP
000000
007F00
079100
092200
092400
093F00
126200
126200
12A400
3D2800
011000
062800
098800
160400
ENDCHAR
STARTCHAR 355c
ENCODING 13660
SWIDTH 960 0
DWIDTH 14 0
BBX 18 14 -2 -2
BITMAP
001000
001000
07FFC0
080080
09FC80
010400
020800
03F800
00C000
010000
0FF800
080800
101000
1FF000
ENDCHAR
STARTCHAR 355d
ENCODING 13661
SWIDTH 960 0
DWIDTH 14 0
BBX 18 14 -2 -2
BITMAP
000000
01FF00
000100
000200
03FE00
020000
040000
07FE00
000200
000400
000400
000800
001000
00E000
ENDCHAR
STARTCHAR 355e
ENCODING 13662
SWIDTH 960 0
DWIDTH 14 0
BBX 18 14 -2 -2
BITMAP
002000
007C00
018800
06FE00
000200
01FE00
000400
07FC00
004000
0A4800
0A4400
121400
622400
01E000
ENDCHAR
STARTCHAR 355f
ENCODING 13663
SWIDTH 960 0
DWIDTH 14 0
BBX 18 14 -2 -2
BITMAP
008400
00A400
009800
0FEF80
011100
09B200
0AD200
0B1400
0F0C00
0D1000
151800
242800
08C800
1B0400
ENDCHAR
STARTCHAR 3560
ENCODING 13664
SWIDTH 960 0
DWIDTH 14 0
BBX 18 14 -2 -2
BITMAP
008000
009FC0
008400
0FE800
010800
039F00
068200
068200
0A4200
140400
240400
040400
080800
083000
ENDCHAR
STARTCHAR 3561
ENCODING 13665
SWIDTH 960 0
DWIDTH 14 0
BBX 18 14 -2 -2
BITMAP
001200
001100
001100
0FFF80
002000
003100
0C6200
025400
01D800
029000
0C8800
308400
010400
030000
ENDCHAR
STARTCHAR 3562
ENCODING 13666
SWIDTH 960 0
DWIDTH 14 0
BBX 18 14 -2 -2
BITMAP
020000
017F00
012100
084200
044400
046F00
00C200
04A400
08A800
092800
121000
246800
288800
530400
ENDCHAR
STARTCHAR 3563
ENCODING 13667
SWIDTH 960 0
DWIDTH 14 0
BBX 18 14 -2 -2
BITMAP
010400
008400
008400
087F80
040200
044200
004400
024400
044400
048800
089000
109000
27FC00
200000
ENDCHAR
STARTCHAR 3564
ENCODING 13668
SWIDTH 960 0
DWIDTH 14 0
BBX 18 14 -2 -2
BITMAP
001000
003C00
01C800
063000
004800
01A400
1E0300
004400
044800
08D000
112000
061000
181000
600C00
ENDCHAR
STARTCHAR 3565
ENCODING 13669
SWIDTH 960 0
DWIDTH 14 0
BBX 18 14 -2 -2
BITMAP
000500
000480
07C480
023F80
020800
02CA00
1F5A00
045C00
041400
0A6400
0CA400
332200
004000
00C000
ENDCHAR
STARTCHAR 3566
ENCODING 13670
SWIDTH 960 0
DWIDTH 14 0
BBX 18 14 -2 -2
BITMAP
001000
001000
07FFC0
089080
089080
011100
023E00
044000
0FF000
012000
012000
022200
0C2400
301C00
ENDCHAR
STARTCHAR 3567
ENCODING 13671
SWIDTH 960 0
DWIDTH 14 0
BBX 18 14 -2 -2
BITMAP
001000
07FFC0
04D040
091280
028E00
039E00
048400
07BC00
07A000
097C00
3F0400
070400
1A0800
663000
ENDCHAR
STARTCHAR 3568
ENCODING 13672
SWIDTH 960 0
DWIDTH 14 0
BBX 18 14 -2 -2
BITMAP
008400
008400
01FFC0
029400
046200
0BFC00
010800
011000
01BC00
030800
049000
186000
236000
4C1C00
ENDCHAR
STARTCHAR 3569
ENCODING 13673
SWIDTH 960 0
DWIDTH 14 0
BBX 18 14 -2 -2
BITMAP
008000
008F80
01C880
0E5100
029200
039600
04B200
1FB200
043400
165400
154800
25B800
494800
0A8400
ENDCHAR
STARTCHAR 356a
ENCODING 13674
SWIDTH 960 0
DWIDTH 14 0
BBX 18 14 -2 -2
BITMAP
008100
008900
01C900
0E5200
029200
039200
04A400
1F6400
042700
167800
15C800
250800
481000
081000
ENDCHAR
STARTCHAR 356b
ENCODING 13675
SWIDTH 960 0
DWIDTH 14 0
BBX 18 14 -2 -2
BITMAP
008200
008200
01C600
0E4A00
029100
03BF80
048000
1F8000
043E00
164400
154400
254400
48F800
080000
ENDCHAR
STARTCHAR 356c
ENCODING 13676
SWIDTH 960 0
DWIDTH 14 0
BBX 18 14 -2 -2
BITMAP
020000
027F00
024100
048200
048200
048200
09FC00
090400
090400
120800
120800
120800
27F000
200000
ENDCHAR
STARTCHAR 356d
ENCODING 13677
SWIDTH 960 0
DWIDTH 14 0
BBX 18 14 -2 -2
BITMAP
001000
009000
009000
012000
03FE00
042000
084000
004000
1FFF00
008000
008000
008000
010000
010000
ENDCHAR
STARTCHAR 356e
ENCODING 13678
SWIDTH 960 0
DWIDTH 14 0
BBX 18 14 -2 -2
BITMAP
001000
001000
001000
03FE00
002000
002000
004000
1FFF00
008000
012000
021000
0CF800
370800
000800
ENDCHAR
STARTCHAR 356f
ENCODING 13679
SWIDTH 960 0
DWIDTH 14 0
BBX 18 14 -2 -2
BITMAP
000000
01FF80
010080
03FF00
021000
021000
07FF00
042000
082000
0BF800
120800
220800
47F000
000000
ENDCHAR
STARTCHAR 3570
ENCODING 13680
SWIDTH 960 0
DWIDTH 14 0
BBX 18 14 -2 -2
BITMAP
000000
03FF80
020000
040000
07FC00
040400
080800
080800
0FF800
100000
100000
100000
3FFC00
000000
ENDCHAR
STARTCHAR 3571
ENCODING 13681
SWIDTH 960 0
DWIDTH 14 0
BBX 18 14 -2 -2
BITMAP
008000
009FC0
009000
0FE000
013F00
012100
024200
03C200
1E7E00
048000
048000
048000
09FC00
180000
ENDCHAR
STARTCHAR 3572
ENCODING 13682
SWIDTH 960 0
DWIDTH 14 0
BBX 18 14 -2 -2
BITMAP
010000
012700
012500
0F4A00
02EA00
02AA00
04D400
06D400
1CC400
094A00
0A8A00
0C8600
104000
303C00
ENDCHAR
STARTCHAR 3573
ENCODING 13683
SWIDTH 960 0
DWIDTH 14 0
BBX 18 14 -2 -2
BITMAP
012100
009100
009200
0FFF80
008800
031C00
05E200
184100
07FC00
008000
1FFC00
008000
010000
030000
ENDCHAR
STARTCHAR 3574
ENCODING 13684
SWIDTH 960 0
DWIDTH 14 0
BBX 18 14 -2 -2
BITMAP
010000
00BF80
04A000
047E00
044200
017E00
028000
04FE00
184000
2FFE00
01C000
0EB000
710C00
010000
ENDCHAR
STARTCHAR 3575
ENCODING 13685
SWIDTH 960 0
DWIDTH 14 0
BBX 18 14 -2 -2
BITMAP
001000
001F80
001000
03FF80
023D00
03E100
047E00
045000
0A5200
0AA400
12A800
30A000
4FFC00
000000
ENDCHAR
STARTCHAR 3576
ENCODING 13686
SWIDTH 960 0
DWIDTH 14 0
BBX 18 14 -2 -2
BITMAP
000800
03C800
000800
0FFF00
002800
07C800
001000
0FFF00
001000
1E2000
122000
122000
3C4000
004000
ENDCHAR
STARTCHAR 3577
ENCODING 13687
SWIDTH 960 0
DWIDTH 14 0
BBX 18 14 -2 -2
BITMAP
000000
03EFC0
022800
045000
07DF00
011100
0A2200
0BA200
0A3E00
144000
144000
174000
38FC00
600000
ENDCHAR
STARTCHAR 3578
ENCODING 13688
SWIDTH 960 0
DWIDTH 14 0
BBX 18 14 -2 -2
BITMAP
008000
009F80
015080
026100
047F00
0BA400
027F00
1FC800
024800
15FC00
0EC400
0DC400
0EF800
700000
ENDCHAR
ENDFONT
